<?xml version="1.0" encoding="UTF-8" standalone="no"?>
<svg
   xmlns:dc="http://purl.org/dc/elements/1.1/"
   xmlns:cc="http://creativecommons.org/ns#"
   xmlns:rdf="http://www.w3.org/1999/02/22-rdf-syntax-ns#"
   xmlns:svg="http://www.w3.org/2000/svg"
   xmlns="http://www.w3.org/2000/svg"
   xmlns:sodipodi="http://sodipodi.sourceforge.net/DTD/sodipodi-0.dtd"
   xmlns:inkscape="http://www.inkscape.org/namespaces/inkscape"
   id="Capa_1"
   enable-background="new 0 0 512 512"
   height="512"
   viewBox="0 0 512 512"
   width="512"
   version="1.1"
   sodipodi:docname="location.svg"
   inkscape:version="1.0.1 (3bc2e813f5, 2020-09-07)">
  <metadata
     id="metadata937">
    <rdf:RDF>
      <cc:Work
         rdf:about="">
        <dc:format>image/svg+xml</dc:format>
        <dc:type
           rdf:resource="http://purl.org/dc/dcmitype/StillImage" />
      </cc:Work>
    </rdf:RDF>
  </metadata>
  <defs
     id="defs935" />
  <sodipodi:namedview
     pagecolor="#ffffff"
     bordercolor="#666666"
     borderopacity="1"
     objecttolerance="10"
     gridtolerance="10"
     guidetolerance="10"
     inkscape:pageopacity="0"
     inkscape:pageshadow="2"
     inkscape:window-width="1366"
     inkscape:window-height="705"
     id="namedview933"
     showgrid="false"
     inkscape:snap-global="true"
     inkscape:zoom="1.4860291"
     inkscape:cx="306.60471"
     inkscape:cy="97.958895"
     inkscape:window-x="-8"
     inkscape:window-y="-8"
     inkscape:window-maximized="1"
     inkscape:current-layer="Capa_1" />
  <path
     id="path928"
     style="fill-rule:evenodd;fill:#000000;fill-opacity:1"
     d="M 254.22461,0.00585938 C 199.38565,0.43436853 147.63478,21.920625 107.91797,60.757812 66.949969,100.81781 44.199422,154.11975 43.857422,210.84375 c -0.468,77.687 41.51164,149.34286 109.556638,187.00586 11.313,6.262 21.25782,15.7383 28.75782,27.4043 l 45.99804,71.55078 C 234.28492,506.31969 244.689,512 256,512 c 11.311,-10e-4 21.71408,-5.68131 27.83008,-15.19531 l 46.00195,-71.55664 c 7.491,-11.652 17.46389,-21.14036 28.83789,-27.44336 67.528,-37.416 109.47656,-108.55525 109.47656,-185.65625 0,-49.084 -17.15287,-96.94463 -48.29687,-134.765628 l -0.46094,-0.560546 c -2.628,-3.198 -7.35187,-3.654344 -10.54687,-1.027344 -0.10457,0.08598 -0.19818,0.179188 -0.29688,0.269531 1.65953,2.603516 0.22043,5.06869 -2.4082,4.925781 -0.1483,1.866893 0.39414,3.79113 1.67773,5.351563 l 0.46289,0.5625 c 28.944,35.148003 44.88282,79.627143 44.88282,125.244143 0,71.655 -38.98991,137.76992 -101.75391,172.54492 -13.535,7.5 -25.35369,18.72217 -34.17969,32.45117 l -46,71.55469 c -3.396,5.282 -8.94461,8.31345 -15.22461,8.31445 -6.281,0 -11.83056,-3.03245 -15.22656,-8.31445 l -45.99805,-71.55078 c -8.836,-13.746 -20.62947,-24.95216 -34.10546,-32.41016 C 97.425875,349.73328 58.40875,283.13359 58.84375,210.93359 c 0.318,-52.692 21.466781,-102.21993 59.55078,-139.460934 38.115,-37.269 88.16144,-57.298031 140.89844,-56.457031 45.949,0.752 90.42719,17.667906 125.24219,47.628906 1.48885,1.28186 3.3381,1.866794 5.1582,1.800781 0.40873,-0.881358 1.23284,-1.462386 2.28125,-1.529296 0.49447,-0.03156 1.03789,0.05894 1.60742,0.27539 0.55203,-0.368874 1.06722,-0.810266 1.52149,-1.33789 2.7,-3.137 2.34598,-7.86836 -0.79102,-10.56836 C 356.8475,19.043156 308.98206,0.84125 259.53906,0.03125 257.76394,0.001125 255.99361,-0.0079635 254.22461,0.00585938 Z" />
  <path
     id="path930"
     style="fill:#000000;fill-opacity:1"
     d="m 256,58.382812 c -84.787,0 -153.76562,68.978628 -153.76562,153.765628 0,84.787 68.97862,153.76562 153.76562,153.76562 84.787,0 153.76563,-68.97862 153.76562,-153.76562 C 409.76562,127.36144 340.787,58.382812 256,58.382812 Z m 0.002,14.988282 c 76.523,0 138.7793,62.256296 138.7793,138.779296 -0.002,49.446 -26.00292,92.92867 -65.04492,117.51367 -0.391,-27.922 -21.82377,-50.84879 -49.13477,-53.59179 v -2.91602 c 22.333,-3.498 39.89661,-21.5713 42.59961,-44.1543 8.398,-2.689 14.49414,-10.57061 14.49414,-19.84961 0,-9.145 -5.92181,-16.93151 -14.13281,-19.72851 v -26.27735 l 5.02344,-16.92773 c 3.537,-11.922 -2.46117,-24.49605 -13.95117,-29.24805 l -37.19922,-15.38476 c -13.823,-5.717002 -29.0481,-5.715002 -42.8711,0 l -37.20117,15.38476 c -11.492,4.753 -17.48917,17.32605 -13.95117,29.24805 l 5.02148,16.92383 v 26.28125 c -8.211,2.797 -14.13281,10.58547 -14.13281,19.73047 0,9.279 6.09809,17.16061 14.4961,19.84961 2.70199,22.584 20.2666,40.65729 42.5996,44.15429 v 2.91407 c -5.6,0.557 -11.03856,1.96775 -16.22656,4.21875 -3.797,1.647 -5.53858,6.05946 -3.89258,9.85546 1.647,3.796 6.05847,5.53558 9.85547,3.89258 3.669,-1.591 7.51552,-2.59944 11.47852,-3.02344 3.216,9.84601 12.48167,16.98243 23.38867,16.98243 10.905,0 20.17167,-7.13452 23.38867,-16.97852 19.864,2.146 35.38086,19.00388 35.38086,39.42188 v 7.41211 c -17.857,8.382 -37.77258,13.07812 -58.76758,13.07812 -20.996,0 -40.91448,-4.69612 -58.77148,-13.07812 v -7.41211 c 0,-5.616 1.14906,-11.04205 3.41406,-16.12305 1.685,-3.779 -0.012,-8.20853 -3.79101,-9.89453 -3.78,-1.685 -8.21049,0.014 -9.89649,3.79297 -3.022,6.781 -4.5894,13.99317 -4.69141,21.45117 -39.043,-24.585 -65.04492,-68.06958 -65.04492,-117.51758 0,-76.523 62.25725,-138.779296 138.78125,-138.779296 z M 256,112.29102 c 5.32162,2.5e-4 10.64398,1.04807 15.70898,3.14257 l 37.19922,15.38477 c 4.375,1.809 6.6595,6.59676 5.3125,11.13476 l -3.74218,12.60547 H 201.51953 l -3.74023,-12.60547 c -1.347,-4.53899 0.9375,-9.32576 5.3125,-11.13476 l 37.20117,-15.38672 c 5.0655,-2.0945 10.38541,-3.14087 15.70703,-3.14062 z m -46.17773,57.25586 h 92.37695 c -1.705,2.031 -3.54308,4.00645 -5.33008,5.68945 -2.156,2.031 -4.42328,3.8819 -6.73828,5.5039 -7.285,5.103 -15.81969,8.49746 -24.67969,9.81446 -15.999,2.382 -32.74626,-1.88241 -45.94726,-11.69141 -3.45,-2.563 -6.70164,-5.6914 -9.68164,-9.3164 z m -6.40039,15.19335 c 2.28,2.254 4.66653,4.31425 7.14453,6.15625 13.387,9.946 29.73762,15.28907 46.14062,15.28907 3.657,0 7.31827,-0.26469 10.94727,-0.80469 11.149,-1.658 21.89422,-5.93228 31.07422,-12.36328 2.905,-2.034 5.7351,-4.34619 8.4121,-6.86719 0.46601,-0.439 0.94855,-0.91048 1.43555,-1.39648 v 11.05859 c 0,4.139 3.35319,7.49414 7.49219,7.49414 h 0.79102 c 3.22599,0 5.84765,2.62266 5.84765,5.84766 0,3.225 -2.62266,5.84961 -5.84765,5.84961 h -0.79102 c -4.139,0 -7.49219,3.35318 -7.49219,7.49218 v 0.42774 c 0,19.753 -16.04897,35.82714 -35.79297,35.86914 h -33.56836 c -19.743,-0.042 -35.79296,-16.11614 -35.79296,-35.86914 v -0.42774 c 0,-4.139 -3.35615,-7.49218 -7.49415,-7.49218 h -0.79101 c -3.225,0 -5.84961,-2.62461 -5.84961,-5.84961 0,-3.225 2.62461,-5.84961 5.84961,-5.84961 h 0.79101 c 4.138,0 7.49414,-3.35319 7.49415,-7.49219 z m 42.96289,89.03907 h 19.23046 v 9.61523 c 0,5.303 -4.31223,9.61524 -9.61523,9.61524 -5.302,0 -9.61523,-4.31224 -9.61523,-9.61524 z" />
  <path
     id="path1528"
     style="font-variation-settings:normal;opacity:1;vector-effect:none;fill:#008000;fill-opacity:1;stroke-width:1.89226;stroke-linecap:butt;stroke-linejoin:miter;stroke-miterlimit:4;stroke-dasharray:none;stroke-dashoffset:0;stroke-opacity:1;stop-color:#000000;stop-opacity:1"
     d="m 258.95508,75.0625 c -3.02333,-0.01087 -6.12587,0.06694 -9.33008,0.230469 -23.65244,1.207098 -37.49602,4.910155 -57.34375,15.339843 C 104.8103,136.59749 92.898115,256.95847 169.69336,318.85352 l 11.37305,9.16796 1.37109,-7.9414 c 1.85776,-10.76424 6.21719,-16.96289 11.92969,-16.96289 6.22814,0 9.56691,6.2437 6.96093,13.01953 -1.07064,2.78383 -2.48853,8.61695 -3.15039,12.96289 l -1.20312,7.90234 10.12891,3.76953 c 9.71788,3.61683 24.67942,7.19711 36.77343,8.79883 14.93717,1.97826 47.04304,-2.81423 62.56055,-9.33789 l 7.36328,-3.0957 -0.84961,-10.24805 c -1.15872,-13.97248 -8.3483,-24.08723 -21.79883,-30.66797 -5.65761,-2.768 -10.51664,-4.70426 -10.79882,-4.30273 -0.28216,0.40151 -1.97502,3.06876 -3.76172,5.92578 -4.8621,7.77473 -13.64084,11.59038 -23.98828,10.42578 -7.14051,-0.80366 -9.93511,-2.34237 -15.38672,-8.46875 -5.9886,-6.72983 -7.19977,-7.30562 -11.97852,-5.70508 -8.60307,2.88142 -14.66992,0.39702 -14.66992,-6.00781 0,-6.40693 2.90221,-9.24763 11.12695,-10.89258 8.09727,-1.61946 7.55433,-3.46434 -1.84765,-6.28125 -11.58543,-3.47107 -25.2109,-17.90481 -29.37696,-31.12109 -2.13361,-6.76858 -4.86517,-11.39936 -7.58593,-12.85547 -4.64412,-2.48546 -8.14628,-8.26691 -8.61719,-14.22852 -0.74448,-9.42475 0.57313,-13.18836 6.79883,-19.41406 6.06623,-6.06624 6.66211,-7.63936 6.66211,-17.58984 0,-6.00998 -1.27506,-15.13263 -2.83399,-20.27149 -7.96101,-26.24276 -2.67731,-33.83187 33.72266,-48.43945 34.27309,-13.754082 40.63577,-13.757786 74.74804,-0.0254 25.97812,10.45788 30.11931,13.03353 34.45508,21.41797 3.39636,6.56785 3.33622,13.43235 -0.21679,25.14453 -1.55894,5.13887 -2.83399,14.83263 -2.83399,21.54102 0,11.47387 0.39538,12.56822 6.66211,18.47851 5.81055,5.48006 6.66211,7.44774 6.66211,15.39453 0,8.15336 -0.80001,9.87222 -7.61328,16.35352 -4.18736,3.98334 -7.62281,8.77454 -7.63281,10.64844 -0.01,1.8739 -2.6221,7.95078 -5.80664,13.5039 -6.03165,10.5178 -18.83404,20.52884 -28.91016,22.60742 -6.07587,1.2534 -7.05476,4.41211 -1.36719,4.41211 6.7759,0 16.57376,5.17374 25.66602,13.55469 10.03294,9.24805 13.27725,14.71963 16.73242,28.2207 l 2.42969,9.4961 11.51172,-9.42774 c 14.32955,-11.73534 27.11547,-27.84681 35.64453,-44.91601 9.60689,-19.2262 12.81217,-31.64198 13.99609,-54.21289 1.35448,-25.82236 -2.37044,-43.82946 -14.12109,-68.27539 -7.3999,-15.39471 -11.1923,-20.55009 -26.02344,-35.36914 C 338.54101,101.49387 332.16117,96.68122 319.06055,90.242188 297.43403,79.61262 280.11839,75.138621 258.95508,75.0625 Z" />
  <path
     id="path1530"
     style="font-variation-settings:normal;opacity:1;vector-effect:none;fill:#008000;fill-opacity:1;stroke-width:1.89226;stroke-linecap:butt;stroke-linejoin:miter;stroke-miterlimit:4;stroke-dasharray:none;stroke-dashoffset:0;stroke-opacity:1;stop-color:#000000;stop-opacity:1"
     d="m 256.80469,76.683594 c -15.57255,-0.02512 -31.65332,1.862816 -42.42969,5.515625 -43.63177,14.789633 -77.14568,50.052851 -89.74805,94.431641 -5.46843,19.25691 -5.8256,50.69657 -0.78906,69.38672 7.14329,26.5081 22.96612,51.66705 43.55859,69.25976 10.708,9.14812 14.62305,9.9039 14.62305,2.82813 0,-4.38135 3.39309,-11.47627 6.4707,-13.53125 1.15184,-0.76911 4.43215,-1.41254 7.29102,-1.42774 6.50738,-0.0365 8.65179,6.56957 5.52148,17.01758 -4.13372,13.79715 -3.17365,16.57298 6.88672,19.88086 4.97249,1.63497 14.1799,4.20067 20.46094,5.70313 21.12716,5.05377 51.8119,2.66725 75.67383,-5.88672 8.89639,-3.18917 9.0346,-3.36448 7.92773,-10.00195 -2.84379,-17.05338 -9.20614,-26.20532 -23.07617,-33.19141 -8.06491,-4.06214 -8.98642,-3.91974 -12.07617,1.85351 -3.46907,6.48201 -11.21705,10.30469 -20.88086,10.30469 -8.85926,0 -13.8505,-2.12916 -21.32617,-9.09961 -3.9609,-3.69324 -7.31787,-4.86967 -14.27539,-5.00195 l -9.09571,-0.17188 v -7.61328 c 0,-6.947 0.54111,-7.77382 6.18555,-9.43554 7.84498,-2.30953 7.77808,-3.49886 -0.35937,-6.44141 -8.29728,-3.00032 -24.04541,-20.14254 -27.50196,-29.93555 -1.45261,-4.11553 -5.43094,-10.59826 -8.84179,-14.40625 -10.56318,-11.79309 -10.74222,-21.42278 -0.63477,-34.27148 6.57265,-8.35523 7.17652,-19.23793 2.31836,-41.8457 -3.02953,-14.09809 -3.00941,-14.86185 0.60352,-21.93164 3.06883,-6.00509 6.63518,-8.78942 19.79296,-15.45899 19.3249,-9.79564 42.93805,-17.560546 53.4043,-17.560546 9.24348,0 31.29238,7.181456 52.42969,17.076176 19.02024,8.90369 22.44852,13.88177 20.82617,30.25195 -0.5845,5.89761 -1.61318,18.07746 -2.28516,27.06445 -1.21901,16.30336 -1.20751,16.35552 4.70704,23.0918 4.83627,5.50822 5.92773,8.39733 5.92773,15.69531 0,7.33448 -1.16133,10.37373 -6.44531,16.87891 -3.54439,4.36354 -8.35179,12.41092 -10.6836,17.88281 -4.85355,11.38945 -17.08145,23.62143 -27.31054,27.32031 -7.82774,2.83056 -9.1234,5.55664 -2.64258,5.55664 6.25312,0 23.41394,12.21228 30.06836,21.39844 3.15152,4.35055 6.66074,11.60921 7.79883,16.12891 1.13807,4.51973 2.81513,8.67888 3.72656,9.24218 2.7011,1.66937 18.42901,-12.48616 29.5293,-26.57617 12.28998,-15.60012 22.28154,-35.58491 26.28711,-52.58008 4.30852,-18.2807 3.86135,-49.15826 -0.96485,-66.57421 -13.09113,-47.24091 -50.2741,-84.140659 -97.97265,-97.226567 -8.76222,-2.403877 -20.56771,-3.580069 -32.67969,-3.599609 z" />
  <path
     id="path1532"
     style="font-variation-settings:normal;opacity:1;vector-effect:none;fill:#008000;fill-opacity:1;stroke-width:1.89226;stroke-linecap:butt;stroke-linejoin:miter;stroke-miterlimit:4;stroke-dasharray:none;stroke-dashoffset:0;stroke-opacity:1;stop-color:#000000;stop-opacity:1"
     d="m 257.23828,76.652344 c -23.96501,0.04153 -41.44927,3.700266 -58.79492,12.304687 -49.86073,24.733729 -78.15405,69.586939 -78.06445,123.751949 0.0527,31.82224 9.216,58.87572 28.08593,82.91797 9.66647,12.31609 28.81008,29.23157 31.32422,27.67774 0.95603,-0.59086 2.28793,-3.82047 2.95899,-7.17578 1.55053,-7.75265 6.28158,-13.01172 11.70507,-13.01172 7.37288,0 9.41812,4.57898 6.90626,15.46093 -3.83398,16.60967 -3.35512,18.11788 6.83007,21.4668 4.97249,1.63497 14.1799,4.20067 20.46094,5.70313 21.12716,5.05377 51.8119,2.66725 75.67383,-5.88672 8.89639,-3.18917 9.0346,-3.36448 7.92773,-10.00195 -2.84379,-17.05338 -9.20614,-26.20532 -23.07617,-33.19141 -7.97167,-4.01519 -8.99916,-3.89491 -11.8164,1.36914 -3.43776,6.4235 -11.95846,10.78906 -21.05274,10.78906 -8.94483,0 -13.92294,-2.11475 -21.41406,-9.09961 -3.9609,-3.69324 -7.31787,-4.86967 -14.27539,-5.00195 l -9.09571,-0.17188 v -7.54296 c 0,-6.87627 0.5458,-7.69897 6.18555,-9.31641 7.45919,-2.13926 7.89972,-4.18748 1.26172,-5.85352 -8.09029,-2.03053 -22.66572,-17.22541 -28.06641,-29.25976 -2.7126,-6.04447 -7.08022,-13.0088 -9.70703,-15.47656 -5.90889,-5.55111 -9.46714,-15.81 -7.79492,-22.47266 0.69295,-2.76096 3.77128,-8.19151 6.8418,-12.06836 4.65584,-5.87848 5.58398,-8.80134 5.58398,-17.60156 0,-5.80373 -1.32902,-16.28217 -2.95312,-23.28516 -3.59665,-15.50846 -2.51129,-21.31572 5.41992,-28.99609 10.58369,-10.24895 52.77178,-27.027346 67.95703,-27.027346 9.75897,0 32.05203,7.296966 52.78906,17.279296 19.17868,9.23219 22.48451,14.0586 20.64453,30.14063 -0.66908,5.8481 -1.71905,17.98566 -2.33203,26.97265 -1.10792,16.244 -1.07854,16.38005 4.81446,23.0918 4.92504,5.60932 5.92773,8.34241 5.92773,16.16016 0,7.59376 -0.92521,10.27853 -4.79297,13.9121 -2.63592,2.47631 -7.34303,9.89727 -10.45898,16.49219 -7.26065,15.3672 -16.9459,26.02664 -27.64844,30.42774 -4.66195,1.91709 -8.47842,4.0215 -8.48242,4.67578 -0.004,0.65427 2.70736,1.73248 6.02734,2.39648 7.83153,1.56631 24.82506,14.4384 29.67774,22.48047 2.08749,3.4595 4.8599,9.71694 6.16015,13.9043 1.30027,4.18736 3.04615,8.35679 3.88086,9.26562 2.28723,2.49032 18.02599,-11.39749 29.67774,-26.1875 20.48212,-25.99869 29.17741,-51.28245 29.22461,-84.98437 0.0345,-24.63472 -2.97295,-37.18025 -14.57618,-60.82617 -7.39397,-15.06796 -11.58882,-20.78229 -25.20703,-34.33008 C 324.3514,89.439409 293.94302,76.588744 257.23828,76.652344 Z" />
  <path
     id="path1534"
     style="font-variation-settings:normal;opacity:1;vector-effect:none;fill:#008000;fill-opacity:1;stroke-width:1.89226;stroke-linecap:butt;stroke-linejoin:miter;stroke-miterlimit:4;stroke-dasharray:none;stroke-dashoffset:0;stroke-opacity:1;stop-color:#000000;stop-opacity:1"
     d="m 252.94531,77.011719 c -31.18861,0.192738 -53.83958,8.088961 -79.49219,27.171871 -54.40472,40.47153 -69.54527,117.54003 -34.7832,177.04493 8.1841,14.00935 36.16614,43.63341 40.00586,42.35351 1.21936,-0.40646 2.97211,-3.67874 3.89453,-7.27148 2.1419,-8.34259 6.51097,-13.19336 11.88281,-13.19336 7.37288,0 9.41812,4.57898 6.90626,15.46093 -3.83398,16.60967 -3.35512,18.11788 6.83007,21.4668 4.97249,1.63497 14.1799,4.20067 20.46094,5.70313 20.88391,4.99558 50.14607,2.80058 75.67188,-5.67774 9.08036,-3.016 9.1278,-3.0777 7.96875,-10.00195 -2.95997,-17.68336 -10.77831,-28.43053 -24.95508,-34.30274 -5.7714,-2.39059 -6.24067,-2.21946 -12.35742,4.45508 -10.5129,11.47156 -26.18243,11.73995 -38.79493,0.66602 -5.45655,-4.79091 -8.59057,-6.01678 -15.73828,-6.1582 -8.89694,-0.17595 -8.92383,-0.19677 -8.92383,-6.8379 0,-5.64814 0.93476,-7.09693 6.14454,-9.51757 7.60581,-3.5339 7.72865,-4.81261 0.70312,-7.26172 -9.07477,-3.16347 -20.23458,-14.7818 -27.52539,-28.65625 -3.77073,-7.1757 -8.28841,-14.23565 -10.03906,-15.6875 -3.73493,-3.09748 -8.30274,-13.31281 -8.30274,-18.56641 0,-2.02211 2.99817,-8.12963 6.66211,-13.57422 5.67491,-8.43287 6.65682,-11.49221 6.63282,-20.65234 -0.0155,-5.91414 -1.28327,-16.07945 -2.81836,-22.58984 -3.69541,-15.67244 -2.1824,-22.03156 7.14062,-30.01172 8.31711,-7.11913 33.95827,-18.62377 51.72656,-23.207034 14.56721,-3.757559 25.3415,-2.30453 47.50586,6.404294 24.37156,9.57608 30.39983,12.8836 36.33203,19.9336 4.80067,5.70529 5.10807,7.05971 4.01172,17.68945 -0.653,6.3311 -1.68924,18.79131 -2.30078,27.68945 -1.09675,15.95812 -1.03149,16.27963 4.79297,23.57813 8.12485,10.18093 8.16888,20.63447 0.12695,30.7539 -3.17862,3.99979 -8.33785,12.63352 -11.46484,19.18555 -6.12255,12.82863 -17.24331,23.91663 -27.82813,27.74414 -6.57984,2.3793 -8.45561,5.32617 -3.38867,5.32617 11.65047,0 33.18014,19.65178 38.08203,34.76172 1.77826,5.48147 3.92208,10.71682 4.76368,11.63477 2.33162,2.5431 18.09603,-11.33968 29.66015,-26.11914 20.52898,-26.2369 29.17351,-51.40087 29.22071,-85.06836 0.0345,-24.62383 -2.97004,-37.1659 -14.56641,-60.83008 -7.42198,-15.14572 -11.51411,-20.70943 -25.20703,-34.26172 -27.00996,-26.732533 -52.11703,-37.885136 -88.67578,-39.392578 -3.42194,-0.141098 -6.73844,-0.203532 -9.96485,-0.183593 z" />
  <path
     id="path1536"
     style="font-variation-settings:normal;opacity:1;vector-effect:none;fill:#008000;fill-opacity:1;stroke-width:1.89226;stroke-linecap:butt;stroke-linejoin:miter;stroke-miterlimit:4;stroke-dasharray:none;stroke-dashoffset:0;stroke-opacity:1;stop-color:#000000;stop-opacity:1"
     d="m 255.51367,76.652344 c -32.07208,0.06111 -57.14914,8.641971 -83.40429,28.539066 -15.96959,12.10231 -28.02124,26.99354 -37.72071,46.60937 -20.8239,42.11346 -19.2762,90.12063 4.19336,130.0293 7.20006,12.24331 36.59882,42.91691 40.03516,41.77148 1.25111,-0.41704 3.0307,-3.69827 3.95312,-7.29101 2.1419,-8.34259 6.51097,-13.19336 11.88281,-13.19336 7.37288,0 9.41812,4.57898 6.90626,15.46093 -3.83398,16.60967 -3.35512,18.11788 6.83007,21.4668 4.97249,1.63497 14.1799,4.20067 20.46094,5.70313 20.86628,4.99136 50.14612,2.79998 75.61719,-5.66016 10.15189,-3.37191 9.86035,-2.69729 6.97265,-16.16211 -2.50715,-11.69044 -11.26301,-22.34245 -22.54882,-27.43164 l -7.66016,-3.45508 -3.99414,5.07617 c -11.16528,14.19435 -27.69974,14.42338 -43.12109,0.59571 -2.90949,-2.60882 -7.1133,-3.86756 -13.32227,-3.98633 -9.06623,-0.17337 -9.07227,-0.17661 -9.07227,-6.83399 0,-5.64813 0.93476,-7.09693 6.14454,-9.51757 7.60581,-3.5339 7.72865,-4.81261 0.70312,-7.26172 -9.05034,-3.15497 -20.22802,-14.76894 -27.46094,-28.53321 -3.73521,-7.10813 -8.55129,-14.51747 -10.70312,-16.46484 -2.15182,-1.94738 -4.77478,-6.74692 -5.83008,-10.66601 -2.21001,-8.20735 -0.56213,-13.99478 6.69531,-23.50977 5.7334,-7.51688 6.30638,-20.14587 1.8711,-41.23047 -2.67676,-12.72487 -2.64367,-14.20745 0.47461,-20.5625 1.84834,-3.76689 6.79783,-9.13432 10.99804,-11.92773 10.65641,-7.0872 37.65429,-17.95966 51.84375,-20.878909 10.94934,-2.252653 13.07133,-2.102763 26.64649,1.886718 24.61232,7.233091 45.52302,17.093271 52.07422,24.554691 5.62856,6.41057 5.85809,7.29973 4.72265,18.33203 -0.65629,6.37671 -1.6951,18.87334 -2.30664,27.77148 -1.09675,15.95812 -1.03161,16.27963 4.79297,23.57813 8.16327,10.22927 8.173,20.62893 0.0273,30.8789 -3.233,4.06821 -8.08178,12.05614 -10.77539,17.75 -5.92063,12.51515 -18.36324,25.41867 -27.80273,28.83204 -7.0964,2.56608 -9.24949,5.54882 -4.00391,5.54882 11.31155,0 34.80647,22.33716 38.91016,36.99414 1.35254,4.83073 3.20231,9.24288 4.11133,9.80469 2.74124,1.69417 18.49487,-12.47641 29.48437,-26.52148 20.52898,-26.2369 29.17351,-51.40087 29.22071,-85.06836 0.0345,-24.59224 -2.97285,-37.1808 -14.48633,-60.64649 C 369.9204,136.8629 365.06641,130.07461 353.56836,118.44531 324.39268,88.936618 295.39102,76.576364 255.51367,76.652344 Z" />
  <path
     id="path1538"
     style="font-variation-settings:normal;opacity:1;vector-effect:none;fill:#008000;fill-opacity:1;stroke-width:1.89226;stroke-linecap:butt;stroke-linejoin:miter;stroke-miterlimit:4;stroke-dasharray:none;stroke-dashoffset:0;stroke-opacity:1;stop-color:#000000;stop-opacity:1"
     d="m 255.98438,76.986328 c -33.9693,-0.249813 -58.24811,8.162839 -84.92383,29.035152 -52.55149,41.11871 -66.68827,117.63684 -32.47852,175.8086 6.99357,11.89216 36.55853,42.93034 39.84766,41.83398 1.14742,-0.38248 3.18305,-3.88427 4.52343,-7.7832 3.23104,-9.39847 6.24551,-12.76367 11.4375,-12.76367 7.43416,0 9.48662,4.553 6.96876,15.46093 -4.17187,18.07357 -4.16127,18.09218 13.49218,23.38086 8.63643,2.58733 17.84384,5.12363 20.46094,5.63672 10.64082,2.0861 43.26301,-0.36872 58.08203,-4.37109 21.33721,-5.76282 20.7585,-5.18103 18.06445,-18.1582 -2.66094,-12.81762 -10.97988,-23.25676 -22.76757,-28.57227 l -7.66016,-3.45508 -3.99414,5.07617 c -10.01894,12.73702 -26.14282,13.93139 -39.99414,2.96094 -6.30059,-4.99017 -9.49458,-6.23161 -15.00195,-5.83398 -8.57118,0.61887 -12.16732,-2.96503 -10.32813,-10.29297 0.83691,-3.33449 3.26424,-5.94821 6.74414,-7.26172 2.98995,-1.12859 5.43555,-2.55601 5.43555,-3.17188 0,-0.61585 -3.40401,-2.62144 -7.56446,-4.45703 -8.86824,-3.91267 -19.35929,-15.43983 -26.15234,-28.73437 -2.65602,-5.19805 -7.39962,-12.64955 -10.54101,-16.5586 -8.07255,-10.0452 -8.06066,-19.4823 0.041,-30.76367 5.43427,-7.56709 6.13535,-9.96497 6.02734,-20.62304 -0.0672,-6.63332 -1.21744,-17.19943 -2.55664,-23.48047 -2.72719,-12.79103 -1.44258,-20.23427 4.60157,-26.66797 5.27865,-5.61886 33.68336,-18.80134 51.86914,-24.072267 13.02041,-3.773809 16.00496,-4.02478 25.13672,-2.109375 18.65415,3.912752 50.50638,17.795692 58.68945,25.580082 7.46763,7.10379 7.51077,7.22675 6.32031,18.16211 -0.65919,6.05527 -1.71974,18.71906 -2.35547,28.14062 -1.1505,17.04974 -1.12662,17.16475 4.76563,24.5293 8.15363,10.19098 8.19001,20.6248 0.10937,30.79297 -3.19531,4.02077 -8.90581,13.20207 -12.68945,20.40234 -6.99333,13.30834 -19.15097,24.97195 -28.46875,27.31055 -5.22224,1.3107 -5.92319,4.5039 -0.98828,4.5039 5.06337,0 19.36582,9.67732 27.22656,18.42188 3.77767,4.20238 8.41536,11.83937 10.30664,16.97265 1.89128,5.13327 4.10505,10.09764 4.91797,11.03125 2.10341,2.41567 19.3648,-12.58193 29.21484,-25.38281 21.04994,-27.35597 29.58399,-52.06621 29.58399,-85.66211 0,-24.77893 -3.00029,-37.35286 -14.51367,-60.81836 -6.95265,-14.1703 -11.80664,-20.95859 -23.30469,-32.58789 -17.35669,-17.55479 -31.59919,-26.983736 -52.38477,-34.681638 -13.04307,-4.830478 -18.96845,-5.854627 -38.27343,-6.613281 -2.35434,-0.09252 -4.66117,-0.147409 -6.92578,-0.164063 z" />
  <path
     id="path1540"
     style="font-variation-settings:normal;opacity:1;vector-effect:none;fill:#e7cf7f;fill-opacity:1;stroke-width:1.89226;stroke-linecap:butt;stroke-linejoin:miter;stroke-miterlimit:4;stroke-dasharray:none;stroke-dashoffset:0;stroke-opacity:1;stop-color:#000000;stop-opacity:1"
     d="M 253.06836,76.943359 C 231.14565,76.934997 216.0721,80.33122 198.35352,88.853516 122.90329,125.14361 96.489901,218.45913 142.28711,286.93164 c 9.32105,13.93613 33.03805,37.76728 36.45312,36.62891 0.97595,-0.3253 2.87251,-3.78076 4.21289,-7.67969 3.25551,-9.46962 6.24899,-12.76367 11.60352,-12.76367 6.44613,0 8.85241,5.72524 6.56836,15.62695 -3.85516,16.71277 -3.33314,17.87036 10.05078,22.32422 6.61465,2.20122 15.82207,4.74823 20.46094,5.6582 11.91686,2.33752 31.06643,2.37477 45.54883,0.0899 14.75568,-2.32806 36.16406,-9.07914 36.16406,-11.4043 0,-0.90997 -0.94964,-6.07866 -2.10938,-11.48633 -2.50715,-11.69044 -11.26301,-22.34245 -22.54882,-27.43164 l -7.66016,-3.45508 -3.99414,5.07617 c -5.11781,6.50623 -13.29045,10.71094 -20.81836,10.71094 -6.6247,0 -11.21267,-2.01905 -20.71484,-9.11719 -4.31222,-3.22123 -9.07281,-4.88584 -14.27539,-4.99414 -7.63583,-0.15901 -7.8175,-0.32078 -8.40235,-7.41992 -0.54171,-6.57551 -0.0501,-7.46234 5.23438,-9.45703 3.20762,-1.21074 5.80257,-2.65727 5.76757,-3.21289 -0.035,-0.55563 -4.53126,-3.58018 -9.99218,-6.7207 -9.4346,-5.42574 -14.95752,-12.10702 -28.48828,-34.46289 -1.83316,-3.0288 -5.13095,-8.30227 -7.32813,-11.71875 -5.8509,-9.09781 -5.17572,-18.20838 2.10156,-28.3418 6.63443,-9.23829 6.65856,-9.65457 2.73047,-50.14453 -1.50196,-15.48188 1.16573,-19.44449 19.54688,-29.01758 36.01961,-18.759372 55.13363,-21.349305 82.40039,-11.16406 21.37102,7.98293 37.85173,17.08082 42.55859,23.49414 3.58569,4.8857 3.68028,6.22648 1.56641,22.10351 -3.69796,27.77474 -3.06201,36.10974 3.49414,45.78516 7.54562,11.13569 7.36101,18.24704 -0.77735,30.07812 -3.5484,5.15849 -8.61204,13.64397 -11.2539,18.85743 -5.94849,11.73877 -18.54952,24.5824 -27.17969,27.70312 -7.0088,2.5344 -8.63666,5.39453 -3.07031,5.39453 10.33888,0 32.18161,20.8137 37.7539,35.97461 1.76968,4.81489 3.87754,9.51272 4.6836,10.43946 2.14842,2.47008 15.97321,-9.17994 27.55469,-23.22071 21.62096,-26.21209 31.25781,-53.2875 31.25781,-87.8125 0,-24.77893 -3.00029,-37.35286 -14.51367,-60.81836 -6.95265,-14.1703 -11.80664,-20.95859 -23.30469,-32.58789 -17.35669,-17.55479 -31.59919,-26.983736 -52.38477,-34.681638 -13.04307,-4.830478 -18.96845,-5.854627 -38.27343,-6.613281 -3.43904,-0.135149 -6.70999,-0.205837 -9.8418,-0.207032 z" />
  <path
     style="font-variation-settings:normal;opacity:1;vector-effect:none;fill:#e7cf7f;fill-opacity:1;stroke-width:1.89226;stroke-linecap:butt;stroke-linejoin:miter;stroke-miterlimit:4;stroke-dasharray:none;stroke-dashoffset:0;stroke-opacity:1;stop-color:#000000;stop-opacity:1"
     d="m 225.79578,254.81066 c -11.14845,-5.11614 -21.88847,-20.96069 -21.88847,-32.29166 0,-5.08501 -2.80875,-8.08766 -8.56506,-9.15633 -2.28133,-0.42353 -3.80669,-2.21119 -3.80669,-4.46128 0,-2.25008 1.52536,-4.03774 3.80669,-4.46127 6.20828,-1.15258 8.56506,-4.18225 8.56506,-11.01048 v -6.4406 l 7.81357,5.66012 c 24.61728,17.83267 59.80308,18.6513 86.05602,2.00218 l 8.77098,-5.56239 1.18203,6.30076 c 0.88003,4.69095 2.72152,6.97878 7.20759,8.95455 7.2162,3.17817 7.8475,7.7621 1.28243,9.3119 -5.26669,1.2433 -9.45722,7.95377 -9.51101,15.23036 -0.0487,6.59261 -5.97237,15.66768 -14.45413,22.14385 -6.99436,5.34049 -7.70494,5.46457 -33.94643,5.92768 -19.57456,0.34545 -28.34239,-0.23365 -32.51258,-2.14739 z"
     id="path1542" />
  <path
     style="font-variation-settings:normal;opacity:1;vector-effect:none;fill:#e7cf7f;fill-opacity:1;stroke-width:1.89226;stroke-linecap:butt;stroke-linejoin:miter;stroke-miterlimit:4;stroke-dasharray:none;stroke-dashoffset:0;stroke-opacity:1;stop-color:#000000;stop-opacity:1"
     d="m 199.89384,145.19971 c -1.77198,-5.91434 -1.75354,-8.16676 0.085,-10.38205 1.29135,-1.55599 13.54399,-7.23848 27.22809,-12.62775 20.56375,-8.09872 26.17047,-9.59235 32.31756,-8.60939 10.80233,1.72736 51.02302,18.58435 52.95487,22.19404 0.97291,1.81791 0.77303,5.91163 -0.4895,10.02534 l -2.13387,6.9528 h -53.84961 -53.8496 z"
     id="path1544" />
  <path
     style="font-variation-settings:normal;opacity:1;vector-effect:none;fill:#e7cf7f;fill-opacity:1;stroke-width:1.89226;stroke-linecap:butt;stroke-linejoin:miter;stroke-miterlimit:4;stroke-dasharray:none;stroke-dashoffset:0;stroke-opacity:1;stop-color:#000000;stop-opacity:1"
     d="m 244.53184,188.92715 c -10.29615,-2.15379 -21.37532,-7.90642 -27.15705,-14.10075 l -4.61431,-4.94359 h 43.48884 43.48883 l -4.50908,4.7997 c -10.58231,11.26435 -33.7823,17.78296 -50.69723,14.24464 z"
     id="path1546" />
  <path
     style="font-variation-settings:normal;opacity:1;vector-effect:none;fill:#e7cf7f;fill-opacity:1;stroke-width:1.89226;stroke-linecap:butt;stroke-linejoin:miter;stroke-miterlimit:4;stroke-dasharray:none;stroke-dashoffset:0;stroke-opacity:1;stop-color:#000000;stop-opacity:1"
     d="m 249.96828,289.41292 c -1.25621,-1.25621 -2.28402,-5.11049 -2.28402,-8.56506 0,-6.1753 0.14419,-6.28104 8.56506,-6.28104 7.92568,0 8.56505,0.36455 8.56505,4.88349 0,10.42897 -8.60517,16.20354 -14.84609,9.96261 z"
     id="path1548" />
  <path
     id="path1552"
     style="fill:#e7cf7f;fill-opacity:1;fill-rule:evenodd"
     d="m 395.75781,58.675781 -6.1582,3.355469 c 0.23815,0.513019 0.50902,1.00937 0.79101,1.498047 0.42531,-0.352805 0.96479,-0.573764 1.58399,-0.613281 1.17903,-0.07525 2.63189,0.49313 4.07031,1.998046 3.28902,3.441069 7.04107,6.396884 10.79102,9.3125 3.41401,2.654421 2.85911,5.808845 0.61914,6.587891 0.92543,0.757354 1.84094,1.524686 2.71289,2.341797 0.92658,0.737905 1.89163,1.417748 2.89062,2.052734 l 5.7461,-3.691406 c -0.95231,-0.619831 -1.85664,-1.292179 -2.72071,-2.03125 -1.61743,-1.377789 -3.42451,-2.525008 -5.08789,-3.845703 -3.44531,-2.690436 -6.81948,-5.490527 -9.83203,-8.667969 -2.11764,-2.432178 -4.50539,-5.13263 -5.40625,-8.296875 z" />
  <path
     id="path1554"
     style="fill:#e7cf7f;fill-opacity:1;fill-rule:evenodd"
     d="m 396.8457,52.929688 -5.65039,3.408203 c 3.13651,3.420632 6.17736,6.926315 9.05078,10.572265 2.00351,2.400243 4.0503,4.774881 6.22071,7.027344 0.12327,0.09596 0.24585,0.193209 0.36914,0.289062 0.72598,0.564454 1.25863,1.15119 1.64844,1.734376 2.18931,2.094562 4.35473,4.214127 6.41601,6.435546 l 5.92383,-3.691406 c -2.66686,-2.156947 -5.1342,-4.565352 -7.57813,-6.970703 -2.54329,-2.658984 -4.99785,-5.405074 -7.39843,-8.193359 -3.0959,-3.457131 -6.05861,-7.02448 -9.00196,-10.611328 z" />
  <path
     id="path1556"
     style="fill:#e7cf7f;fill-opacity:1;fill-rule:evenodd"
     d="m 391.66406,62.021484 -5.96484,3.554688 c 2.57071,3.02381 5.30597,5.887077 8.12695,8.675781 2.66535,2.378648 5.22473,4.857369 7.69141,7.439453 l 2.30859,-1.417968 c -0.36677,-0.20194 -0.73929,-0.437317 -1.12109,-0.734376 -3.96918,-3.088166 -7.93113,-6.229069 -11.41797,-9.867187 -3.16902,-3.306514 -1.90636,-6.590318 0.6875,-6.755859 0.0949,-0.0061 0.19469,-4.81e-4 0.29297,0.002 -0.20516,-0.296216 -0.40917,-0.591766 -0.60352,-0.896485 z" />
  <path
     id="path1558"
     style="fill:#e7cf7f;fill-opacity:1;fill-rule:evenodd"
     d="m 409.38672,79.546875 -0.70313,0.435547 c -0.35402,0.439406 -0.86006,0.751451 -1.46875,0.908203 l -3.55859,2.205078 c 1.15766,1.049824 2.35105,2.069454 3.30664,3.316406 l 5.96094,-3.769531 c -1.22621,-0.972751 -2.38227,-2.038057 -3.53711,-3.095703 z" />
  <path
     id="path1560"
     style="font-variation-settings:normal;opacity:1;vector-effect:none;fill:#e7cf7f;fill-opacity:1;stroke-width:0.473065;stroke-linecap:butt;stroke-linejoin:miter;stroke-miterlimit:4;stroke-dasharray:none;stroke-dashoffset:0;stroke-opacity:1;stop-color:#000000;stop-opacity:1"
     d="m 256.16992,15.488281 c -7.54244,-0.0015 -15.13533,0.19778 -18.94726,0.595703 -46.93699,4.899705 -89.54639,25.588578 -122.3125,59.390625 -30.533373,31.498711 -49.134139,70.337221 -54.548832,113.896481 -1.23452,9.93128 -1.229124,35.96405 0.0098,45.44141 4.305034,32.93303 15.147048,61.98979 32.804687,87.91211 l 3.808594,5.58984 h 28.798825 28.79883 l -6.75391,-6.71679 c -26.55405,-26.40963 -42.02818,-59.47638 -45.28906,-96.77735 -0.79698,-9.11664 -0.3309,-25.53847 0.97266,-34.25976 5.10748,-34.17096 19.80879,-63.43302 43.99414,-87.5625 24.89637,-24.838845 57.00603,-40.119549 92.57226,-44.056644 7.04273,-0.779611 24.83815,-0.779611 31.88086,0 25.03613,2.771437 48.02918,11.000742 68.52149,24.527344 23.02741,15.199976 40.91873,35.33771 53.37109,60.07031 7.54163,14.97902 12.39968,30.9307 14.97461,49.16211 1.17764,8.33793 1.19464,30.09226 0.0293,38.54297 -3.42056,24.8048 -11.12821,45.5721 -24.37109,65.66602 -5.88008,8.92206 -10.96424,15.10773 -19.45508,23.67187 l -7.66602,7.73242 h 28.82617 28.82422 l 4.80664,-7.25586 c 17.55624,-26.51273 27.65513,-53.96079 31.82031,-86.48242 1.1515,-8.99082 1.38925,-30.11349 0.44922,-39.9707 -2.68866,-28.19347 -10.99858,-54.88505 -24.66406,-79.22656 -5.44405,-9.69716 -18.74656,-28.726048 -20.11328,-28.771488 -0.27402,-0.0091 -1.29586,-0.834862 -2.27148,-1.833984 l -1.7754,-1.816407 1.17774,-0.628906 c 0.64692,-0.346218 1.29386,-0.940923 1.43945,-1.320313 0.007,-0.01692 0.008,-0.02837 0.0137,-0.04492 -0.54631,-0.06099 -1.13604,-0.236074 -1.75781,-0.539063 -0.12682,0.07263 -0.24826,0.13916 -0.38672,0.226563 -1.02907,0.649621 -2.05302,1.18164 -2.27734,1.18164 -0.60211,0 -15.79102,-15.542033 -15.79102,-16.158203 0,-0.289227 0.33345,-0.654449 0.74024,-0.810547 0.56426,-0.216529 0.36754,-0.508015 -0.83203,-1.234375 -0.86478,-0.523639 -2.75005,-1.963286 -4.18946,-3.197265 -4.15757,-3.56422 -11.74554,-9.150843 -17.64257,-12.992188 -26.8946,-17.519224 -55.68961,-27.667545 -88.94532,-31.347656 -3.60939,-0.39943 -11.10209,-0.601992 -18.64453,-0.603516 z" />
  <path
     style="font-variation-settings:normal;opacity:1;vector-effect:none;fill:#008000;fill-opacity:1;stroke-width:0.473065;stroke-linecap:butt;stroke-linejoin:miter;stroke-miterlimit:4;stroke-dasharray:none;stroke-dashoffset:0;stroke-opacity:1;stop-color:#000000;stop-opacity:1"
     d="m 381.11197,266.93222 c 0.13242,-0.52342 1.23272,-3.61825 2.44512,-6.87741 2.79048,-7.50134 5.13208,-16.61554 6.43987,-25.066 1.28772,-8.32065 1.81658,-30.25361 0.95435,-39.57824 -1.33348,-14.42097 -4.99694,-26.30452 -13.36379,-43.34956 -7.56991,-15.42151 -11.60927,-21.13772 -23.5234,-33.28864 -17.86035,-18.21532 -32.48715,-27.897378 -53.69918,-35.545626 -2.8275,-1.019489 -4.91177,-1.929996 -4.63171,-2.02335 1.23316,-0.411056 14.47445,4.995144 24.28563,9.915432 12.17685,6.106659 19.0031,11.329124 32.61107,24.949284 13.75119,13.76351 17.64581,18.9144 24.16998,31.96638 13.00207,26.01141 17.1489,44.87618 15.63314,71.11834 -1.07863,18.674 -2.99592,28.31803 -8.26342,41.56525 -1.89786,4.77291 -3.53452,8.09913 -3.05766,6.21414 z"
     id="path1562" />
  <path
     style="font-variation-settings:normal;opacity:1;vector-effect:none;fill:#e7cf7f;fill-opacity:1;stroke-width:0.473065;stroke-linecap:butt;stroke-linejoin:miter;stroke-miterlimit:4;stroke-dasharray:none;stroke-dashoffset:0;stroke-opacity:1;stop-color:#000000;stop-opacity:1"
     d="m 381.13393,266.93222 c 0.12034,-0.52342 1.20245,-3.59535 2.40469,-6.8265 6.08702,-16.35956 8.17522,-30.95954 7.70099,-53.84264 -0.40695,-19.63665 -2.28199,-28.59729 -9.4471,-45.14682 -6.52416,-15.06907 -13.75604,-27.17999 -21.20282,-35.50746 -17.63226,-19.71751 -35.16311,-32.557717 -55.08384,-40.345337 -3.66394,-1.432346 -7.51821,-2.959498 -8.56505,-3.393671 -1.77373,-0.735647 -1.80016,-0.773155 -0.38812,-0.550776 2.56855,0.404512 13.78925,5.048716 22.03867,9.121717 13.50357,6.667136 20.02261,11.574027 34.03567,25.618657 13.7676,13.79862 17.80202,19.13061 24.20186,31.98582 13.10889,26.3315 17.12446,44.68934 15.59434,71.2922 -0.92139,16.01935 -2.63385,25.75856 -6.45262,36.69768 -1.59281,4.5627 -5.30125,12.91793 -4.83667,10.89713 z"
     id="path1564" />
  <path
     style="font-variation-settings:normal;opacity:1;vector-effect:none;fill:#e7cf7f;fill-opacity:1;stroke-width:0.473065;stroke-linecap:butt;stroke-linejoin:miter;stroke-miterlimit:4;stroke-dasharray:none;stroke-dashoffset:0;stroke-opacity:1;stop-color:#000000;stop-opacity:1"
     d="m 324.81479,177.43532 c 0.0228,-0.55432 0.13559,-0.66708 0.28749,-0.28749 0.13745,0.3435 0.12055,0.75391 -0.0376,0.91202 -0.15811,0.15812 -0.27058,-0.12292 -0.24992,-0.62453 z"
     id="path1566" />
  <path
     style="font-variation-settings:normal;opacity:1;vector-effect:none;fill:#e7cf7f;fill-opacity:1;stroke-width:0.473065;stroke-linecap:butt;stroke-linejoin:miter;stroke-miterlimit:4;stroke-dasharray:none;stroke-dashoffset:0;stroke-opacity:1;stop-color:#000000;stop-opacity:1"
     d="m 328.38793,190.04769 c -0.69634,-0.82756 -1.61312,-2.17489 -2.03728,-2.99407 -1.65031,-3.18728 -1.60303,-17.27141 0.0909,-27.08746 0.83668,-4.84833 1.47595,-6.26485 1.01018,-2.2384 -0.16651,1.43941 -0.43849,6.94052 -0.60441,12.2247 -0.32837,10.45825 -5.2e-4,13.44955 2.01969,18.42789 0.62854,1.54888 1.06274,2.89622 0.96488,2.99407 -0.0979,0.0979 -0.74765,-0.49917 -1.444,-1.32673 z"
     id="path1568" />
  <circle
     id="path1572"
     style="fill:#e7cf7f;stroke:#000000"
     cx="316.90707"
     cy="203.65799"
     r="0.2376803" />
  <path
     style="font-variation-settings:normal;opacity:1;vector-effect:none;fill:#e7cf7f;fill-opacity:1;stroke-width:0.669015;stroke-linecap:butt;stroke-linejoin:miter;stroke-miterlimit:4;stroke-dasharray:none;stroke-dashoffset:0;stroke-opacity:1;stop-color:#000000;stop-opacity:1"
     d="m 248.39589,494.73617 c -1.85057,-0.87268 -4.0252,-2.30813 -4.8325,-3.18986 -0.8073,-0.88174 -12.52994,-18.79608 -26.0503,-39.80964 -13.52036,-21.01356 -26.02454,-40.09125 -27.78705,-42.39486 -7.53084,-9.84285 -17.46153,-18.31586 -30.15748,-25.73081 -22.49923,-13.14046 -41.62214,-29.29489 -56.14953,-47.43335 l -5.659126,-7.06581 28.549056,-0.33647 28.54906,-0.33647 5.38347,4.33438 c 20.5013,16.50611 45.53587,27.38989 73.01338,31.74254 11.97628,1.89714 31.49359,2.0232 43.74073,0.28252 27.28643,-3.87822 52.50762,-14.62613 74.48999,-31.7436 l 5.51422,-4.29388 28.64322,0.17549 28.64321,0.17549 -4.85213,6.05641 c -14.58293,18.20238 -33.47044,34.4615 -54.7146,47.10053 -4.81148,2.86255 -10.58018,6.50502 -12.81933,8.09438 -5.65671,4.01515 -13.6924,11.64829 -18.32523,17.40723 -2.14496,2.66634 -15.04327,22.17335 -28.66291,43.34892 -13.61964,21.17557 -25.71406,39.45211 -26.87648,40.61454 -4.80942,4.80941 -13.11518,6.07912 -19.63967,3.00232 z"
     id="path1582" />
</svg>
