<?xml version="1.0" encoding="UTF-8" standalone="no"?>
<svg
   xmlns:dc="http://purl.org/dc/elements/1.1/"
   xmlns:cc="http://creativecommons.org/ns#"
   xmlns:rdf="http://www.w3.org/1999/02/22-rdf-syntax-ns#"
   xmlns:svg="http://www.w3.org/2000/svg"
   xmlns="http://www.w3.org/2000/svg"
   xmlns:sodipodi="http://sodipodi.sourceforge.net/DTD/sodipodi-0.dtd"
   xmlns:inkscape="http://www.inkscape.org/namespaces/inkscape"
   id="Layer_1"
   height="512"
   viewBox="0 0 512 512"
   width="512"
   data-name="Layer 1"
   version="1.1"
   sodipodi:docname="map.svg"
   inkscape:version="1.0.1 (3bc2e813f5, 2020-09-07)">
  <metadata
     id="metadata46">
    <rdf:RDF>
      <cc:Work
         rdf:about="">
        <dc:format>image/svg+xml</dc:format>
        <dc:type
           rdf:resource="http://purl.org/dc/dcmitype/StillImage" />
      </cc:Work>
    </rdf:RDF>
  </metadata>
  <defs
     id="defs44" />
  <sodipodi:namedview
     pagecolor="#ffffff"
     bordercolor="#666666"
     borderopacity="1"
     objecttolerance="10"
     gridtolerance="10"
     guidetolerance="10"
     inkscape:pageopacity="0"
     inkscape:pageshadow="2"
     inkscape:window-width="1366"
     inkscape:window-height="705"
     id="namedview42"
     showgrid="false"
     inkscape:zoom="1.0058594"
     inkscape:cx="64.621359"
     inkscape:cy="256"
     inkscape:window-x="-8"
     inkscape:window-y="-8"
     inkscape:window-maximized="1"
     inkscape:current-layer="Layer_1" />
  <path
     d="m256 11.677c-115.759 0-209.935 90.152-209.935 200.964 0 35.569 10.986 72.854 32.654 110.819 17.174 30.1 41.079 60.706 71.049 90.983 50.865 51.388 102.485 84.606 103 84.935a6 6 0 0 0 6.464 0c.515-.329 52.135-33.547 103-84.935 29.97-30.277 53.875-60.888 71.049-90.983 21.668-37.965 32.654-75.25 32.654-110.819 0-110.812-94.176-200.964-209.935-200.964zm166.921 305.723c-16.628 29.162-39.861 58.915-69.052 88.429a677.87 677.87 0 0 1 -97.87 81.3 677.071 677.071 0 0 1 -97.699-81.129c-29.233-29.533-52.5-59.3-69.156-88.488-20.624-36.131-31.079-71.412-31.079-104.871 0-104.195 88.793-188.964 197.935-188.964s197.935 84.769 197.935 188.964c0 33.423-10.435 68.671-31.014 104.759z"
     id="path29" />
  <path
     d="m236.18 440.925c-20.109-15.69-49.916-40.8-77.716-71.324a6 6 0 0 0 -8.872 8.08c28.367 31.147 58.73 56.729 79.207 72.705a6 6 0 1 0 7.381-9.461z"
     id="path31" />
  <path
     d="m139.348 347.269a6 6 0 1 0 -9.365 7.5q2.4 3 4.842 5.939a6 6 0 1 0 9.236-7.662q-2.378-2.862-4.713-5.777z"
     id="path33" />
  <path
     d="m259.124 63.152a154.687 154.687 0 0 0 -124.936 59.3 6.011 6.011 0 0 0 1.491 8.807l.009.006a6 6 0 0 0 7.928-1.392 142.7 142.7 0 0 1 115.568-54.717c77.256 1.69 139.588 65.357 139.709 142.631.124 78.964-64.136 143.231-143.1 143.121-77.411-.109-141.148-62.65-142.662-140.046a142.131 142.131 0 0 1 13.33-63.153 6 6 0 1 0 -10.86-5.084 154.015 154.015 0 0 0 -14.479 67.824c1.3 84.189 70.565 152.4 154.764 152.459 84.465.058 153.383-67.841 154.975-151.918 1.616-85.117-66.621-156.153-151.737-157.838z"
     id="path35" />
  <path
     d="m201 128.748a6 6 0 0 0 -6 6v32.577c0 12.17 9 22.394 20 25.107v36.568h-7.7a5.947 5.947 0 0 0 -5.994 5.659l-2.625 56.45a22.631 22.631 0 1 0 45.215-.029l-2.625-56.42a5.947 5.947 0 0 0 -5.994-5.66h-8.277v-36.568a25.344 25.344 0 0 0 20-25.107v-32.577a6 6 0 0 0 -12 0v32.577a13.351 13.351 0 0 1 -8 12.428v-45a6 6 0 0 0 -12 0v45.005c-4-2.239-8-6.961-8-12.428v-32.582a6 6 0 0 0 -6-6zm28.546 112.252 2.359 50.7a10.63 10.63 0 1 1 -21.241 0l2.359-50.7z"
     id="path37" />
  <path
     d="m317 167.325v-18.745a26 26 0 0 0 -52 0v18.745a25.344 25.344 0 0 0 20 25.107v36.568h-8.273a5.947 5.947 0 0 0 -5.994 5.659l-2.625 56.45a22.631 22.631 0 1 0 45.215-.029l-2.623-56.42a5.947 5.947 0 0 0 -6-5.66h-7.7v-36.568c11-2.713 20-12.932 20-25.107zm-18.023 73.675 2.359 50.7a10.63 10.63 0 1 1 -21.241 0l2.359-50.7zm-7.977-59.857a13.991 13.991 0 0 1 -14-13.818v-18.745a14 14 0 0 1 28 0v18.745a13.991 13.991 0 0 1 -14 13.818z"
     id="path39" />
  <path
     style="fill:#e7cf7f;stroke-width:0.994175;fill-opacity:1"
     d="M 249.53786,481.98156 C 190.36381,438.97862 147.94876,398.95404 114.63182,354.67868 74.28002,301.0546 55.71285,249.46329 59.200829,200.65645 62.510638,154.34274 82.177346,112.87983 116.41593,80.031068 193.78244,5.8050441 318.91579,5.7615976 395.51686,79.934164 c 17.84506,17.27931 28.64628,32.129956 39.47872,54.279426 28.93156,59.15744 23.45141,122.93092 -16.23187,188.89321 -31.13487,51.75295 -83.63349,105.91944 -148.48121,153.19845 -7.03517,5.1292 -13.46231,9.31746 -14.2825,9.30727 -0.82019,-0.0102 -3.72816,-1.64412 -6.46214,-3.63096 z m -11.87634,-32.55709 c 2.98948,-4.5625 1.70255,-6.30051 -14.96637,-20.21221 -20.64093,-17.22669 -44.04616,-38.85363 -55.92338,-51.6744 -7.99532,-8.63049 -9.90414,-10.19029 -12.47048,-10.19029 -3.89945,0 -6.66634,2.53586 -6.66634,6.1097 0,2.16888 2.05307,5.04046 8.90215,12.45128 14.65849,15.86069 38.20477,37.55988 60.61341,55.85856 10.11203,8.25739 12.94589,10.08532 15.63534,10.08532 2.38601,0 3.72011,-0.66435 4.87567,-2.42796 z m 48.42766,-79.03999 c 30.9033,-6.12255 56.50781,-19.9145 79.34207,-42.73784 22.63742,-22.6266 35.96478,-47.17702 42.90667,-79.03868 1.85714,-8.52391 2.18004,-13.09846 2.17992,-30.88369 -1.2e-4,-17.82251 -0.3173,-22.29738 -2.16749,-30.57933 -11.7874,-52.76365 -46.13777,-93.794544 -94.992,-113.466241 -20.24546,-8.152053 -37.74291,-11.016535 -62.68147,-10.261482 -18.85776,0.570946 -30.26173,2.507617 -45.37979,7.706586 -24.315,8.361711 -48.78225,24.682019 -65.26103,43.530847 -5.943,6.79774 -7.31373,8.98474 -7.31373,11.66901 0,3.53984 2.80741,6.39867 6.28357,6.39867 1.07022,0 7.2227,-5.41583 14.44287,-12.71359 21.85664,-22.091515 44.89006,-35.034133 73.79484,-41.465766 9.88803,-2.200193 37.05251,-3.091794 47.80933,-1.569211 45.57514,6.450966 85.56087,34.718867 107.16365,75.759307 5.45761,10.36825 10.91819,25.8264 13.6515,38.64557 1.3917,6.52706 1.79243,12.74991 1.76058,27.33981 -0.0369,16.91825 -0.31876,20.06632 -2.70092,30.16885 -6.43587,27.29394 -19.34515,50.37372 -39.16331,70.01789 -19.7953,19.62152 -43.79594,32.55711 -71.83441,38.7165 -14.37497,3.15785 -41.39522,3.13477 -55.64812,-0.0475 -27.93271,-6.23664 -50.31858,-18.03824 -70.01743,-36.91247 -27.62841,-26.47187 -42.56635,-59.00078 -44.12383,-96.08426 -0.92083,-21.9249 2.15412,-40.10346 10.17447,-60.14967 3.99591,-9.98745 4.11689,-11.14139 1.44799,-13.81029 -2.46306,-2.46305 -7.1142,-2.57514 -9.24309,-0.22274 -2.25251,2.48899 -8.4598,18.93474 -11.15371,29.55089 -6.835324,26.93665 -5.709894,59.34866 3.00593,86.56979 3.89995,12.18026 14.52273,32.65211 22.40078,43.17002 26.90942,35.9265 63.97303,57.28661 109.32018,63.00227 8.74964,1.10282 35.58726,-0.24105 45.99598,-2.30323 z m -142.65214,-8.56124 c 3.65826,-2.56234 2.9603,-7.26128 -1.89845,-12.78113 -3.4283,-3.89475 -4.60464,-4.61703 -7.10947,-4.36521 -1.8673,0.18772 -3.75151,1.31091 -4.9864,2.9724 -2.42664,3.26495 -1.48044,6.29554 3.74712,12.00174 3.71719,4.05754 6.66375,4.68215 10.2472,2.1722 z m 88.45543,-49.3295 c 5.0613,-2.38629 9.81705,-7.84914 11.39635,-13.09078 0.8743,-2.90177 0.86246,-10.67071 -0.0492,-32.31068 -0.66016,-15.66969 -1.19078,-29.74096 -1.17916,-31.2695 0.0349,-4.59163 -3.92067,-7.65967 -9.87546,-7.65967 h -5.01606 v -17.77088 -17.77087 l 2.8336,-0.56672 c 4.79637,-0.95927 11.35609,-6.70646 14.31592,-12.54265 2.73289,-5.38871 2.73398,-5.39944 2.73398,-26.9627 0,-24.07421 -0.0255,-24.16542 -6.61844,-23.61927 -5.7987,0.48037 -6.27414,2.27728 -6.29118,23.77733 -0.0139,17.52503 -0.13183,18.66669 -2.25155,21.79519 -4.52205,6.67414 -4.72233,5.85741 -4.72233,-19.25742 0,-25.99465 -0.12338,-26.49949 -6.47677,-26.49949 -6.105,0 -6.4475,1.44587 -6.4475,27.21801 v 22.7989 l -2.12557,-1.89389 c -4.20208,-3.7441 -4.83365,-7.22558 -4.83365,-26.64531 0,-20.4693 -0.3041,-21.47771 -6.47677,-21.47771 -5.92526,0 -6.4475,1.85547 -6.4475,22.90679 0,22.75497 0.95426,26.85673 7.85322,33.75567 2.59662,2.59663 6.36569,5.31582 8.3757,6.04265 l 3.65457,1.32152 v 17.69542 17.69543 h -4.36365 c -2.80152,0 -5.1964,0.67433 -6.68987,1.88366 -2.2942,1.85772 -2.3458,2.32736 -3.74785,34.11289 l -1.42162,32.22923 2.52343,5.51189 c 5.49264,11.9975 18.81779,16.50036 31.34737,10.59296 z m 69.56782,0.0118 c 5.11102,-2.40934 8.45537,-6.22121 10.76566,-12.27063 1.63671,-4.28567 1.65583,-6.46394 0.31986,-36.43546 -1.3994,-31.39452 -1.45607,-31.90575 -3.74205,-33.75682 -1.4884,-1.20525 -3.88662,-1.87955 -6.68477,-1.87955 h -4.36365 v -17.69543 -17.69542 l 3.65457,-1.32152 c 2.01001,-0.72683 5.78638,-3.45332 8.39192,-6.05886 6.82069,-6.82069 8.16158,-12.09703 7.66936,-30.17846 -0.36143,-13.27648 -0.53967,-14.32739 -3.27522,-19.31036 -10.34794,-18.84941 -37.88578,-18.0946 -46.91078,1.28582 -2.1238,4.56067 -2.31901,6.31788 -2.3279,20.95518 -0.009,15.46921 0.0771,16.14842 2.72426,21.36793 2.95983,5.83619 9.51955,11.58338 14.31592,12.54265 l 2.8336,0.56672 v 17.77087 17.77088 h -5.01606 c -3.90187,0 -5.52165,0.50557 -7.29214,2.27607 -2.49249,2.49249 -2.7692,5.7488 -4.19966,49.42101 -0.59197,18.07304 -0.56112,18.46852 1.77793,22.78782 6.17013,11.39384 19.32691,15.52959 31.35915,9.85754 z"
     id="path1504" />
  <path
     style="font-variation-settings:normal;opacity:1;vector-effect:none;fill:#e7cf7f;fill-opacity:1;stroke-width:0.988384;stroke-linecap:butt;stroke-linejoin:miter;stroke-miterlimit:4;stroke-dasharray:none;stroke-dashoffset:0;stroke-opacity:1;stop-color:#000000;stop-opacity:1"
     d="m 285.82524,179.49425 c -2.72118,-1.12556 -6.11227,-4.93986 -7.39008,-8.31237 -0.58322,-1.53928 -1.05971,-7.80258 -1.05886,-13.91845 0.002,-13.61646 1.32087,-16.98986 7.95186,-20.33764 6.67999,-3.37252 12.9498,-1.50517 16.94471,5.04667 1.65785,2.71894 1.93717,5.04065 1.93717,16.10133 0,11.06864 -0.27863,13.38125 -1.94067,16.10707 -3.25842,5.34399 -10.61967,7.72254 -16.44413,5.31339 z"
     id="path1508" />
  <path
     style="font-variation-settings:normal;opacity:1;vector-effect:none;fill:#008000;fill-opacity:1;stroke-width:0.988384;stroke-linecap:butt;stroke-linejoin:miter;stroke-miterlimit:4;stroke-dasharray:none;stroke-dashoffset:0;stroke-opacity:1;stop-color:#000000;stop-opacity:1"
     d="m 219.10394,301.97368 c -3.09221,-0.50661 -7.5034,-5.58212 -7.68445,-8.84171 -0.24355,-4.38484 1.34886,-42.01921 2.00233,-47.32226 l 0.58191,-4.72233 h 7.30929 c 6.78588,0 7.34104,0.16018 7.75258,2.23689 0.24381,1.23029 0.89365,12.96908 1.44408,26.08619 0.85784,20.44286 0.79081,24.29179 -0.46933,26.94734 -1.89783,3.99937 -6.47065,6.34753 -10.93641,5.61588 z"
     id="path1510" />
  <path
     style="font-variation-settings:normal;opacity:1;vector-effect:none;fill:#f59287;fill-opacity:1;stroke-width:0.988384;stroke-linecap:butt;stroke-linejoin:miter;stroke-miterlimit:4;stroke-dasharray:none;stroke-dashoffset:0;stroke-opacity:1;stop-color:#000000;stop-opacity:1"
     d="m 289.26733,301.97823 c -8.52919,-2.29743 -8.96981,-4.14264 -7.77701,-32.56777 0.55043,-13.11711 1.20027,-24.8559 1.44408,-26.08619 0.41154,-2.07671 0.9667,-2.23689 7.75258,-2.23689 h 7.30929 l 0.58191,4.72233 c 0.65347,5.30305 2.24588,42.93742 2.00233,47.32226 -0.27658,4.97948 -6.78241,10.06667 -11.31318,8.84626 z"
     id="path1512" />
  <path
     style="font-variation-settings:normal;opacity:1;vector-effect:none;fill:#f59287;fill-opacity:1;stroke-width:0.988384;stroke-linecap:butt;stroke-linejoin:miter;stroke-miterlimit:4;stroke-dasharray:none;stroke-dashoffset:0;stroke-opacity:1;stop-color:#000000;stop-opacity:1"
     d="m 215.25955,298.47197 c -2.95633,-2.95632 -3.50033,-4.1884 -3.50033,-7.92777 0,-7.96152 1.98627,-44.92406 2.54493,-47.35867 0.52544,-2.28988 0.78157,-2.35356 7.095,-1.764 3.60243,0.3364 6.71119,0.77295 6.90835,0.97012 0.77724,0.77723 2.59345,47.24438 1.97537,50.53905 -0.79674,4.24697 -4.08454,7.55391 -8.36044,8.40909 -2.71289,0.54257 -3.66025,0.13481 -6.66288,-2.86782 z"
     id="path1514" />
  <path
     style="font-variation-settings:normal;opacity:1;vector-effect:none;fill:#f59287;fill-opacity:1;stroke-width:0.988384;stroke-linecap:butt;stroke-linejoin:miter;stroke-miterlimit:4;stroke-dasharray:none;stroke-dashoffset:0;stroke-opacity:1;stop-color:#000000;stop-opacity:1"
     d="M 236.40338,471.48738 C 137.47607,396.95725 77.675637,319.24016 62.561477,245.56117 59.592793,231.08933 58.871609,203.54791 61.064586,188.39612 66.946536,147.75635 84.504838,112.90821 113.9204,83.492646 151.55914,45.853908 201.63439,25.2417 255.50291,25.21379 c 33.17671,-0.01719 60.17023,6.032755 88.97864,19.942409 46.78599,22.589818 82.95967,63.289171 98.95256,111.332431 7.22102,21.69225 8.38839,29.40582 8.3646,55.27059 -0.0235,25.48552 -1.09595,32.87465 -7.98557,55.01717 -18.10827,58.19807 -65.6806,120.62219 -138.1044,181.21974 -19.84722,16.60633 -47.30785,36.66406 -50.19599,36.66406 -0.89347,0 -9.49268,-5.92776 -19.10937,-13.17281 z m 1.85423,-22.21399 c 1.59203,-2.42975 1.59041,-2.76369 -0.028,-5.76898 -0.94483,-1.75446 -10.29778,-10.54806 -20.7843,-19.54135 -10.48655,-8.99327 -28.31302,-25.41083 -39.61439,-36.48345 -18.98715,-18.60284 -20.81823,-20.13204 -24.1063,-20.13204 -4.22643,0 -7.17829,3.47268 -6.21485,7.31135 0.93711,3.73372 14.16224,18.16235 31.17688,34.01399 16.55008,15.41884 43.04202,38.03619 48.32633,41.25834 4.58121,2.79345 9.15876,2.52564 11.24467,-0.65786 z m 47.56763,-78.41558 c 19.6786,-3.54683 42.06217,-13.07114 59.14146,-25.16493 11.52179,-8.15856 30.2884,-26.73877 38.10049,-37.72208 11.89471,-16.72321 21.41422,-38.69117 25.54052,-58.93929 1.62426,-7.97034 1.98646,-13.66966 1.98646,-31.25677 0,-24.33069 -0.79807,-29.86192 -7.00785,-48.56945 C 392.91965,137.071 373.03991,110.19547 345.2645,90.359691 330.66703,79.934921 306.94966,69.578129 288.28399,65.477702 c -11.87873,-2.609488 -51.01708,-2.647655 -63.84011,-0.06226 -33.53828,6.762043 -70.00775,28.865518 -88.62361,53.713138 -3.92496,5.23885 -4.42077,7.99572 -2.04739,11.38419 3.22312,4.60165 6.0066,3.16819 20.75599,-10.68907 23.66647,-22.234981 41.8165,-32.720677 69.16045,-39.955595 10.98928,-2.907647 44.63502,-3.72254 57.16505,-1.384527 28.60587,5.337651 53.76807,18.829993 75.06338,40.250102 16.72167,16.81964 26.56212,32.50473 34.16297,54.45369 5.70652,16.47876 6.59762,22.61155 6.57349,45.24062 -0.0239,22.35106 -1.10652,29.49722 -6.97267,46.0225 -14.86068,41.86339 -48.64509,74.75085 -90.86357,88.4512 -16.18613,5.25257 -21.80844,6.00347 -44.30923,5.91781 -19.56209,-0.0745 -20.84411,-0.20208 -31.92236,-3.1777 -26.30456,-7.0654 -48.20183,-19.59142 -66.44926,-38.01133 -40.73993,-41.12503 -52.47826,-98.39146 -31.35999,-152.99244 3.84405,-9.9387 3.93664,-13.16955 0.43121,-15.0456 -1.1124,-0.59534 -3.45024,-0.94378 -5.19519,-0.77432 -3.91482,0.38018 -6.3252,4.37548 -11.31138,18.74904 -10.551385,30.4163 -10.828368,67.59272 -0.73664,98.87168 2.82838,8.76648 11.95406,27.75706 17.43743,36.28738 10.00609,15.5662 27.80425,33.73126 43.02588,43.91284 18.79088,12.56902 38.84856,20.65948 62.52482,25.22002 9.535,1.83664 42.46002,1.23585 54.87198,-1.00126 z M 144.3256,361.72552 c 3.36872,-3.04864 2.11513,-8.11523 -3.4671,-14.0129 -3.36311,-3.55314 -6.86883,-4.15703 -10.27649,-1.77022 -4.23973,2.96962 -3.25723,8.39836 2.57558,14.23118 3.62445,3.62444 8.17862,4.25731 11.16801,1.55194 z m 84.24615,-47.63213 c 6.75637,-2.00643 13.39836,-8.40933 15.0518,-14.51 0.89106,-3.28772 0.90345,-11.16967 0.0521,-33.14456 -0.61431,-15.85708 -1.11245,-29.858 -1.10698,-31.11314 0.005,-1.25515 -1.08818,-3.3802 -2.43032,-4.72233 -1.94889,-1.94895 -3.45471,-2.44025 -7.4792,-2.44025 h -5.039 l 0.27149,-17.58428 0.27148,-17.58427 3.14653,-0.81449 c 3.64166,-0.94263 11.2511,-7.97372 13.9131,-12.85563 1.56846,-2.87644 1.87536,-6.20613 2.1496,-23.32181 0.17596,-10.98146 -0.074,-21.49486 -0.55538,-23.3631 -0.82073,-3.18503 -1.16218,-3.41554 -5.47658,-3.69726 -6.76121,-0.44149 -7.08476,0.55352 -7.69472,23.66356 -0.44585,16.89222 -0.75523,19.74578 -2.4047,22.17971 -1.41696,2.09083 -2.10067,2.46586 -2.71875,1.49126 -0.45416,-0.71613 -0.83508,-10.02593 -0.84651,-20.68845 -0.0114,-10.66252 -0.48669,-21.06408 -1.05613,-23.11456 -0.99276,-3.57478 -1.21249,-3.72816 -5.34069,-3.72816 -6.9047,0 -6.96789,0.22022 -7.53131,26.24805 -0.49204,22.73076 -0.51574,22.9361 -2.33653,20.25206 -2.86668,-4.2258 -3.57879,-9.08353 -3.61034,-24.62826 -0.0161,-7.92855 -0.49518,-16.09321 -1.06462,-18.14369 -0.99277,-3.57478 -1.2125,-3.72816 -5.34069,-3.72816 -6.93851,0 -7.03808,0.34481 -7.00683,24.26472 0.0297,22.78374 0.38443,24.6484 5.94168,31.23932 1.53492,1.82043 5.18174,4.65924 8.10405,6.3085 l 5.31328,2.99863 v 17.30315 17.30316 h -4.36365 c -7.8746,0 -8.46011,1.16128 -9.52386,18.88932 -0.50855,8.47534 -1.20891,23.46252 -1.55637,33.30485 l -0.63173,17.89515 3.31547,5.38693 c 3.71414,6.03467 6.57843,8.48216 12.32054,10.5277 5.15393,1.836 8.89401,1.81795 15.26378,-0.0737 z m 69.45309,0.0414 c 8.65116,-2.56912 14.25773,-9.01924 15.7046,-18.06746 0.60815,-3.80318 -0.96751,-45.49139 -2.18628,-57.84356 -0.7869,-7.97525 -2.61449,-10.06062 -8.81695,-10.06062 h -4.47378 v -17.3032 -17.30315 l 5.31328,-2.99863 c 2.92231,-1.64926 6.56913,-4.48807 8.10405,-6.3085 5.41338,-6.42029 5.95519,-8.85142 5.94439,-26.67297 -0.009,-14.96461 -0.20132,-16.76453 -2.19112,-20.51425 -8.4637,-15.94957 -28.56096,-20.10795 -41.91937,-8.67365 -7.8209,6.69441 -8.55609,9.24507 -8.55609,29.68499 0,17.73016 0.0252,17.938 2.733,22.54428 3.19324,5.43207 8.94106,10.49217 13.1738,11.59759 l 2.98252,0.7789 0.27148,17.58427 0.27149,17.58428 h -4.56209 c -6.06132,0 -8.14239,1.27886 -9.32983,5.73341 -1.23341,4.62698 -3.49799,59.69409 -2.64242,64.25472 0.73686,3.92778 5.4411,10.76393 9.02144,13.10986 6.67286,4.37224 13.14943,5.25186 21.15788,2.87361 z"
     id="path1516" />
  <path
     style="font-variation-settings:normal;opacity:1;vector-effect:none;fill:#f59287;fill-opacity:1;stroke-width:0.988384;stroke-linecap:butt;stroke-linejoin:miter;stroke-miterlimit:4;stroke-dasharray:none;stroke-dashoffset:0;stroke-opacity:1;stop-color:#000000;stop-opacity:1"
     d="m 283.9511,177.37241 c -4.78153,-3.76115 -5.71115,-6.96787 -5.72935,-19.7634 -0.02,-14.0235 1.07765,-16.95633 7.51664,-20.08464 5.77535,-2.80588 10.32862,-1.9475 14.42644,2.71967 2.72017,3.09809 3.0737,4.22185 3.19612,10.15949 0.23809,11.54721 -0.31783,21.52138 -1.30319,23.38171 -2.83504,5.35243 -13.24151,7.4141 -18.10666,3.58717 z"
     id="path1518" />
</svg>
