<?xml version="1.0"?>
<svg xmlns="http://www.w3.org/2000/svg" id="Solid" viewBox="0 0 512 512" width="512" height="512"><path d="M152.249,349.406a160.6,160.6,0,0,0,23.432-9.293c-6.079-1.312-12.225-2.756-18.512-4.362-11.92-3.045-21.721-7.831-29.117-14.031C128.915,336.81,141.084,345.027,152.249,349.406Z"/><path d="M378.383,128q-1.35,0-2.69.036c-66.5,1.116-92.89,42.528-114.093,75.8-9.175,14.4-17.1,26.835-27.117,34.512-15.614,11.965-40.479,17.89-73.832,17.658-.588,0-1.091-.008-1.5-.008C141.973,256,128,270.355,128,288c0,8.883,4.3,24.886,33.129,32.249,13.164,3.362,25.7,6.02,38.243,8.122C223.573,316.3,250.6,304,280,304a95.781,95.781,0,0,1,71.487,32h11.237c35.312,0,65.229-10.591,86.516-30.629C469.076,286.7,480,260.643,480,232,480,174.654,434.415,128,378.383,128ZM392,288a56,56,0,1,1,56-56A56.063,56.063,0,0,1,392,288Z"/><circle cx="392" cy="232" r="40"/><path d="M460.207,317.021c-24.231,22.808-57.8,34.9-97.1,34.975a95.611,95.611,0,0,1,7.358,15.892c67.612-1.911,107.075-29.1,109.417-75.462A111.982,111.982,0,0,1,460.207,317.021Z"/><path d="M125.68,148.111c12.78,1.882,26,3.828,34.379,3.889,9.5.086,22.551-1.958,35.158-3.919C208.112,146.075,221.447,144,232,144c11.411,0,28.575,6.513,40,11.477V141.031C261.376,136.084,241.932,128,232,128c-9.316,0-22.029,1.978-34.324,3.891-13.235,2.058-26.91,4.177-37.735,4.109-9.5-.07-22.657-2.007-36.592-4.059C110.191,130,96.585,128,88,128c-9.932,0-29.376,8.084-40,13.031v14.447C59.425,150.513,76.589,144,88,144,97.756,144,111.952,146.09,125.68,148.111Z"/><path d="M265.134,169.957C254.346,165.31,240.049,160,232,160c-9.316,0-22.029,1.978-34.324,3.891-13.235,2.059-26.91,4.2-37.735,4.109-9.5-.07-22.657-2.007-36.592-4.059C110.191,162,96.585,160,88,160c-9.932,0-29.376,8.084-40,13.031v30.446C59.425,198.513,76.589,192,88,192c9.756,0,23.952,2.09,37.68,4.111,12.78,1.882,26,3.828,34.379,3.889,9.5.08,22.551-1.958,35.158-3.919C208.112,194.075,221.447,192,232,192c4.436,0,9.822.924,16.389,2.8C253.4,186.933,258.841,178.425,265.134,169.957Z"/><path d="M280,320c-28.449,0-54.86,13.3-80.4,26.159C177.292,357.391,156.222,368,136,368a32,32,0,0,0,0,64c20.222,0,41.292,10.609,63.6,21.841C225.14,466.7,251.551,480,280,480a80,80,0,0,0,0-160Z"/><path d="M73.972,392A8,8,0,0,1,68,389.323L43.738,362.1a6.371,6.371,0,0,0-9.507.061,8.768,8.768,0,0,0,0,11.679,7.775,7.775,0,0,1,.561.668L50.34,395.193a8,8,0,0,1,0,9.614L34.792,425.493a7.775,7.775,0,0,1-.561.668,8.768,8.768,0,0,0,0,11.679,6.371,6.371,0,0,0,9.507.061L68,410.677A8,8,0,0,1,73.972,408H88.679a47.468,47.468,0,0,1,0-16Z"/><path d="M125.68,116.111c12.78,1.882,26,3.828,34.379,3.889,9.5.09,22.551-1.958,35.158-3.919C208.112,114.075,221.447,112,232,112c11.411,0,28.575,6.513,40,11.477V93.03C261.374,88.083,241.93,80,232,80c-9.316,0-22.029,1.978-34.324,3.891-13.235,2.058-26.91,4.2-37.735,4.109-9.5-.07-22.657-2.007-36.592-4.059C110.191,82,96.585,80,88,80c-9.93,0-29.374,8.083-40,13.03v30.448C59.425,118.513,76.589,112,88,112,97.756,112,111.952,114.09,125.68,116.111Z"/></svg>
