<svg height="507pt" viewBox="0 -29 507.95749 507" width="507pt" xmlns="http://www.w3.org/2000/svg"><path d="m97.097656 325.167969c5.832032 2.25 11.820313 4.433593 18.109375 6.492187 11.300781 3.695313 22.9375 6.257813 34.742188 7.652344-1.757813-4.074219-3.226563-8.269531-4.386719-12.550781-.101562-.367188-8.503906-46.628907 8.027344-56.570313 3.546875-2.148437 10.898437-4.421875 20.167968 4.328125 10.941407 11.375 26.78125 16.632813 42.351563 14.058594 11.878906-2.589844 22.003906-10.304687 27.65625-21.074219 5.074219-9.671875 5.980469-20.996094 2.503906-31.351562-2.558593-7.175782-5.59375-14.445313-8.8125-22.140625-13.441406-32.402344-28.800781-69.085938-7.535156-104.019531 2.574219-4.3125 8.144531-5.742188 12.476563-3.199219 4.332031 2.539062 5.804687 8.101562 3.296874 12.453125-15.113281 26.796875 36.9375 62.625 42.914063 66.621094l7.542969 4.984374c18.460937 10.792969 35.027344 24.535157 49.042968 40.683594 17.289063 2.214844 39.957032 1.125 54.765626-14.972656 8.847656-9.324219 22.261718-12.738281 34.488281-8.777344-7.101563-31.597656-20.0625-61.582031-38.207031-88.402344-1.371094 22.597657-14.203126 42.925782-34.011719 53.886719-19.296875 11.351563-43.476563 10.253907-61.660157-2.808593-11.183593-8.636719-28.234374-29.941407-16.851562-75.464844 11.183594-44.726563 9.300781-75.828125-5.824219-94.515625 1.125 7.292969-.050781 14.753906-3.363281 21.347656-8.910156 15.902344-21.753906 29.253906-37.304688 38.773437-10.882812 6.976563-20.488281 15.773438-28.394531 26.003907-12.902343 19.199219-17.839843 45.769531-14.628906 79.039062 1.285156 11.1875.890625 22.5-1.164063 33.574219-4.28125 21.449219-23.554687 36.582031-45.410156 35.65625-10.816406-.53125-20.917968-5.570312-27.839844-13.898438-12.371093-14.867187-14.082031-38.65625-13.058593-59.492187-14.535157 22.855469-31.761719 68.316406-15.539063 144.101563 1.464844 6.667968 3.4375 13.214843 5.90625 19.582031zm0 0"/><path d="m219.847656 306.472656c-20.757812 3.757813-42.058594-2.707031-57.226562-17.371094-1.363282 10.945313-1.15625 22.027344.625 32.914063 1.8125 6.535156 4.507812 12.792969 8.007812 18.605469 10.917969-.007813 21.816406-.976563 32.566406-2.890625 60.167969-10.585938 107.96875-47.707031 128.695313-66.238281-6.15625-5.976563-11.492187-12.738282-15.871094-20.113282-3.953125-6.578125-2.199219-15.085937 4.03125-19.566406-10.78125-9.5-22.339843-18.074219-34.5625-25.628906l-7.660156-5.066406c-14.382813-9.472657-27.316406-20.980469-38.398437-34.164063 3.710937 13.707031 8.507812 27.097656 14.34375 40.042969 3.171874 7.582031 6.398437 15.417968 9.144531 23.042968 5.148437 15.15625 3.875 31.761719-3.519531 45.960938-8.234376 15.59375-22.941407 26.746094-40.175782 30.472656zm0 0"/><path d="m506.640625 304.605469c2.742187-9.582031-28.753906-54.417969-62.097656-73.140625-10.058594-5.652344-23.660157-10.671875-31.085938-2.570313-21.332031 23.203125-52.652343 23.605469-74.433593 20.1875l-.320313-.046875c-.609375-.097656-1.25-.191406-1.828125-.292968 34.105469 46.785156 90.25 22.246093 92.738281 21.128906 3.335938-1.5 7.246094-.863282 9.9375 1.609375 17.160157 15.765625 12.917969 43.121093-11.511719 75.496093 8.050782 2.007813 16.566407.695313 23.636719-3.648437 8.121094-6.957031 13.339844-16.703125 14.625-27.320313.472657-4.6875 4.433594-8.253906 9.144531-8.226562h.257813c4.796875.132812 8.671875 3.953125 8.875 8.746094.914063 22.21875 8.796875 36.519531 23.378906 42.644531-6.625-17.511719-7.089843-36.753906-1.316406-54.566406zm0 0"/><path d="m462.078125 358.386719c-13.085937 8.292969-29.234375 10.183593-43.886719 5.136719-4.875-1.308594-8.757812-4.992188-10.320312-9.792969-1.566406-4.734375-.640625-9.941407 2.46875-13.839844 4.910156-6.144531 26.933594-35.0625 19.902344-50.597656-27.304688 10.160156-57.695313 7.820312-83.125-6.402344-20.570313 18.816406-72.953126 61.011719-140.132813 72.84375-13.535156 2.398437-27.277344 3.425781-41.015625 3.0625h-.117188c-.09375 0-.175781 0-.265624 0-19.066407-.5-37.957032-3.769531-56.082032-9.699219-46.914062-15.398437-82.332031-36.300781-105.246094-62.171875-.691406-.988281-2.027343-1.273437-3.0625-.660156-.992187.460937-1.453124 1.617187-1.050781 2.632813.9375 3.65625 1.996094 7.296874 3.171875 10.917968.714844 2.175782 1.472656 4.359375 2.285156 6.527344 34.644532 93.109375 143.765626 134.308594 234.351563 141.804688 51.125 4.234374 175.421875 4.132812 243.117187-84.535157-4.332031-4.570312-7.839843-9.855469-10.367187-15.625-2.949219 4.023438-6.539063 7.535157-10.625 10.398438zm-127.242187-12.171875c-40.890626 28.667968-89.765626 43.738281-139.703126 43.082031-4.113281 0-8.304687-.101563-12.578124-.300781-5.042969-.246094-8.929688-4.53125-8.6875-9.574219.394531-4.972656 4.597656-8.773437 9.582031-8.667969 49.699219 2.914063 98.957031-10.75 140.050781-38.855468 3.964844-3.054688 9.648438-2.351563 12.75 1.574218 3.105469 3.925782 2.472656 9.617188-1.414062 12.769532zm21.753906-16.308594c-5.050782 0-9.144532-4.09375-9.144532-9.144531s4.09375-9.140625 9.144532-9.140625c5.046875 0 9.140625 4.089844 9.140625 9.140625s-4.09375 9.144531-9.140625 9.144531zm0 0"/><path d="m428.535156 99.84375c34.046875 22.226562 53.851563 47.039062 58.859375 73.746094 3.566407 23.621094-2.546875 47.683594-16.949219 66.742187-1.902343 2.65625-2.246093 6.128907-.894531 9.105469 1.351563 2.976562 4.183594 5.003906 7.4375 5.324219 3.253907.320312 6.429688-1.121094 8.332031-3.777344 17.3125-23.09375 24.546876-52.210937 20.050782-80.722656-5.972656-31.800781-28.460938-60.625-66.84375-85.6875-4.230469-2.761719-9.898438-1.574219-12.660156 2.65625-2.761719 4.230469-1.570313 9.898437 2.65625 12.660156zm0 0"/></svg>