<?xml version="1.0" encoding="iso-8859-1"?>
<!-- Generator: Adobe Illustrator 19.0.0, SVG Export Plug-In . SVG Version: 6.00 Build 0)  -->
<svg version="1.1" id="Layer_1" xmlns="http://www.w3.org/2000/svg" xmlns:xlink="http://www.w3.org/1999/xlink" x="0px" y="0px"
	 viewBox="0 0 512 512" style="enable-background:new 0 0 512 512;" xml:space="preserve">
<g>
	<g>
		<path d="M356.174,200.348v-33.391c18.413,0,33.391-14.978,33.391-33.391C389.565,59.918,329.652,0,256,0
			S122.435,59.918,122.435,133.565c0,18.413,14.978,33.391,33.391,33.391v33.391c-27.619,0-50.087,22.468-50.087,50.087v211.478
			c0,27.619,22.468,50.087,50.087,50.087h200.348c27.619,0,50.087-22.468,50.087-50.087V250.435
			C406.261,222.816,383.793,200.348,356.174,200.348z M256,50.087c9.22,0,16.696,7.475,16.696,16.696
			c0,9.22-7.475,16.696-16.696,16.696s-16.696-7.475-16.696-16.696C239.304,57.562,246.78,50.087,256,50.087z M205.913,83.478
			c9.22,0,16.696,7.475,16.696,16.696c0,9.22-7.475,16.696-16.696,16.696c-9.22,0-16.696-7.475-16.696-16.696
			C189.217,90.953,196.693,83.478,205.913,83.478z M222.609,428.522c0,9.223-7.479,16.696-16.696,16.696
			c-9.217,0-16.696-7.473-16.696-16.696V283.826c0-9.223,7.479-16.696,16.696-16.696c9.217,0,16.696,7.473,16.696,16.696V428.522z
			 M322.783,428.522c0,9.223-7.479,16.696-16.696,16.696c-9.217,0-16.696-7.473-16.696-16.696V283.826
			c0-9.223,7.479-16.696,16.696-16.696c9.217,0,16.696,7.473,16.696,16.696V428.522z M322.783,200.348H189.217v-33.391h133.565
			V200.348z M306.087,116.87c-9.22,0-16.696-7.475-16.696-16.696c0-9.22,7.475-16.696,16.696-16.696s16.696,7.475,16.696,16.696
			C322.783,109.394,315.307,116.87,306.087,116.87z"/>
	</g>
</g>
<g>
</g>
<g>
</g>
<g>
</g>
<g>
</g>
<g>
</g>
<g>
</g>
<g>
</g>
<g>
</g>
<g>
</g>
<g>
</g>
<g>
</g>
<g>
</g>
<g>
</g>
<g>
</g>
<g>
</g>
</svg>
