<svg height="512" viewBox="0 0 56 56" width="512" xmlns="http://www.w3.org/2000/svg"><g id="Page-1" fill="none" fill-rule="evenodd"><g id="034---Milk-and-Jug" fill="rgb(0,0,0)" fill-rule="nonzero"><path id="Shape" d="m44.324 26.429c-.8165367.6049822-1.3057349 1.5549281-1.324 2.571 0 .5522847.4477153 1 1 1s1-.4477153 1-1c0-.459.2-.657.676-1.1.8309154-.5926703 1.3241726-1.5503734 1.3241726-2.571s-.4932572-1.9783297-1.3241726-2.571c-.481-.441-.676-.638-.676-1.1s.2-.654.675-1.094c.8152257-.6030797 1.3046459-1.5501539 1.325-2.564 0-.5522847-.4477153-1-1-1s-1 .4477153-1 1c0 .458-.2.654-.675 1.094-.8309032.5922319-1.3242151 1.5496379-1.3242151 2.57s.4933119 1.9777681 1.3242151 2.57c.481.441.676.639.676 1.1s-.196.654-.677 1.095z"/><path id="Shape" d="m50.324 26.429c-.8165367.6049822-1.3057349 1.5549281-1.324 2.571 0 .5522847.4477153 1 1 1s1-.4477153 1-1c0-.459.2-.657.676-1.1.8309154-.5926703 1.3241726-1.5503734 1.3241726-2.571s-.4932572-1.9783297-1.3241726-2.571c-.481-.441-.676-.638-.676-1.1s.2-.654.675-1.094c.8152257-.6030797 1.3046459-1.5501539 1.325-2.564 0-.5522847-.4477153-1-1-1s-1 .4477153-1 1c0 .458-.2.654-.675 1.094-.8309032.5922319-1.3242151 1.5496379-1.3242151 2.57s.4933119 1.9777681 1.3242151 2.57c.481.441.676.639.676 1.1s-.196.654-.677 1.095z"/><path id="Shape" d="m7.5 36c-1.93299662 0-3.5 1.5670034-3.5 3.5s1.56700338 3.5 3.5 3.5h5c1.9329966 0 3.5-1.5670034 3.5-3.5s-1.5670034-3.5-3.5-3.5zm1.5 4c0 .5522847-.44771525 1-1 1s-1-.4477153-1-1v-1c0-.5522847.44771525-1 1-1s1 .4477153 1 1zm4-1v1c0 .5522847-.4477153 1-1 1s-1-.4477153-1-1v-1c0-.5522847.4477153-1 1-1s1 .4477153 1 1z"/><path id="Shape" d="m16.9 25.849-1.88 1.875c.4298633.6536881.7268423 1.3856022.874 2.154.9768319-1.0961958 1.352887-2.6022851 1.006-4.029z"/><path id="Shape" d="m4.978 27.722-1.878-1.879c-.35907292 1.4308121.01899437 2.9464569 1.008 4.041.14482805-.7709176.44048489-1.5056419.87-2.162z"/><path id="Shape" d="m7.112 28.231c-.71457332.7446157-1.11309571 1.7369795-1.112 2.769l-.00000225 3.213c.48768515-.1403114.99253709-.2120003 1.50000225-.213h5c.5074652.0009997 1.0123171.0726886 1.5000024.213l-.0000024-3.213c.0011396-1.0322201-.3977939-2.0247151-1.113-2.769-.016-.017-.031-.033-.046-.051l-.039-.043c-.7497184-.7303129-1.7553708-1.1383881-2.802-1.137-1.09095961-.0041298-2.13549324.4410991-2.888 1.231zm.888 3.769c-.55228475 0-1-.4477153-1-1s.44771525-1 1-1 1 .4477153 1 1-.44771525 1-1 1zm4-2c.5522847 0 1 .4477153 1 1s-.4477153 1-1 1-1-.4477153-1-1 .4477153-1 1-1z"/><path id="Shape" d="m18.727 16-8.727-9.52-8.727 9.52h11.727z"/><path id="Shape" d="m25 0h-13c-.5522847 0-1 .44771525-1 1v3h15v-3c0-.55228475-.4477153-1-1-1z"/><path id="Shape" d="m26.56 6h-14.287l9.167 10h14.287z"/><path id="Shape" d="m31.187 38.833-.5 6c-.0448576.5570693.1447105 1.1075977.523033 1.5189498.3783224.4113521.9110975.6462315 1.469967.6480502h1.15l.833-10h-1.483c-1.0377823.0052169-1.9011545.7992767-1.993 1.833z"/><path id="Shape" d="m37 32.432v-13.432c0-.5522847-.4477153-1-1-1h-14v38h11.8c-.4096455-.7053194-.5938784-1.5190148-.528-2.332l.391-4.668h-.983c-1.1175516-.0022429-2.1834172-.4709749-2.9404139-1.2930957-.7569966-.8221208-1.1363719-1.9229631-1.0465861-3.0369043l.5-6c.1716553-2.0735787 1.9043286-3.6692903 3.985-3.67h1.722c.2985414-1.1179545 1.0635621-2.0534655 2.1-2.568z"/><path id="Shape" d="m0 19v36c0 .5522847.44771525 1 1 1h19v-38h-19c-.55228475 0-1 .4477153-1 1zm6 35h-3c-.55228475 0-1-.4477153-1-1v-3c0-.5522847.44771525-1 1-1s1 .4477153 1 1v2h2c.55228475 0 1 .4477153 1 1s-.44771525 1-1 1zm10.623-30.707c.2270327-.226783.5491073-.3308362.8659112-.2797516.3168039.0510847.5898473.2511007.7340888.5377516 1.6631266 3.0710293.6970328 6.9041139-2.223 8.82v2.89c1.7871324 1.4774323 2.4557077 3.9169937 1.6714966 6.0991168-.784211 2.1821232-2.8527372 3.6380255-5.1714966 3.6398832h-5c-2.31875937-.0018577-4.38728562-1.45776-5.17149664-3.6398832-.78421101-2.1821231-.11563576-4.6216845 1.67149664-6.0991168v-2.89c-2.92039093-1.9155726-3.88693573-5.7487224-2.224-8.82.14424149-.2866509.41728488-.4866669.73408881-.5377516.31680392-.0510846.63887848.0529686.86591119.2797516l2.961 2.961c2.15685508-1.6700097 5.1701449-1.6700097 7.327 0z"/><path id="Shape" d="m38.76 34c-1.0379487.0057333-1.901188.800104-1.993 1.834l-1.5 18c-.0464195.5573411.1426451 1.1086579.5213319 1.5202161.3786868.4115583.9123973.6457562 1.4716681.6457839h13.479c.5592708-.0000277 1.0929813-.2342256 1.4716681-.6457839.3786868-.4115582.5677514-.962875.5213319-1.5202161l-1.308-15.7c-.040087-.5469408.3678053-1.0241261.9143207-1.0696462.5465155-.0455201 1.0277306.3576101 1.0786793.9036462l.356 4.27 2.227-8.238zm11.625 19.677c-.1893634.2058616-.4562903.3230048-.736.323h-2.649c-.5522847 0-1-.4477153-1-1s.4477153-1 1-1h1.562l-.162-1.95c-.033411-.3580782.1280281-.7065192.4227987-.9125447.2947707-.2060256.6774685-.2379011 1.0022613-.0834799s.5416519.4713532.56794.8300246l.253 3.033c.0230891.278683-.0715644.5543025-.261.76z"/></g></g></svg>