<svg height="512" viewBox="0 0 512 512" width="512" xmlns="http://www.w3.org/2000/svg"><g id="Flat"><path d="m392 376v-224h-336v224l-27.875 41.812a24.563 24.563 0 0 0 -4.125 13.625 24.563 24.563 0 0 0 24.563 24.563h350.874a24.563 24.563 0 0 0 24.563-24.563 24.563 24.563 0 0 0 -4.125-13.625z" fill="#f9a40f"/><rect fill="#ffb431" height="96" rx="16" width="400" x="24" y="152"/><path d="m72 152 111.029-111.029a57.94 57.94 0 0 1 40.971-16.971 57.94 57.94 0 0 1 40.971 16.971l111.029 111.029z" fill="#dfdfdd"/><path d="m360 488h-192v-23.122a88.878 88.878 0 0 1 31.037-67.478 88.876 88.876 0 0 1 57.841-21.4h103.122z" fill="#2f9ccb"/><path d="m458.235 400.076a32.019 32.019 0 0 0 -13.885 2.113c-22.082 8.645-45.371 13.811-69.084 13.811h-15.266v32h13.605c23.938 0 47.857 4.082 69.883 13.459a32 32 0 1 0 14.747-61.383z" fill="#3ba5d3"/><path d="m176 488v-62.066a22.123 22.123 0 0 1 7.424-16.534l58.29-51.813a22.122 22.122 0 0 1 14.696-5.587 22.122 22.122 0 0 1 13.581 4.66l57.469 44.7a22.122 22.122 0 0 1 8.54 17.459v69.181z" fill="#dfdfdd"/><path d="m360 488h-192a51.241 51.241 0 0 1 18.437-39.364 106.286 106.286 0 0 1 68.045-24.636h73.518v-48h32z" fill="#4db6e4"/><path d="m80 272h16v16h-16z" fill="#ffb431"/><path d="m80 304h16v64h-16z" fill="#ffb431"/><g fill="#f1f1f1"><path d="m168 80h16v16h-16z"/><path d="m192 112h16v16h-16z"/><path d="m256 80h16v16h-16z"/></g></g></svg>