<?xml version="1.0" encoding="UTF-8"?>
<svg xmlns="http://www.w3.org/2000/svg" viewBox="0 0 512 512" width="512" height="512"><g id="Solid"><path d="M32,168a8.009,8.009,0,0,1,8-8H408a8.009,8.009,0,0,1,8,8v64a8.009,8.009,0,0,1-8,8H40a8.009,8.009,0,0,1-8-8ZM259.313,46.628,356.687,144H91.313l97.374-97.372a49.938,49.938,0,0,1,70.626,0ZM184,80H168V96h16Zm24,32H192v16h16Zm64-32H256V96h16Zm80,304H336v40a8,8,0,0,1-8,8H254.482a98.478,98.478,0,0,0-62.923,22.781A43.111,43.111,0,0,0,176.741,480H352Zm-32,32V405.693l-54.921-42.717a13.942,13.942,0,0,0-4.069-2.2,14.236,14.236,0,0,0-13.986,2.8l-58.29,51.811A14.137,14.137,0,0,0,184,425.93v14.422A114.494,114.494,0,0,1,254.482,416ZM161.5,448H48.56a16.56,16.56,0,0,1-13.774-25.753l27.87-41.809A8.005,8.005,0,0,0,64,376V256H384V376a8,8,0,0,0,1.344,4.438L402.2,405.715A164.08,164.08,0,0,1,375.266,408H368V376a8,8,0,0,0-8-8H297.6l-22.7-17.654A30.121,30.121,0,0,0,236.4,351.61L178.1,403.424A30.148,30.148,0,0,0,168,425.93v.455A96.427,96.427,0,0,0,161.5,448ZM96,304H80v64H96Zm0-32H80v16H96ZM456,456a24,24,0,0,0,23.939-25.722,24.015,24.015,0,0,0-22.246-22.22h0a23.884,23.884,0,0,0-10.425,1.581C422.925,419.168,398.7,424,375.266,424H368v16h5.6c26.477,0,51.043,4.743,73.018,14.1A23.82,23.82,0,0,0,456,456Z"/></g></svg>
