<svg height="512" viewBox="0 0 56 56" width="512" xmlns="http://www.w3.org/2000/svg"><g id="Page-1" fill="none" fill-rule="evenodd"><g id="015---Tomato" fill="rgb(0,0,0)" fill-rule="nonzero"><path id="Shape" d="m25.15 12.711h-.063c-.8583539-.0115672-1.6328365.5134042-1.94 1.315-.3286434.801573-.1084306 1.7234874.547 2.29.77015.6563507 1.6226863 1.2093563 2.536 1.645 1.233.617 2.3 1.108 3.242 1.542.985.454 1.855.855 2.65 1.279.3937248.2093115.8784589.1326514 1.1883801-.1879408s.3701346-.8076427.1476199-1.1940592c-.4043717-.687463-.8477636-1.3512153-1.328-1.988-2.263-3.012-4.677-4.641-6.98-4.701z"/><path id="Shape" d="m11.609 14.607c1.5294645-1.8673981 3.6254925-3.1858844 5.971-3.756v-.008c-.562-.386-2.225-.876-6.854.628-.449.14-.9.295-1.391.47-.3.11-.579.219-.839.329-.42341975.184066-.66578456.6340808-.58645626 1.0889122.07932829.4548314.4597253.7962288.92045626.8260878.93404372.0841003 1.8620962.225028 2.779.422z"/><path id="Shape" d="m15.031 36.835c.0935564-1.5893628 1.4078901-2.8314081 3-2.835h25.346c.3044404-1.3431143.5126359-2.7062437.623-4.079.3472715-5.0129879-1.3723664-9.9496748-4.759-13.662-.02 0-.039 0-.059 0-1.7734685-.2312862-3.5720291-.187098-5.332.131 1.7756599 2.2460928 2.938508 4.9142694 3.375 7.744.0805209.6593251-.2871841 1.2917776-.9 1.548-.189624.0811539-.39374.1229976-.6.123-.4453778-.0000436-.8671875-.2001187-1.149-.545-1.591-1.933-3.138-2.646-5.946-3.939-.959-.442-2.044-.942-3.3-1.57-1.0724172-.5146945-2.0726287-1.1679419-2.975-1.943-.1263571-.1182166-.2449378-.24448-.355-.378-.1129615.1331662-.2342017.2590824-.363.377-.9022879.7751691-1.9025147 1.4284265-2.975 1.943-1.255.628-2.34 1.128-3.3 1.569-2.807 1.294-4.354 2.007-5.945 3.94-.28221387.3449228-.70433602.544972-1.15.545-.20625723-.0000301-.4103677-.0418727-.6-.123-.61344551-.2560557-.98134736-.8892557-.9-1.549.43697467-2.8372166 1.60416049-5.5120605 3.387-7.762-1.72851686-.3023787-3.49286819-.3411519-5.233-.115-.042.006-.082 0-.124 0-3.37588915 3.7201006-5.08782158 8.6565336-4.74 13.668.848 11.028 6.943 17.494 17.67 18.811-1.5709253-2.9191864-2.4826672-6.1473193-2.671-9.457-.0652872-.8124202-.073641-1.6284134-.025-2.442zm-13.031-6.835c0-.5522847.44771525-1 1-1s1 .4477153 1 1-.44771525 1-1 1-1-.4477153-1-1zm11.731 14.89c-.1476545.3875875-.51924.6437984-.934.644-.1217191.000117-.242412-.0222587-.356-.066-5.245-2-8.559-6.016-9.853-11.941-.11791279-.5395822.2239178-1.0725872.7635-1.1905s1.07258721.2239178 1.1905.7635c1.157 5.3 3.973 8.731 8.611 10.5.5156477.1968105.7743422.7741738.578 1.29z"/><path id="Shape" d="m22 2c.7393149.07346574 1.4665755-.22659021 1.939-.8l.032-.075c.0163306-.03983453.0261232-.0820442.029-.125 0-.408-.78-1-2-1s-2 .592-2 1 .778 1 2 1z"/><path id="Shape" d="m10.672 9.4c1.9727907-.71981101 4.0751845-1.01557725 6.17-.868-.048-.475-.084-.949-.093-1.418-2.3447358-.18433447-4.6622242-.62496242-6.911-1.314-.42053548-.11624568-.86789376.05357582-1.10535385.41960294-.2374601.36602712-.21020068.84375685.06735385 1.18039706.57919599.70723369 1.2045625 1.37536033 1.872 2z"/><path id="Shape" d="m19.9 10.839c.8176515.1946688 1.5527372.643071 2.1 1.281.3294932-.3816108.7281601-.6974907 1.175-.931-.4967547-1.74502884-.642901-3.57117758-.43-5.373.0691913-.65196737.1810985-1.29869064.335-1.936-.3550494.07621193-.7168809.11641543-1.08.12-.9925538.01896315-1.9662373-.27261749-2.785-.834-.2649721.99113231-.4182582 2.00879147-.457 3.034-.0365281 1.07755978.0415772 2.15595019.233 3.217.438389.37242932.7550254.8677615.909 1.422z"/><path id="Shape" d="m19 12.718h-.009-.013c-.025 0-.046-.006-.071-.006h-.063c-2.3.06-4.717 1.686-6.979 4.7-.4801128.6362211-.9225375 1.3000251-1.325 1.988-.2184578.3860066-.1565501.8697892.1520681 1.188348.3086183.3185588.790196.3957671 1.1829319.189652.8-.423 1.665-.824 2.65-1.278.942-.434 2.009-.925 3.242-1.542.9120984-.4349375 1.7636063-.9869217 2.533-1.642.6554306-.5665126.8756434-1.488427.547-2.29-.2969589-.7674845-1.0244576-1.2826812-1.847-1.308z"/><path id="Shape" d="m33.46 11.493c-.027-.006-.055-.014-.081-.022-4.847-1.575-6.437-.943-6.893-.605 2.3275277.5856992 4.4048707 1.9046805 5.925 3.762.9543791-.2106877 1.9214037-.3593322 2.895-.445.4546193-.0410997.8237053-.3848393.8969907-.8353914s-.167833-.8935457-.5859907-1.0766086c-.2633333-.1106667-.547-.222-.851-.334-.454-.1653333-.8893333-.3133333-1.306-.444z"/><path id="Shape" d="m25.308 9.25c1.518-1.115 4.192-1.059 8.133.152.6729698-.6298065 1.3033577-1.30362336 1.887-2.017.2778165-.34009209.3012478-.82163738.0577624-1.18709528-.2434855-.3654579-.6969059-.52930188-1.1177624-.40390472-3.0947429 1.0104513-6.3485898 1.4446365-9.6 1.281-.0285057.86805517.0385644 1.73661211.2 2.59.1321571-.15295082.2795886-.29200552.44-.415z"/><path id="Shape" d="m47.168 40h-.007c-1.2386464.0339763-2.3821323.6724007-3.061 1.709-1.435 2.03-4.349 3.291-7.6 3.291s-6.165-1.261-7.6-3.291c-.6788677-1.0365993-1.8223536-1.6750237-3.061-1.709-1.236469.0006322-2.3860955.6357766-3.0447951 1.6821853-.6586995 1.0464086-.7342911 2.357643-.2002049 3.4728147 2.218 4.592 6.758 6.831 13.878 6.845 7.18-.014 11.72-2.253 13.936-6.846.5332406-1.1142808.4579259-2.4241511-.1995157-3.4699703-.6574417-1.0458192-1.8051864-1.6815193-3.0404843-1.6840297zm-19.461 3.707-2 2c-.3923789.3789722-1.0160848.3735524-1.4018186-.0121814s-.3911536-1.0094397-.0121814-1.4018186l2-2c.3923789-.3789722 1.0160848-.3735524 1.4018186.0121814s.3911536 1.0094397.0121814 1.4018186zm3.188 2.74-1 2c-.1596977.3197527-.4778505.5300187-.8346134.5515928-.3567628.0215741-.6979349-.1488214-.895-.447-.1970651-.2981787-.2200843-.6788401-.0603866-.9985928l1-2c.2468713-.4942949.8477051-.6948713 1.342-.448s.6948713.8477051.448 1.342zm4.105 2.553c0 .5522847-.4477153 1-1 1s-1-.4477153-1-1v-2c0-.5522847.4477153-1 1-1s1 .4477153 1 1zm5 0c0 .5522847-.4477153 1-1 1s-1-.4477153-1-1v-2c0-.5522847.4477153-1 1-1s1 .4477153 1 1zm4.447-.1c-.2373497.1186659-.5121326.1381283-.7638386.0541012-.251706-.084027-.4596935-.2646527-.5781614-.5021012l-1-2c-.1596977-.3197527-.1366785-.7004141.0603866-.9985928.1970651-.2981786.5382372-.4685741.895-.447.3567629.0215741.6749157.2318401.8346134.5515928l1 2c.1186659.2373497.1381283.5121326.0541012.7638386-.084027.251706-.2646527.4596935-.5021012.5781614zm4.26-3.188c-.3904999.3903819-1.0235001.3903819-1.414 0l-2-2c-.3789722-.3923789-.3735524-1.0160848.0121814-1.4018186s1.0094397-.3911536 1.4018186-.0121814l2 2c.3870613.3899205.3870613 1.0190795 0 1.409z"/><path id="Shape" d="m55.97 36.954c-.0300054-.5317634-.4674137-.9490509-1-.954h-36.939c-.5325863.0049491-.9699946.4222366-1 .954-.0427834.7219881-.035098 1.4460826.023 2.167.846 11.024 7.561 16.86 19.418 16.879 11.912-.019 18.628-5.854 19.478-16.875.0530457-.722496.0597261-1.4476493.02-2.171zm-3.761 9.069c-2.546 5.277-7.82 7.962-15.677 7.977-7.916-.015-13.19-2.7-15.739-7.975-.8331268-1.7341747-.7177078-3.7746127.3056687-5.4037728 1.0233765-1.6291602 2.8114143-2.6189226 4.7353313-2.6212272 1.8908887.0274091 3.6477332.9817121 4.7 2.553 1.049 1.487 3.392 2.447 5.966 2.447s4.917-.96 5.97-2.447c1.0502267-1.5689576 2.8032225-2.5229968 4.691-2.553h.007c1.923352.0026335 3.7107781.9921264 4.7340371 2.6206935s1.1391587 3.6683111.3069629 5.4023065z"/></g></g></svg>