<svg xmlns="http://www.w3.org/2000/svg" xmlns:xlink="http://www.w3.org/1999/xlink" xmlns:lucid="lucid" width="2020" height="1212"><g transform="translate(-40 -40)" lucid:page-tab-id="0_0"><path d="M0 0h3676.8v1323.2H0z" fill="#fff"/><path d="M60 444h200v264H60z" fill="#fff"/><path d="M60 444h200v40H60z" fill="#ccc"/><path d="M60 444h200v264H60zM60 484h200" stroke="#000" stroke-width="2" fill="none"/><use xlink:href="#a" transform="matrix(1,0,0,1,70,444) translate(54.574999999999996 23.6)"/><use xlink:href="#b" transform="matrix(1,0,0,1,65,486.5) translate(0 17.1)"/><use xlink:href="#c" transform="matrix(1,0,0,1,65,518.5) translate(0 17.1)"/><use xlink:href="#d" transform="matrix(1,0,0,1,65,550.5) translate(0 17.1)"/><use xlink:href="#e" transform="matrix(1,0,0,1,65,582.5) translate(0 17.1)"/><use xlink:href="#f" transform="matrix(1,0,0,1,65,614.5) translate(0 17.1)"/><use xlink:href="#g" transform="matrix(1,0,0,1,65,646.5) translate(0 17.1)"/><use xlink:href="#h" transform="matrix(1,0,0,1,65,678.5) translate(0 17.1)"/><path d="M980 180h200v392H980z" fill="#fff"/><path d="M980 180h200v40H980z" fill="#ccc"/><path d="M980 180h200v392H980zM980 220h200" stroke="#000" stroke-width="2" fill="none"/><use xlink:href="#i" transform="matrix(1,0,0,1,990,180) translate(65.025 23.6)"/><use xlink:href="#j" transform="matrix(1,0,0,1,985,222.5) translate(0 17.1)"/><use xlink:href="#c" transform="matrix(1,0,0,1,985,254.5) translate(0 17.1)"/><use xlink:href="#k" transform="matrix(1,0,0,1,985,286.5) translate(0 17.1)"/><use xlink:href="#l" transform="matrix(1,0,0,1,985,318.5) translate(0 17.1)"/><use xlink:href="#m" transform="matrix(1,0,0,1,985,350.5) translate(0 17.1)"/><use xlink:href="#n" transform="matrix(1,0,0,1,985,382.5) translate(0 17.1)"/><use xlink:href="#b" transform="matrix(1,0,0,1,985,414.5) translate(0 17.1)"/><use xlink:href="#o" transform="matrix(1,0,0,1,985,446.5) translate(0 17.1)"/><use xlink:href="#p" transform="matrix(1,0,0,1,985,478.5) translate(0 17.1)"/><use xlink:href="#q" transform="matrix(1,0,0,1,985,510.5) translate(0 17.1)"/><use xlink:href="#r" transform="matrix(1,0,0,1,985,542.5) translate(0 17.1)"/><path d="M980 600h200v392H980z" fill="#fff"/><path d="M980 600h200v40H980z" fill="#ccc"/><path d="M980 600h200v392H980zM980 640h200" stroke="#000" stroke-width="2" fill="none"/><use xlink:href="#s" transform="matrix(1,0,0,1,990,600) translate(67.525 23.6)"/><use xlink:href="#o" transform="matrix(1,0,0,1,985,642.5) translate(0 17.1)"/><use xlink:href="#c" transform="matrix(1,0,0,1,985,674.5) translate(0 17.1)"/><use xlink:href="#k" transform="matrix(1,0,0,1,985,706.5) translate(0 17.1)"/><use xlink:href="#t" transform="matrix(1,0,0,1,985,738.5) translate(0 17.1)"/><use xlink:href="#u" transform="matrix(1,0,0,1,985,770.5) translate(0 17.1)"/><use xlink:href="#p" transform="matrix(1,0,0,1,985,802.5) translate(0 17.1)"/><use xlink:href="#q" transform="matrix(1,0,0,1,985,834.5) translate(0 17.1)"/><use xlink:href="#v" transform="matrix(1,0,0,1,985,866.5) translate(0 17.1)"/><use xlink:href="#w" transform="matrix(1,0,0,1,985,898.5) translate(0 17.1)"/><use xlink:href="#x" transform="matrix(1,0,0,1,985,930.5) translate(0 17.1)"/><use xlink:href="#y" transform="matrix(1,0,0,1,985,962.5) translate(0 17.1)"/><path d="M380 252h200v232H380z" fill="#fff"/><path d="M380 252h200v40H380z" fill="#ccc"/><path d="M380 252h200v232H380zM380 292h200" stroke="#000" stroke-width="2" fill="none"/><use xlink:href="#z" transform="matrix(1,0,0,1,390,252) translate(18.625 24.266666666666666)"/><use xlink:href="#A" transform="matrix(1,0,0,1,385,294.5) translate(0 17.1)"/><use xlink:href="#B" transform="matrix(1,0,0,1,385,326.5) translate(0 17.1)"/><use xlink:href="#k" transform="matrix(1,0,0,1,385,358.5) translate(0 17.1)"/><use xlink:href="#C" transform="matrix(1,0,0,1,385,390.5) translate(0 17.1)"/><use xlink:href="#l" transform="matrix(1,0,0,1,385,422.5) translate(0 17.1)"/><use xlink:href="#D" transform="matrix(1,0,0,1,385,454.5) translate(0 17.1)"/><path d="M1201 656h20V428h-21.18" stroke="#000" stroke-width="2" fill="none"/><path fill="#fff"/><path d="M1202 666h-2v-20h2z"/><path fill="#fff"/><path d="M1201 657h-20v-2h20z"/><path d="M1181.45 418l20 10-20 10z" fill="#fff"/><path d="M1203.68 428l-21.8 10.9-.88-1.8 18.2-9.1-18.2-9.1.9-1.8z"/><path fill="#fff"/><path d="M1201.45 429h-20v-2h20z"/><path d="M281 500h39V372.04h40.18" stroke="#000" stroke-width="2" fill="none"/><path fill="#fff"/><path d="M282 510h-2v-20h2z"/><path fill="#fff"/><path d="M281 501h-20v-2h20z"/><path d="M378.55 382.04l-20-10 20-10z" fill="#fff"/><path d="M379 362.93l-18.2 9.1 18.2 9.12-.9 1.78-21.78-10.9 21.8-10.88z"/><path fill="#fff"/><path d="M378.55 373.04h-20v-2h20z"/><path d="M380 960h200v136H380z" fill="#fff"/><path d="M380 960h200v40H380z" fill="#ccc"/><path d="M380 960h200v136H380zM380 1000h200" stroke="#000" stroke-width="2" fill="none"/><use xlink:href="#E" transform="matrix(1,0,0,1,390,960) translate(12.149999999999991 23.6)"/><use xlink:href="#D" transform="matrix(1,0,0,1,385,1002.5) translate(0 17.1)"/><use xlink:href="#F" transform="matrix(1,0,0,1,385,1034.5) translate(0 17.1)"/><use xlink:href="#G" transform="matrix(1,0,0,1,385,1066.5) translate(0 17.1)"/><path d="M380 80h200v136H380z" fill="#fff"/><path d="M380 80h200v40H380z" fill="#ccc"/><path d="M380 80h200v136H380zM380 120h200" stroke="#000" stroke-width="2" fill="none"/><use xlink:href="#H" transform="matrix(1,0,0,1,390,80) translate(9.125 23.6)"/><use xlink:href="#D" transform="matrix(1,0,0,1,385,122.5) translate(0 17.1)"/><use xlink:href="#b" transform="matrix(1,0,0,1,385,154.5) translate(0 17.1)"/><use xlink:href="#j" transform="matrix(1,0,0,1,385,186.5) translate(0 17.1)"/><path d="M160 729v319h199" stroke="#000" stroke-width="2" fill="none"/><path fill="#fff"/><path d="M170 730h-20v-2h20z"/><path fill="#fff"/><path d="M161 729h-2v-20h2z"/><path fill="#fff"/><path d="M360 1058h-2v-20h2z"/><path fill="#fff"/><path d="M379 1049h-20v-2h20z"/><path d="M1300 308h200v168h-200z" fill="#fff"/><path d="M1300 308h200v40h-200z" fill="#ccc"/><path d="M1300 308h200v168h-200zM1300 348h200" stroke="#000" stroke-width="2" fill="none"/><use xlink:href="#I" transform="matrix(1,0,0,1,1310,308) translate(25.549999999999997 23.6)"/><use xlink:href="#J" transform="matrix(1,0,0,1,1305,350.5) translate(0 17.1)"/><use xlink:href="#c" transform="matrix(1,0,0,1,1305,382.5) translate(0 17.1)"/><use xlink:href="#K" transform="matrix(1,0,0,1,1305,414.5) translate(0 17.1)"/><use xlink:href="#j" transform="matrix(1,0,0,1,1305,446.5) translate(0 17.1)"/><path d="M1201 688h59v-64.4h20.18" stroke="#000" stroke-width="2" fill="none"/><path fill="#fff"/><path d="M1202 698h-2v-20h2z"/><path fill="#fff"/><path d="M1201 689h-20v-2h20z"/><path d="M1298.55 633.6l-20-10 20-10z" fill="#fff"/><path d="M1299 614.5l-18.2 9.1 18.2 9.1-.9 1.8-21.78-10.9 21.8-10.9z"/><path fill="#fff"/><path d="M1298.55 624.6h-20v-2h20z"/><path d="M1560 1096h200v136h-200z" fill="#fff"/><path d="M1560 1096h200v40h-200z" fill="#ccc"/><path d="M1560 1096h200v136h-200zM1560 1136h200" stroke="#000" stroke-width="2" fill="none"/><use xlink:href="#L" transform="matrix(1,0,0,1,1570,1096) translate(35.55 23.6)"/><use xlink:href="#x" transform="matrix(1,0,0,1,1565,1138.5) translate(0 17.1)"/><use xlink:href="#M" transform="matrix(1,0,0,1,1565,1170.5) translate(0 17.1)"/><use xlink:href="#c" transform="matrix(1,0,0,1,1565,1202.5) translate(0 17.1)"/><path d="M1840 276h200v168h-200z" fill="#fff"/><path d="M1840 276h200v40h-200z" fill="#ccc"/><path d="M1840 276h200v168h-200zM1840 316h200" stroke="#000" stroke-width="2" fill="none"/><use xlink:href="#N" transform="matrix(1,0,0,1,1850,276) translate(14.649999999999991 23.6)"/><use xlink:href="#O" transform="matrix(1,0,0,1,1845,318.5) translate(0 17.1)"/><use xlink:href="#c" transform="matrix(1,0,0,1,1845,350.5) translate(0 17.1)"/><use xlink:href="#k" transform="matrix(1,0,0,1,1845,382.5) translate(0 17.1)"/><use xlink:href="#q" transform="matrix(1,0,0,1,1845,414.5) translate(0 17.1)"/><path d="M1201 752h459v-60.58" stroke="#000" stroke-width="2" fill="none"/><path fill="#fff"/><path d="M1202 762h-2v-20h2z"/><path fill="#fff"/><path d="M1201 753h-20v-2h20z"/><path d="M1670 673.05l-10 20-10-20z" fill="#fff"/><path d="M1670.9 673.5l-10.9 21.78-10.9-21.8 1.8-.88 9.1 18.2 9.1-18.2z"/><path fill="#fff"/><path d="M1661 693.05h-2v-20h2z"/><path d="M1080 1011.82V1152h199" stroke="#000" stroke-width="2" fill="none"/><path d="M1090 993.45l-10 20-10-20z" fill="#fff"/><path d="M1090.9 993.9l-10.9 21.78-10.9-21.8 1.8-.88 9.1 18.2 9.1-18.2z"/><path fill="#fff"/><path d="M1081 1013.45h-2v-20h2z"/><path fill="#fff"/><path d="M1280 1162h-2v-20h2z"/><path fill="#fff"/><path d="M1299 1153h-20v-2h20z"/><path d="M1201 364h79.18" stroke="#000" stroke-width="2" fill="none"/><path fill="#fff"/><path d="M1202 374h-2v-20h2z"/><path fill="#fff"/><path d="M1201 365h-20v-2h20z"/><path d="M1298.55 374l-20-10 20-10z" fill="#fff"/><path d="M1299 354.9l-18.2 9.1 18.2 9.1-.9 1.8-21.78-10.9 21.8-10.9z"/><path fill="#fff"/><path d="M1298.55 365h-20v-2h20z"/><path d="M1201 236h459v20.18" stroke="#000" stroke-width="2" fill="none"/><path fill="#fff"/><path d="M1202 246h-2v-20h2z"/><path fill="#fff"/><path d="M1201 237h-20v-2h20z"/><path d="M1650 274.55l10-20 10 20z" fill="#fff"/><path d="M1670.9 274.1l-1.8.9-9.1-18.2-9.1 18.2-1.8-.9 10.9-21.78z"/><path fill="#fff"/><path d="M1661 274.55h-2v-20h2z"/><path d="M1560 60h200v136h-200z" fill="#fff"/><path d="M1560 60h200v40h-200z" fill="#ccc"/><path d="M1560 60h200v136h-200zM1560 100h200" stroke="#000" stroke-width="2" fill="none"/><use xlink:href="#P" transform="matrix(1,0,0,1,1570,60) translate(32.62499999999999 23.6)"/><use xlink:href="#Q" transform="matrix(1,0,0,1,1565,102.5) translate(0 17.1)"/><use xlink:href="#c" transform="matrix(1,0,0,1,1565,134.5) translate(0 17.1)"/><use xlink:href="#R" transform="matrix(1,0,0,1,1565,166.5) translate(0 17.1)"/><path d="M1560 860h200v168h-200z" fill="#fff"/><path d="M1560 860h200v40h-200z" fill="#ccc"/><path d="M1560 860h200v168h-200zM1560 900h200" stroke="#000" stroke-width="2" fill="none"/><use xlink:href="#S" transform="matrix(1,0,0,1,1570,860) translate(50.574999999999996 23.6)"/><use xlink:href="#T" transform="matrix(1,0,0,1,1565,902.5) translate(0 17.1)"/><use xlink:href="#w" transform="matrix(1,0,0,1,1565,934.5) translate(0 17.1)"/><use xlink:href="#U" transform="matrix(1,0,0,1,1565,966.5) translate(0 17.1)"/><use xlink:href="#V" transform="matrix(1,0,0,1,1565,998.5) translate(0 17.1)"/><path d="M1201 784h459v55" stroke="#000" stroke-width="2" fill="none"/><path fill="#fff"/><path d="M1202 794h-2v-20h2z"/><path fill="#fff"/><path d="M1201 785h-20v-2h20z"/><path fill="#fff"/><path d="M1670 840h-20v-2h20z"/><path fill="#fff"/><path d="M1661 859h-2v-20h2z"/><path d="M1300 860h200v200h-200z" fill="#fff"/><path d="M1300 860h200v40h-200z" fill="#ccc"/><path d="M1300 860h200v200h-200zM1300 900h200" stroke="#000" stroke-width="2" fill="none"/><use xlink:href="#W" transform="matrix(1,0,0,1,1310,860) translate(60.599999999999994 23.6)"/><use xlink:href="#T" transform="matrix(1,0,0,1,1305,902.5) translate(0 17.1)"/><use xlink:href="#X" transform="matrix(1,0,0,1,1305,934.5) translate(0 17.1)"/><use xlink:href="#c" transform="matrix(1,0,0,1,1305,966.5) translate(0 17.1)"/><use xlink:href="#Y" transform="matrix(1,0,0,1,1305,998.5) translate(0 17.1)"/><use xlink:href="#Z" transform="matrix(1,0,0,1,1305,1030.5) translate(0 17.1)"/><path d="M1280.18 980.2H1259v52.8h-139.1v-20" stroke="#000" stroke-width="2" fill="none"/><path d="M1298.55 990.2l-20-10 20-10z" fill="#fff"/><path d="M1299 971.1l-18.2 9.1 18.2 9.1-.9 1.8-21.78-10.9 21.8-10.9z"/><path fill="#fff"/><path d="M1298.55 981.2h-20v-2h20z"/><path fill="#fff"/><path d="M1129.9 1014h-20v-2h20z"/><path fill="#fff"/><path d="M1120.9 1013h-2v-20h2z"/><path d="M281 596h39v176.04h40.18" stroke="#000" stroke-width="2" fill="none"/><path fill="#fff"/><path d="M282 606h-2v-20h2z"/><path fill="#fff"/><path d="M281 597h-20v-2h20z"/><path d="M378.55 782.04l-20-10 20-10z" fill="#fff"/><path d="M379 762.93l-18.2 9.1 18.2 9.12-.9 1.78-21.78-10.9 21.8-10.88z"/><path fill="#fff"/><path d="M378.55 773.04h-20v-2h20z"/><path d="M700 744h200v136H700z" fill="#fff"/><path d="M700 744h200v40H700z" fill="#ccc"/><path d="M700 744h200v136H700zM700 784h200" stroke="#000" stroke-width="2" fill="none"/><use xlink:href="#aa" transform="matrix(1,0,0,1,710,744) translate(7.175000000000011 23.6)"/><use xlink:href="#m" transform="matrix(1,0,0,1,705,786.5) translate(0 17.1)"/><use xlink:href="#o" transform="matrix(1,0,0,1,705,818.5) translate(0 17.1)"/><use xlink:href="#ab" transform="matrix(1,0,0,1,705,850.5) translate(0 17.1)"/><path d="M700 244h200v136H700z" fill="#fff"/><path d="M700 244h200v40H700z" fill="#ccc"/><path d="M700 244h200v136H700zM700 284h200" stroke="#000" stroke-width="2" fill="none"/><use xlink:href="#ac" transform="matrix(1,0,0,1,710,244) translate(4.150000000000006 23.6)"/><use xlink:href="#ad" transform="matrix(1,0,0,1,705,286.5) translate(0 17.1)"/><use xlink:href="#j" transform="matrix(1,0,0,1,705,318.5) translate(0 17.1)"/><use xlink:href="#ab" transform="matrix(1,0,0,1,705,350.5) translate(0 17.1)"/><path d="M959 332h-19v-32h-20.18" stroke="#000" stroke-width="2" fill="none"/><path fill="#fff"/><path d="M960 342h-2v-20h2z"/><path fill="#fff"/><path d="M979 333h-20v-2h20z"/><path d="M901.45 290l20 10-20 10z" fill="#fff"/><path d="M923.68 300l-21.8 10.9-.88-1.8 18.2-9.1-18.2-9.1.9-1.8z"/><path fill="#fff"/><path d="M921.45 301h-20v-2h20z"/><path d="M601 344h39v-44h40.18" stroke="#000" stroke-width="2" fill="none"/><path fill="#fff"/><path d="M602 354h-2v-20h2z"/><path fill="#fff"/><path d="M601 345h-20v-2h20z"/><path d="M698.55 310l-20-10 20-10z" fill="#fff"/><path d="M699 290.9l-18.2 9.1 18.2 9.1-.9 1.8-21.78-10.9 21.8-10.9z"/><path fill="#fff"/><path d="M698.55 301h-20v-2h20z"/><path d="M959 816h-19v16h-20.18" stroke="#000" stroke-width="2" fill="none"/><path fill="#fff"/><path d="M960 826h-2v-20h2z"/><path fill="#fff"/><path d="M979 817h-20v-2h20z"/><path d="M901.45 822l20 10-20 10z" fill="#fff"/><path d="M923.68 832l-21.8 10.9-.88-1.8 18.2-9.1-18.2-9.1.9-1.8z"/><path fill="#fff"/><path d="M921.45 833h-20v-2h20z"/><path d="M601 707.6h39V832h40.18" stroke="#000" stroke-width="2" fill="none"/><path fill="#fff"/><path d="M602 717.6h-2v-20h2z"/><path fill="#fff"/><path d="M601 708.6h-20v-2h20z"/><path d="M698.55 842l-20-10 20-10z" fill="#fff"/><path d="M699 822.9l-18.2 9.1 18.2 9.1-.9 1.8-21.78-10.9 21.8-10.9z"/><path fill="#fff"/><path d="M698.55 833h-20v-2h20z"/><path d="M380 620h200v296H380z" fill="#fff"/><path d="M380 620h200v40H380z" fill="#ccc"/><path d="M380 620h200v296H380zM380 660h200" stroke="#000" stroke-width="2" fill="none"/><use xlink:href="#ae" transform="matrix(1,0,0,1,390,620) translate(21.64999999999999 24.266666666666666)"/><use xlink:href="#A" transform="matrix(1,0,0,1,385,662.5) translate(0 17.1)"/><use xlink:href="#B" transform="matrix(1,0,0,1,385,694.5) translate(0 17.1)"/><use xlink:href="#k" transform="matrix(1,0,0,1,385,726.5) translate(0 17.1)"/><use xlink:href="#C" transform="matrix(1,0,0,1,385,758.5) translate(0 17.1)"/><use xlink:href="#D" transform="matrix(1,0,0,1,385,790.5) translate(0 17.1)"/><use xlink:href="#af" transform="matrix(1,0,0,1,385,822.5) translate(0 17.1)"/><use xlink:href="#ag" transform="matrix(1,0,0,1,385,854.5) translate(0 17.1)"/><use xlink:href="#ah" transform="matrix(1,0,0,1,385,886.5) translate(0 17.1)"/><path d="M281 532h459V428h220.18" stroke="#000" stroke-width="2" fill="none"/><path fill="#fff"/><path d="M282 542h-2v-20h2z"/><path fill="#fff"/><path d="M281 533h-20v-2h20z"/><path d="M978.55 438l-20-10 20-10z" fill="#fff"/><path d="M979 418.9l-18.2 9.1 18.2 9.1-.9 1.8-21.78-10.9 21.8-10.9z"/><path fill="#fff"/><path d="M978.55 429h-20v-2h20z"/><path d="M281 564h459v124h220.18" stroke="#000" stroke-width="2" fill="none"/><path fill="#fff"/><path d="M282 574h-2v-20h2z"/><path fill="#fff"/><path d="M281 565h-20v-2h20z"/><path d="M978.55 698l-20-10 20-10z" fill="#fff"/><path d="M979 678.9l-18.2 9.1 18.2 9.1-.9 1.8-21.78-10.9 21.8-10.9z"/><path fill="#fff"/><path d="M978.55 689h-20v-2h20z"/><path d="M160 423V135.88h199" stroke="#000" stroke-width="2" fill="none"/><path fill="#fff"/><path d="M170 424h-20v-2h20z"/><path fill="#fff"/><path d="M161 443h-2v-20h2z"/><path fill="#fff"/><path d="M360 145.88h-2v-20h2z"/><path fill="#fff"/><path d="M379 136.88h-20v-2h20z"/><path d="M700 80h200v136H700z" fill="#fff"/><path d="M700 80h200v40H700z" fill="#ccc"/><path d="M700 80h200v136H700zM700 120h200" stroke="#000" stroke-width="2" fill="none"/><use xlink:href="#ai" transform="matrix(1,0,0,1,710,80) translate(52.05 23.6)"/><use xlink:href="#n" transform="matrix(1,0,0,1,705,122.5) translate(0 17.1)"/><use xlink:href="#D" transform="matrix(1,0,0,1,705,154.5) translate(0 17.1)"/><use xlink:href="#j" transform="matrix(1,0,0,1,705,186.5) translate(0 17.1)"/><path d="M1009.12 159v-23h-89.3" stroke="#000" stroke-width="2" fill="none"/><path fill="#fff"/><path d="M1019.12 160h-20v-2h20z"/><path fill="#fff"/><path d="M1010.12 179h-2v-20h2z"/><path d="M901.45 126l20 10-20 10z" fill="#fff"/><path d="M923.68 136l-21.8 10.9-.88-1.8 18.2-9.1-18.2-9.1.9-1.8z"/><path fill="#fff"/><path d="M921.45 137h-20v-2h20z"/><path d="M601 135.88h39v.12h40.18" stroke="#000" stroke-width="2" fill="none"/><path fill="#fff"/><path d="M602 145.88h-2v-20h2z"/><path fill="#fff"/><path d="M601 136.88h-20v-2h20z"/><path d="M698.55 146l-20-10 20-10z" fill="#fff"/><path d="M699 126.9l-18.2 9.1 18.2 9.1-.9 1.8-21.78-10.9 21.8-10.9z"/><path fill="#fff"/><path d="M698.55 137h-20v-2h20z"/><path d="M700 960h200v136H700z" fill="#fff"/><path d="M700 960h200v40H700z" fill="#ccc"/><path d="M700 960h200v136H700zM700 1000h200" stroke="#000" stroke-width="2" fill="none"/><use xlink:href="#aj" transform="matrix(1,0,0,1,710,960) translate(54.55 23.6)"/><use xlink:href="#y" transform="matrix(1,0,0,1,705,1002.5) translate(0 17.1)"/><use xlink:href="#ak" transform="matrix(1,0,0,1,705,1034.5) translate(0 17.1)"/><use xlink:href="#o" transform="matrix(1,0,0,1,705,1066.5) translate(0 17.1)"/><path d="M601 1015.88h39v.12h40.18" stroke="#000" stroke-width="2" fill="none"/><path fill="#fff"/><path d="M602 1025.88h-2v-20h2z"/><path fill="#fff"/><path d="M601 1016.88h-20v-2h20z"/><path d="M698.55 1026l-20-10 20-10z" fill="#fff"/><path d="M699 1006.9l-18.2 9.1 18.2 9.1-.9 1.8-21.78-10.9 21.8-10.9z"/><path fill="#fff"/><path d="M698.55 1017h-20v-2h20z"/><path d="M1023.16 1013v35H919.82" stroke="#000" stroke-width="2" fill="none"/><path fill="#fff"/><path d="M1033.16 1014h-20v-2h20z"/><path fill="#fff"/><path d="M1024.16 1013h-2v-20h2z"/><path d="M901.45 1038l20 10-20 10z" fill="#fff"/><path d="M923.68 1048l-21.8 10.9-.88-1.8 18.2-9.1-18.2-9.1.9-1.8z"/><path fill="#fff"/><path d="M921.45 1049h-20v-2h20z"/><path d="M1300 535.6h200v168h-200z" fill="#fff"/><path d="M1300 535.6h200v40h-200z" fill="#ccc"/><path d="M1300 535.6h200v168h-200zM1300 575.6h200" stroke="#000" stroke-width="2" fill="none"/><use xlink:href="#al" transform="matrix(1,0,0,1,1310,535.5999999999999) translate(28.574999999999996 23.6)"/><use xlink:href="#J" transform="matrix(1,0,0,1,1305,578.0999999999999) translate(0 17.1)"/><use xlink:href="#c" transform="matrix(1,0,0,1,1305,610.0999999999999) translate(0 17.1)"/><use xlink:href="#K" transform="matrix(1,0,0,1,1305,642.0999999999999) translate(0 17.1)"/><use xlink:href="#o" transform="matrix(1,0,0,1,1305,674.0999999999999) translate(0 17.1)"/><path d="M1840 535.6h200v168h-200z" fill="#fff"/><path d="M1840 535.6h200v40h-200z" fill="#ccc"/><path d="M1840 535.6h200v168h-200zM1840 575.6h200" stroke="#000" stroke-width="2" fill="none"/><use xlink:href="#am" transform="matrix(1,0,0,1,1850,535.5999999999999) translate(17.674999999999997 23.6)"/><use xlink:href="#O" transform="matrix(1,0,0,1,1845,578.0999999999999) translate(0 17.1)"/><use xlink:href="#c" transform="matrix(1,0,0,1,1845,610.0999999999999) translate(0 17.1)"/><use xlink:href="#k" transform="matrix(1,0,0,1,1845,642.0999999999999) translate(0 17.1)"/><use xlink:href="#q" transform="matrix(1,0,0,1,1845,674.0999999999999) translate(0 17.1)"/><path d="M1300 1096h200v136h-200z" fill="#fff"/><path d="M1300 1096h200v40h-200z" fill="#ccc"/><path d="M1300 1096h200v136h-200zM1300 1136h200" stroke="#000" stroke-width="2" fill="none"/><use xlink:href="#an" transform="matrix(1,0,0,1,1310,1096) translate(11.074999999999989 23.6)"/><use xlink:href="#x" transform="matrix(1,0,0,1,1305,1138.5) translate(0 17.1)"/><use xlink:href="#ao" transform="matrix(1,0,0,1,1305,1170.5) translate(0 17.1)"/><use xlink:href="#o" transform="matrix(1,0,0,1,1305,1202.5) translate(0 17.1)"/><path d="M1539 1151.88h-19.18" stroke="#000" stroke-width="2" fill="none"/><path fill="#fff"/><path d="M1540 1161.88h-2v-20h2z"/><path fill="#fff"/><path d="M1559 1152.88h-20v-2h20z"/><path d="M1501.45 1141.88l20 10-20 10z" fill="#fff"/><path d="M1523.68 1151.88l-21.8 10.9-.88-1.8 18.2-9.1-18.2-9.1.9-1.8z"/><path fill="#fff"/><path d="M1521.45 1152.88h-20v-2h20z"/><path d="M1300 60h200v136h-200z" fill="#fff"/><path d="M1300 60h200v40h-200z" fill="#ccc"/><path d="M1300 60h200v136h-200zM1300 100h200" stroke="#000" stroke-width="2" fill="none"/><use xlink:href="#ap" transform="matrix(1,0,0,1,1310,60) translate(56.025 23.6)"/><use xlink:href="#r" transform="matrix(1,0,0,1,1305,102.5) translate(0 17.1)"/><use xlink:href="#j" transform="matrix(1,0,0,1,1305,134.5) translate(0 17.1)"/><use xlink:href="#Q" transform="matrix(1,0,0,1,1305,166.5) translate(0 17.1)"/><path d="M1279 116h-199v44.18" stroke="#000" stroke-width="2" fill="none"/><path fill="#fff"/><path d="M1280 126h-2v-20h2z"/><path fill="#fff"/><path d="M1299 117h-20v-2h20z"/><path d="M1070 178.55l10-20 10 20z" fill="#fff"/><path d="M1090.9 178.1l-1.8.9-9.1-18.2-9.1 18.2-1.8-.9 10.9-21.78z"/><path fill="#fff"/><path d="M1081 178.55h-2v-20h2z"/><path d="M1539 116h-19.18" stroke="#000" stroke-width="2" fill="none"/><path fill="#fff"/><path d="M1540 126h-2v-20h2z"/><path fill="#fff"/><path d="M1559 117h-20v-2h20z"/><path d="M1501.45 106l20 10-20 10z" fill="#fff"/><path d="M1523.68 116l-21.8 10.9-.88-1.8 18.2-9.1-18.2-9.1.9-1.8z"/><path fill="#fff"/><path d="M1521.45 117h-20v-2h20z"/><path d="M1560 276h200v136h-200z" fill="#fff"/><path d="M1560 276h200v40h-200z" fill="#ccc"/><path d="M1560 276h200v136h-200zM1560 316h200" stroke="#000" stroke-width="2" fill="none"/><use xlink:href="#aq" transform="matrix(1,0,0,1,1570,276) translate(-4.325000000000003 23.6)"/><use xlink:href="#q" transform="matrix(1,0,0,1,1565,318.5) translate(0 17.1)"/><use xlink:href="#o" transform="matrix(1,0,0,1,1565,350.5) translate(0 17.1)"/><use xlink:href="#O" transform="matrix(1,0,0,1,1565,382.5) translate(0 17.1)"/><path d="M1560 535.6h200v136h-200z" fill="#fff"/><path d="M1560 535.6h200v40h-200z" fill="#ccc"/><path d="M1560 535.6h200v136h-200zM1560 575.6h200" stroke="#000" stroke-width="2" fill="none"/><use xlink:href="#ar" transform="matrix(1,0,0,1,1570,535.5999999999999) translate(-1.2999999999999972 23.6)"/><use xlink:href="#q" transform="matrix(1,0,0,1,1565,578.0999999999999) translate(0 17.1)"/><use xlink:href="#o" transform="matrix(1,0,0,1,1565,610.0999999999999) translate(0 17.1)"/><use xlink:href="#O" transform="matrix(1,0,0,1,1565,642.0999999999999) translate(0 17.1)"/><path d="M1819 332h-39.18" stroke="#000" stroke-width="2" fill="none"/><path fill="#fff"/><path d="M1820 342h-2v-20h2z"/><path fill="#fff"/><path d="M1839 333h-20v-2h20z"/><path d="M1761.45 322l20 10-20 10z" fill="#fff"/><path d="M1783.68 332l-21.8 10.9-.88-1.8 18.2-9.1-18.2-9.1.9-1.8z"/><path fill="#fff"/><path d="M1781.45 333h-20v-2h20z"/><path d="M1819 623.6h-39.18" stroke="#000" stroke-width="2" fill="none"/><path fill="#fff"/><path d="M1820 633.6h-2v-20h2z"/><path fill="#fff"/><path d="M1839 624.6h-20v-2h20z"/><path d="M1761.45 613.6l20 10-20 10z" fill="#fff"/><path d="M1783.68 623.6l-21.8 10.9-.88-1.8 18.2-9.1-18.2-9.1.9-1.8z"/><path fill="#fff"/><path d="M1781.45 624.6h-20v-2h20z"/><defs><path d="M232-93c-1 65-40 97-104 97C67 4 28-28 28-90v-158h33c8 89-33 224 67 224 102 0 64-133 71-224h33v155" id="as"/><path d="M135-143c-3-34-86-38-87 0 15 53 115 12 119 90S17 21 10-45l28-5c4 36 97 45 98 0-10-56-113-15-118-90-4-57 82-63 122-42 12 7 21 19 24 35" id="at"/><path d="M84 4C-5 8 30-112 23-190h32v120c0 31 7 50 39 49 72-2 45-101 50-169h31l1 190h-30c-1-10 1-25-2-33-11 22-28 36-60 37" id="au"/><path d="M141-36C126-15 110 5 73 4 37 3 15-17 15-53c-1-64 63-63 125-63 3-35-9-54-41-54-24 1-41 7-42 31l-33-3c5-37 33-52 76-52 45 0 72 20 72 64v82c-1 20 7 32 28 27v20c-31 9-61-2-59-35zM48-53c0 20 12 33 32 33 41-3 63-29 60-74-43 2-92-5-92 41" id="av"/><path d="M114-163C36-179 61-72 57 0H25l-1-190h30c1 12-1 29 2 39 6-27 23-49 58-41v29" id="aw"/><path d="M24-231v-30h32v30H24zM24 0v-190h32V0H24" id="ax"/><path d="M100-194c62-1 85 37 85 99 1 63-27 99-86 99S16-35 15-95c0-66 28-99 85-99zM99-20c44 1 53-31 53-75 0-43-8-75-51-75s-53 32-53 75 10 74 51 75" id="ay"/><g id="a"><use transform="matrix(0.05,0,0,0.05,0,0)" xlink:href="#as"/><use transform="matrix(0.05,0,0,0.05,12.950000000000001,0)" xlink:href="#at"/><use transform="matrix(0.05,0,0,0.05,21.950000000000003,0)" xlink:href="#au"/><use transform="matrix(0.05,0,0,0.05,31.950000000000003,0)" xlink:href="#av"/><use transform="matrix(0.05,0,0,0.05,41.95,0)" xlink:href="#aw"/><use transform="matrix(0.05,0,0,0.05,47.900000000000006,0)" xlink:href="#ax"/><use transform="matrix(0.05,0,0,0.05,51.85,0)" xlink:href="#ay"/><use transform="matrix(0.05,0,0,0.05,61.85,0)" xlink:href="#at"/></g><path d="M33 0v-248h34V0H33" id="az"/><path d="M85-194c31 0 48 13 60 33l-1-100h32l1 261h-30c-2-10 0-23-3-31C134-8 116 4 85 4 32 4 16-35 15-94c0-66 23-100 70-100zm9 24c-40 0-46 34-46 75 0 40 6 74 45 74 42 0 51-32 51-76 0-42-9-74-50-73" id="aA"/><g id="b"><use transform="matrix(0.05,0,0,0.05,0,0)" xlink:href="#az"/><use transform="matrix(0.05,0,0,0.05,5,0)" xlink:href="#aA"/><use transform="matrix(0.05,0,0,0.05,15,0)" xlink:href="#as"/><use transform="matrix(0.05,0,0,0.05,27.950000000000003,0)" xlink:href="#at"/><use transform="matrix(0.05,0,0,0.05,36.95,0)" xlink:href="#au"/><use transform="matrix(0.05,0,0,0.05,46.95,0)" xlink:href="#av"/><use transform="matrix(0.05,0,0,0.05,56.95,0)" xlink:href="#aw"/><use transform="matrix(0.05,0,0,0.05,62.900000000000006,0)" xlink:href="#ax"/><use transform="matrix(0.05,0,0,0.05,66.85000000000001,0)" xlink:href="#ay"/></g><path d="M190 0L58-211 59 0H30v-248h39L202-35l-2-213h31V0h-41" id="aB"/><path d="M210-169c-67 3-38 105-44 169h-31v-121c0-29-5-50-35-48C34-165 62-65 56 0H25l-1-190h30c1 10-1 24 2 32 10-44 99-50 107 0 11-21 27-35 58-36 85-2 47 119 55 194h-31v-121c0-29-5-49-35-48" id="aC"/><path d="M115-194c53 0 69 39 70 98 0 66-23 100-70 100C84 3 66-7 56-30L54 0H23l1-261h32v101c10-23 28-34 59-34zm-8 174c40 0 45-34 45-75 0-40-5-75-45-74-42 0-51 32-51 76 0 43 10 73 51 73" id="aD"/><path d="M100-194c63 0 86 42 84 106H49c0 40 14 67 53 68 26 1 43-12 49-29l28 8c-11 28-37 45-77 45C44 4 14-33 15-96c1-61 26-98 85-98zm52 81c6-60-76-77-97-28-3 7-6 17-6 28h103" id="aE"/><g id="c"><use transform="matrix(0.05,0,0,0.05,0,0)" xlink:href="#aB"/><use transform="matrix(0.05,0,0,0.05,12.950000000000001,0)" xlink:href="#ay"/><use transform="matrix(0.05,0,0,0.05,22.950000000000003,0)" xlink:href="#aC"/><use transform="matrix(0.05,0,0,0.05,37.900000000000006,0)" xlink:href="#aD"/><use transform="matrix(0.05,0,0,0.05,47.900000000000006,0)" xlink:href="#aw"/><use transform="matrix(0.05,0,0,0.05,53.85,0)" xlink:href="#aE"/></g><path d="M205 0l-28-72H64L36 0H1l101-248h38L239 0h-34zm-38-99l-47-123c-12 45-31 82-46 123h93" id="aF"/><path d="M115-194c55 1 70 41 70 98S169 2 115 4C84 4 66-9 55-30l1 105H24l-1-265h31l2 30c10-21 28-34 59-34zm-8 174c40 0 45-34 45-75s-6-73-45-74c-42 0-51 32-51 76 0 43 10 73 51 73" id="aG"/><path d="M24 0v-261h32V0H24" id="aH"/><g id="d"><use transform="matrix(0.05,0,0,0.05,0,0)" xlink:href="#aF"/><use transform="matrix(0.05,0,0,0.05,12,0)" xlink:href="#aG"/><use transform="matrix(0.05,0,0,0.05,22,0)" xlink:href="#aE"/><use transform="matrix(0.05,0,0,0.05,32,0)" xlink:href="#aH"/><use transform="matrix(0.05,0,0,0.05,35.95,0)" xlink:href="#aH"/><use transform="matrix(0.05,0,0,0.05,39.900000000000006,0)" xlink:href="#ax"/><use transform="matrix(0.05,0,0,0.05,43.85000000000001,0)" xlink:href="#aA"/><use transform="matrix(0.05,0,0,0.05,53.85,0)" xlink:href="#ay"/></g><g id="e"><use transform="matrix(0.05,0,0,0.05,0,0)" xlink:href="#aF"/><use transform="matrix(0.05,0,0,0.05,12,0)" xlink:href="#aH"/><use transform="matrix(0.05,0,0,0.05,15.949999999999998,0)" xlink:href="#ax"/><use transform="matrix(0.05,0,0,0.05,19.9,0)" xlink:href="#av"/><use transform="matrix(0.05,0,0,0.05,29.899999999999995,0)" xlink:href="#at"/></g><path d="M240 0l2-218c-23 76-54 145-80 218h-23L58-218 59 0H30v-248h44l77 211c21-75 51-140 76-211h43V0h-30" id="aI"/><g id="f"><use transform="matrix(0.05,0,0,0.05,0,0)" xlink:href="#aI"/><use transform="matrix(0.05,0,0,0.05,14.950000000000001,0)" xlink:href="#av"/><use transform="matrix(0.05,0,0,0.05,24.950000000000003,0)" xlink:href="#ax"/><use transform="matrix(0.05,0,0,0.05,28.900000000000002,0)" xlink:href="#aH"/></g><path d="M63-220v92h138v28H63V0H30v-248h175v28H63" id="aJ"/><path d="M59-47c-2 24 18 29 38 22v24C64 9 27 4 27-40v-127H5v-23h24l9-43h21v43h35v23H59v120" id="aK"/><path d="M30-248c87 1 191-15 191 75 0 78-77 80-158 76V0H30v-248zm33 125c57 0 124 11 124-50 0-59-68-47-124-48v98" id="aL"/><path d="M101-234c-31-9-42 10-38 44h38v23H63V0H32v-167H5v-23h27c-7-52 17-82 69-68v24" id="aM"/><g id="g"><use transform="matrix(0.05,0,0,0.05,0,0)" xlink:href="#aJ"/><use transform="matrix(0.05,0,0,0.05,10.950000000000001,0)" xlink:href="#ay"/><use transform="matrix(0.05,0,0,0.05,20.950000000000003,0)" xlink:href="#aK"/><use transform="matrix(0.05,0,0,0.05,25.950000000000003,0)" xlink:href="#ay"/><use transform="matrix(0.05,0,0,0.05,35.95,0)" xlink:href="#aL"/><use transform="matrix(0.05,0,0,0.05,47.95,0)" xlink:href="#aE"/><use transform="matrix(0.05,0,0,0.05,57.95,0)" xlink:href="#aw"/><use transform="matrix(0.05,0,0,0.05,63.900000000000006,0)" xlink:href="#aM"/><use transform="matrix(0.05,0,0,0.05,68.9,0)" xlink:href="#ax"/><use transform="matrix(0.05,0,0,0.05,72.85000000000001,0)" xlink:href="#aH"/></g><path d="M30-248c118-7 216 8 213 122C240-48 200 0 122 0H30v-248zM63-27c89 8 146-16 146-99s-60-101-146-95v194" id="aN"/><path d="M96-169c-40 0-48 33-48 73s9 75 48 75c24 0 41-14 43-38l32 2c-6 37-31 61-74 61-59 0-76-41-82-99-10-93 101-131 147-64 4 7 5 14 7 22l-32 3c-4-21-16-35-41-35" id="aO"/><path d="M117-194c89-4 53 116 60 194h-32v-121c0-31-8-49-39-48C34-167 62-67 57 0H25l-1-190h30c1 10-1 24 2 32 11-22 29-35 61-36" id="aP"/><g id="h"><use transform="matrix(0.05,0,0,0.05,0,0)" xlink:href="#aN"/><use transform="matrix(0.05,0,0,0.05,12.950000000000001,0)" xlink:href="#ax"/><use transform="matrix(0.05,0,0,0.05,16.900000000000002,0)" xlink:href="#aw"/><use transform="matrix(0.05,0,0,0.05,22.85,0)" xlink:href="#aE"/><use transform="matrix(0.05,0,0,0.05,32.85,0)" xlink:href="#aO"/><use transform="matrix(0.05,0,0,0.05,41.85,0)" xlink:href="#aO"/><use transform="matrix(0.05,0,0,0.05,50.85,0)" xlink:href="#ax"/><use transform="matrix(0.05,0,0,0.05,54.800000000000004,0)" xlink:href="#ay"/><use transform="matrix(0.05,0,0,0.05,64.80000000000001,0)" xlink:href="#aP"/></g><g id="i"><use transform="matrix(0.05,0,0,0.05,0,0)" xlink:href="#aL"/><use transform="matrix(0.05,0,0,0.05,12,0)" xlink:href="#aH"/><use transform="matrix(0.05,0,0,0.05,15.949999999999998,0)" xlink:href="#av"/><use transform="matrix(0.05,0,0,0.05,25.950000000000003,0)" xlink:href="#aK"/><use transform="matrix(0.05,0,0,0.05,30.950000000000003,0)" xlink:href="#ay"/><use transform="matrix(0.05,0,0,0.05,40.95,0)" xlink:href="#at"/></g><g id="j"><use transform="matrix(0.05,0,0,0.05,0,0)" xlink:href="#az"/><use transform="matrix(0.05,0,0,0.05,5,0)" xlink:href="#aA"/><use transform="matrix(0.05,0,0,0.05,15,0)" xlink:href="#aL"/><use transform="matrix(0.05,0,0,0.05,27,0)" xlink:href="#aH"/><use transform="matrix(0.05,0,0,0.05,30.950000000000003,0)" xlink:href="#av"/><use transform="matrix(0.05,0,0,0.05,40.95,0)" xlink:href="#aK"/><use transform="matrix(0.05,0,0,0.05,45.95,0)" xlink:href="#ay"/></g><g id="k"><use transform="matrix(0.05,0,0,0.05,0,0)" xlink:href="#aN"/><use transform="matrix(0.05,0,0,0.05,12.950000000000001,0)" xlink:href="#aE"/><use transform="matrix(0.05,0,0,0.05,22.950000000000003,0)" xlink:href="#at"/><use transform="matrix(0.05,0,0,0.05,31.950000000000003,0)" xlink:href="#aO"/><use transform="matrix(0.05,0,0,0.05,40.95,0)" xlink:href="#aw"/><use transform="matrix(0.05,0,0,0.05,46.900000000000006,0)" xlink:href="#ax"/><use transform="matrix(0.05,0,0,0.05,50.85000000000001,0)" xlink:href="#aG"/><use transform="matrix(0.05,0,0,0.05,60.85,0)" xlink:href="#aO"/><use transform="matrix(0.05,0,0,0.05,69.85000000000001,0)" xlink:href="#ax"/><use transform="matrix(0.05,0,0,0.05,73.80000000000001,0)" xlink:href="#ay"/><use transform="matrix(0.05,0,0,0.05,83.80000000000001,0)" xlink:href="#aP"/></g><path d="M137 0h-34L2-248h35l83 218 83-218h36" id="aQ"/><g id="l"><use transform="matrix(0.05,0,0,0.05,0,0)" xlink:href="#aQ"/><use transform="matrix(0.05,0,0,0.05,10.65,0)" xlink:href="#av"/><use transform="matrix(0.05,0,0,0.05,20.65,0)" xlink:href="#aH"/><use transform="matrix(0.05,0,0,0.05,24.599999999999998,0)" xlink:href="#ay"/><use transform="matrix(0.05,0,0,0.05,34.599999999999994,0)" xlink:href="#aw"/><use transform="matrix(0.05,0,0,0.05,40.55,0)" xlink:href="#av"/><use transform="matrix(0.05,0,0,0.05,50.55,0)" xlink:href="#aO"/><use transform="matrix(0.05,0,0,0.05,59.54999999999999,0)" xlink:href="#ax"/><use transform="matrix(0.05,0,0,0.05,63.5,0)" xlink:href="#ay"/><use transform="matrix(0.05,0,0,0.05,73.5,0)" xlink:href="#aP"/></g><path d="M30 0v-248h33v221h125V0H30" id="aR"/><path d="M212-179c-10-28-35-45-73-45-59 0-87 40-87 99 0 60 29 101 89 101 43 0 62-24 78-52l27 14C228-24 195 4 139 4 59 4 22-46 18-125c-6-104 99-153 187-111 19 9 31 26 39 46" id="aS"/><g id="m"><use transform="matrix(0.05,0,0,0.05,0,0)" xlink:href="#aA"/><use transform="matrix(0.05,0,0,0.05,10,0)" xlink:href="#aR"/><use transform="matrix(0.05,0,0,0.05,20,0)" xlink:href="#ax"/><use transform="matrix(0.05,0,0,0.05,23.95,0)" xlink:href="#at"/><use transform="matrix(0.05,0,0,0.05,32.95,0)" xlink:href="#aK"/><use transform="matrix(0.05,0,0,0.05,37.95,0)" xlink:href="#av"/><use transform="matrix(0.05,0,0,0.05,47.95,0)" xlink:href="#aS"/><use transform="matrix(0.05,0,0,0.05,60.900000000000006,0)" xlink:href="#ay"/><use transform="matrix(0.05,0,0,0.05,70.9,0)" xlink:href="#aC"/><use transform="matrix(0.05,0,0,0.05,85.85000000000001,0)" xlink:href="#aE"/><use transform="matrix(0.05,0,0,0.05,95.85000000000001,0)" xlink:href="#aP"/><use transform="matrix(0.05,0,0,0.05,105.85000000000001,0)" xlink:href="#aK"/><use transform="matrix(0.05,0,0,0.05,110.85000000000001,0)" xlink:href="#av"/><use transform="matrix(0.05,0,0,0.05,120.85000000000001,0)" xlink:href="#aw"/><use transform="matrix(0.05,0,0,0.05,126.80000000000001,0)" xlink:href="#ax"/><use transform="matrix(0.05,0,0,0.05,130.75,0)" xlink:href="#ay"/></g><g id="n"><use transform="matrix(0.05,0,0,0.05,0,0)" xlink:href="#az"/><use transform="matrix(0.05,0,0,0.05,5,0)" xlink:href="#aA"/><use transform="matrix(0.05,0,0,0.05,15,0)" xlink:href="#az"/><use transform="matrix(0.05,0,0,0.05,20,0)" xlink:href="#aK"/><use transform="matrix(0.05,0,0,0.05,25,0)" xlink:href="#aE"/><use transform="matrix(0.05,0,0,0.05,35,0)" xlink:href="#aC"/><use transform="matrix(0.05,0,0,0.05,49.95,0)" xlink:href="#aL"/><use transform="matrix(0.05,0,0,0.05,61.95,0)" xlink:href="#aH"/><use transform="matrix(0.05,0,0,0.05,65.9,0)" xlink:href="#av"/><use transform="matrix(0.05,0,0,0.05,75.9,0)" xlink:href="#aK"/><use transform="matrix(0.05,0,0,0.05,80.9,0)" xlink:href="#ay"/></g><path d="M185-189c-5-48-123-54-124 2 14 75 158 14 163 119 3 78-121 87-175 55-17-10-28-26-33-46l33-7c5 56 141 63 141-1 0-78-155-14-162-118-5-82 145-84 179-34 5 7 8 16 11 25" id="aT"/><g id="o"><use transform="matrix(0.05,0,0,0.05,0,0)" xlink:href="#az"/><use transform="matrix(0.05,0,0,0.05,5,0)" xlink:href="#aA"/><use transform="matrix(0.05,0,0,0.05,15,0)" xlink:href="#aT"/><use transform="matrix(0.05,0,0,0.05,27,0)" xlink:href="#ax"/><use transform="matrix(0.05,0,0,0.05,30.950000000000003,0)" xlink:href="#aK"/><use transform="matrix(0.05,0,0,0.05,35.95,0)" xlink:href="#ax"/><use transform="matrix(0.05,0,0,0.05,39.900000000000006,0)" xlink:href="#ay"/></g><path d="M177-190C167-65 218 103 67 71c-23-6-38-20-44-43l32-5c15 47 100 32 89-28v-30C133-14 115 1 83 1 29 1 15-40 15-95c0-56 16-97 71-98 29-1 48 16 59 35 1-10 0-23 2-32h30zM94-22c36 0 50-32 50-73 0-42-14-75-50-75-39 0-46 34-46 75s6 73 46 73" id="aU"/><g id="p"><use transform="matrix(0.05,0,0,0.05,0,0)" xlink:href="#az"/><use transform="matrix(0.05,0,0,0.05,5,0)" xlink:href="#aA"/><use transform="matrix(0.05,0,0,0.05,15,0)" xlink:href="#az"/><use transform="matrix(0.05,0,0,0.05,20,0)" xlink:href="#aC"/><use transform="matrix(0.05,0,0,0.05,34.95,0)" xlink:href="#av"/><use transform="matrix(0.05,0,0,0.05,44.95,0)" xlink:href="#aU"/><use transform="matrix(0.05,0,0,0.05,54.95,0)" xlink:href="#aE"/><use transform="matrix(0.05,0,0,0.05,64.95,0)" xlink:href="#aP"/><use transform="matrix(0.05,0,0,0.05,74.95,0)" xlink:href="#aE"/><use transform="matrix(0.05,0,0,0.05,84.95,0)" xlink:href="#at"/></g><g id="q"><use transform="matrix(0.05,0,0,0.05,0,0)" xlink:href="#az"/><use transform="matrix(0.05,0,0,0.05,5,0)" xlink:href="#aA"/><use transform="matrix(0.05,0,0,0.05,15,0)" xlink:href="#aR"/><use transform="matrix(0.05,0,0,0.05,25,0)" xlink:href="#ax"/><use transform="matrix(0.05,0,0,0.05,28.950000000000003,0)" xlink:href="#at"/><use transform="matrix(0.05,0,0,0.05,37.95,0)" xlink:href="#aK"/><use transform="matrix(0.05,0,0,0.05,42.95,0)" xlink:href="#av"/><use transform="matrix(0.05,0,0,0.05,52.95,0)" xlink:href="#aS"/><use transform="matrix(0.05,0,0,0.05,65.9,0)" xlink:href="#av"/><use transform="matrix(0.05,0,0,0.05,75.9,0)" xlink:href="#aw"/><use transform="matrix(0.05,0,0,0.05,81.85000000000001,0)" xlink:href="#av"/><use transform="matrix(0.05,0,0,0.05,91.85000000000001,0)" xlink:href="#aO"/></g><g id="r"><use transform="matrix(0.05,0,0,0.05,0,0)" xlink:href="#az"/><use transform="matrix(0.05,0,0,0.05,5,0)" xlink:href="#aA"/><use transform="matrix(0.05,0,0,0.05,15,0)" xlink:href="#aR"/><use transform="matrix(0.05,0,0,0.05,25,0)" xlink:href="#ax"/><use transform="matrix(0.05,0,0,0.05,28.950000000000003,0)" xlink:href="#at"/><use transform="matrix(0.05,0,0,0.05,37.95,0)" xlink:href="#aK"/><use transform="matrix(0.05,0,0,0.05,42.95,0)" xlink:href="#av"/><use transform="matrix(0.05,0,0,0.05,52.95,0)" xlink:href="#az"/><use transform="matrix(0.05,0,0,0.05,57.95,0)" xlink:href="#aP"/><use transform="matrix(0.05,0,0,0.05,67.95,0)" xlink:href="#aM"/><use transform="matrix(0.05,0,0,0.05,72.95,0)" xlink:href="#ay"/></g><g id="s"><use transform="matrix(0.05,0,0,0.05,0,0)" xlink:href="#aT"/><use transform="matrix(0.05,0,0,0.05,12,0)" xlink:href="#az"/><use transform="matrix(0.05,0,0,0.05,17,0)" xlink:href="#aK"/><use transform="matrix(0.05,0,0,0.05,22,0)" xlink:href="#ax"/><use transform="matrix(0.05,0,0,0.05,25.950000000000003,0)" xlink:href="#ay"/><use transform="matrix(0.05,0,0,0.05,35.95,0)" xlink:href="#at"/></g><path d="M127-220V0H93v-220H8v-28h204v28h-85" id="aV"/><g id="t"><use transform="matrix(0.05,0,0,0.05,0,0)" xlink:href="#aV"/><use transform="matrix(0.05,0,0,0.05,8.950000000000001,0)" xlink:href="#aE"/><use transform="matrix(0.05,0,0,0.05,18.950000000000003,0)" xlink:href="#aH"/><use transform="matrix(0.05,0,0,0.05,22.900000000000002,0)" xlink:href="#aE"/><use transform="matrix(0.05,0,0,0.05,32.900000000000006,0)" xlink:href="#aM"/><use transform="matrix(0.05,0,0,0.05,37.900000000000006,0)" xlink:href="#ay"/><use transform="matrix(0.05,0,0,0.05,47.900000000000006,0)" xlink:href="#aP"/><use transform="matrix(0.05,0,0,0.05,57.900000000000006,0)" xlink:href="#ay"/></g><path d="M266 0h-40l-56-210L115 0H75L2-248h35L96-30l15-64 43-154h32l59 218 59-218h35" id="aW"/><g id="u"><use transform="matrix(0.05,0,0,0.05,0,0)" xlink:href="#aT"/><use transform="matrix(0.05,0,0,0.05,12,0)" xlink:href="#ax"/><use transform="matrix(0.05,0,0,0.05,15.949999999999998,0)" xlink:href="#aK"/><use transform="matrix(0.05,0,0,0.05,20.95,0)" xlink:href="#ax"/><use transform="matrix(0.05,0,0,0.05,24.9,0)" xlink:href="#ay"/><use transform="matrix(0.05,0,0,0.05,34.9,0)" xlink:href="#aW"/><use transform="matrix(0.05,0,0,0.05,51.5,0)" xlink:href="#aE"/><use transform="matrix(0.05,0,0,0.05,61.5,0)" xlink:href="#aD"/></g><path d="M197 0v-115H63V0H30v-248h33v105h134v-105h34V0h-34" id="aX"/><g id="v"><use transform="matrix(0.05,0,0,0.05,0,0)" xlink:href="#ax"/><use transform="matrix(0.05,0,0,0.05,3.95,0)" xlink:href="#aA"/><use transform="matrix(0.05,0,0,0.05,13.949999999999998,0)" xlink:href="#aX"/><use transform="matrix(0.05,0,0,0.05,26.899999999999995,0)" xlink:href="#ay"/><use transform="matrix(0.05,0,0,0.05,36.9,0)" xlink:href="#aw"/><use transform="matrix(0.05,0,0,0.05,42.85,0)" xlink:href="#av"/><use transform="matrix(0.05,0,0,0.05,52.85,0)" xlink:href="#aw"/><use transform="matrix(0.05,0,0,0.05,58.800000000000004,0)" xlink:href="#ax"/><use transform="matrix(0.05,0,0,0.05,62.75,0)" xlink:href="#ay"/></g><g id="w"><use transform="matrix(0.05,0,0,0.05,0,0)" xlink:href="#az"/><use transform="matrix(0.05,0,0,0.05,5,0)" xlink:href="#aA"/><use transform="matrix(0.05,0,0,0.05,15,0)" xlink:href="#as"/><use transform="matrix(0.05,0,0,0.05,27.950000000000003,0)" xlink:href="#aD"/><use transform="matrix(0.05,0,0,0.05,37.95,0)" xlink:href="#ax"/><use transform="matrix(0.05,0,0,0.05,41.900000000000006,0)" xlink:href="#aO"/><use transform="matrix(0.05,0,0,0.05,50.900000000000006,0)" xlink:href="#av"/><use transform="matrix(0.05,0,0,0.05,60.900000000000006,0)" xlink:href="#aO"/><use transform="matrix(0.05,0,0,0.05,69.9,0)" xlink:href="#ax"/><use transform="matrix(0.05,0,0,0.05,73.85000000000001,0)" xlink:href="#ay"/><use transform="matrix(0.05,0,0,0.05,83.85000000000001,0)" xlink:href="#aP"/></g><g id="x"><use transform="matrix(0.05,0,0,0.05,0,0)" xlink:href="#az"/><use transform="matrix(0.05,0,0,0.05,5,0)" xlink:href="#aA"/><use transform="matrix(0.05,0,0,0.05,15,0)" xlink:href="#aR"/><use transform="matrix(0.05,0,0,0.05,25,0)" xlink:href="#ax"/><use transform="matrix(0.05,0,0,0.05,28.950000000000003,0)" xlink:href="#at"/><use transform="matrix(0.05,0,0,0.05,37.95,0)" xlink:href="#aK"/><use transform="matrix(0.05,0,0,0.05,42.95,0)" xlink:href="#av"/><use transform="matrix(0.05,0,0,0.05,52.95,0)" xlink:href="#aI"/><use transform="matrix(0.05,0,0,0.05,67.9,0)" xlink:href="#aE"/><use transform="matrix(0.05,0,0,0.05,77.9,0)" xlink:href="#aA"/><use transform="matrix(0.05,0,0,0.05,87.9,0)" xlink:href="#ax"/><use transform="matrix(0.05,0,0,0.05,91.85000000000001,0)" xlink:href="#ay"/></g><g id="y"><use transform="matrix(0.05,0,0,0.05,0,0)" xlink:href="#az"/><use transform="matrix(0.05,0,0,0.05,5,0)" xlink:href="#aA"/><use transform="matrix(0.05,0,0,0.05,15,0)" xlink:href="#az"/><use transform="matrix(0.05,0,0,0.05,20,0)" xlink:href="#aK"/><use transform="matrix(0.05,0,0,0.05,25,0)" xlink:href="#aE"/><use transform="matrix(0.05,0,0,0.05,35,0)" xlink:href="#aC"/><use transform="matrix(0.05,0,0,0.05,49.95,0)" xlink:href="#aT"/><use transform="matrix(0.05,0,0,0.05,61.95,0)" xlink:href="#ax"/><use transform="matrix(0.05,0,0,0.05,65.9,0)" xlink:href="#aK"/><use transform="matrix(0.05,0,0,0.05,70.9,0)" xlink:href="#ax"/><use transform="matrix(0.05,0,0,0.05,74.85000000000001,0)" xlink:href="#ay"/></g><g id="z"><use transform="matrix(0.05,0,0,0.05,0,0)" xlink:href="#aS"/><use transform="matrix(0.05,0,0,0.05,12.950000000000001,0)" xlink:href="#ay"/><use transform="matrix(0.05,0,0,0.05,22.950000000000003,0)" xlink:href="#aC"/><use transform="matrix(0.05,0,0,0.05,37.900000000000006,0)" xlink:href="#aE"/><use transform="matrix(0.05,0,0,0.05,47.900000000000006,0)" xlink:href="#aP"/><use transform="matrix(0.05,0,0,0.05,57.900000000000006,0)" xlink:href="#aK"/><use transform="matrix(0.05,0,0,0.05,62.900000000000006,0)" xlink:href="#av"/><use transform="matrix(0.05,0,0,0.05,72.9,0)" xlink:href="#aw"/><use transform="matrix(0.05,0,0,0.05,78.85000000000001,0)" xlink:href="#ax"/><use transform="matrix(0.05,0,0,0.05,82.80000000000001,0)" xlink:href="#ay"/><use transform="matrix(0.05,0,0,0.05,92.80000000000001,0)" xlink:href="#at"/><use transform="matrix(0.05,0,0,0.05,101.80000000000001,0)" xlink:href="#aL"/><use transform="matrix(0.05,0,0,0.05,113.80000000000001,0)" xlink:href="#aH"/><use transform="matrix(0.05,0,0,0.05,117.75,0)" xlink:href="#av"/><use transform="matrix(0.05,0,0,0.05,127.75,0)" xlink:href="#aK"/><use transform="matrix(0.05,0,0,0.05,132.75,0)" xlink:href="#ay"/></g><g id="A"><use transform="matrix(0.05,0,0,0.05,0,0)" xlink:href="#az"/><use transform="matrix(0.05,0,0,0.05,5,0)" xlink:href="#aN"/><use transform="matrix(0.05,0,0,0.05,17.950000000000003,0)" xlink:href="#aS"/><use transform="matrix(0.05,0,0,0.05,30.900000000000006,0)" xlink:href="#ay"/><use transform="matrix(0.05,0,0,0.05,40.900000000000006,0)" xlink:href="#aC"/><use transform="matrix(0.05,0,0,0.05,55.85,0)" xlink:href="#aE"/><use transform="matrix(0.05,0,0,0.05,65.85000000000001,0)" xlink:href="#aP"/><use transform="matrix(0.05,0,0,0.05,75.85000000000001,0)" xlink:href="#aK"/><use transform="matrix(0.05,0,0,0.05,80.85000000000001,0)" xlink:href="#av"/><use transform="matrix(0.05,0,0,0.05,90.85000000000001,0)" xlink:href="#aw"/><use transform="matrix(0.05,0,0,0.05,96.80000000000001,0)" xlink:href="#ax"/><use transform="matrix(0.05,0,0,0.05,100.75000000000001,0)" xlink:href="#ay"/></g><g id="B"><use transform="matrix(0.05,0,0,0.05,0,0)" xlink:href="#az"/><use transform="matrix(0.05,0,0,0.05,5,0)" xlink:href="#aN"/><use transform="matrix(0.05,0,0,0.05,17.950000000000003,0)" xlink:href="#as"/><use transform="matrix(0.05,0,0,0.05,30.900000000000006,0)" xlink:href="#at"/><use transform="matrix(0.05,0,0,0.05,39.900000000000006,0)" xlink:href="#au"/><use transform="matrix(0.05,0,0,0.05,49.900000000000006,0)" xlink:href="#av"/><use transform="matrix(0.05,0,0,0.05,59.900000000000006,0)" xlink:href="#aw"/><use transform="matrix(0.05,0,0,0.05,65.85000000000001,0)" xlink:href="#ax"/><use transform="matrix(0.05,0,0,0.05,69.80000000000001,0)" xlink:href="#ay"/></g><path d="M106-169C34-169 62-67 57 0H25v-261h32l-1 103c12-21 28-36 61-36 89 0 53 116 60 194h-32v-121c2-32-8-49-39-48" id="aY"/><g id="C"><use transform="matrix(0.05,0,0,0.05,0,0)" xlink:href="#aJ"/><use transform="matrix(0.05,0,0,0.05,10.950000000000001,0)" xlink:href="#aE"/><use transform="matrix(0.05,0,0,0.05,20.950000000000003,0)" xlink:href="#aO"/><use transform="matrix(0.05,0,0,0.05,29.950000000000003,0)" xlink:href="#aY"/><use transform="matrix(0.05,0,0,0.05,39.95,0)" xlink:href="#av"/></g><g id="D"><use transform="matrix(0.05,0,0,0.05,0,0)" xlink:href="#az"/><use transform="matrix(0.05,0,0,0.05,5,0)" xlink:href="#aA"/><use transform="matrix(0.05,0,0,0.05,15,0)" xlink:href="#aR"/><use transform="matrix(0.05,0,0,0.05,25,0)" xlink:href="#ax"/><use transform="matrix(0.05,0,0,0.05,28.950000000000003,0)" xlink:href="#at"/><use transform="matrix(0.05,0,0,0.05,37.95,0)" xlink:href="#aK"/><use transform="matrix(0.05,0,0,0.05,42.95,0)" xlink:href="#av"/></g><path d="M108 0H70L1-190h34L89-25l56-165h34" id="aZ"/><g id="E"><use transform="matrix(0.05,0,0,0.05,0,0)" xlink:href="#aR"/><use transform="matrix(0.05,0,0,0.05,10,0)" xlink:href="#ax"/><use transform="matrix(0.05,0,0,0.05,13.949999999999998,0)" xlink:href="#at"/><use transform="matrix(0.05,0,0,0.05,22.95,0)" xlink:href="#aK"/><use transform="matrix(0.05,0,0,0.05,27.950000000000003,0)" xlink:href="#av"/><use transform="matrix(0.05,0,0,0.05,37.95,0)" xlink:href="#aT"/><use transform="matrix(0.05,0,0,0.05,49.95,0)" xlink:href="#ax"/><use transform="matrix(0.05,0,0,0.05,53.900000000000006,0)" xlink:href="#aK"/><use transform="matrix(0.05,0,0,0.05,58.900000000000006,0)" xlink:href="#ax"/><use transform="matrix(0.05,0,0,0.05,62.85,0)" xlink:href="#ay"/><use transform="matrix(0.05,0,0,0.05,72.85000000000001,0)" xlink:href="#at"/><use transform="matrix(0.05,0,0,0.05,81.85000000000001,0)" xlink:href="#aJ"/><use transform="matrix(0.05,0,0,0.05,92.80000000000001,0)" xlink:href="#av"/><use transform="matrix(0.05,0,0,0.05,102.80000000000001,0)" xlink:href="#aZ"/><use transform="matrix(0.05,0,0,0.05,111.80000000000001,0)" xlink:href="#ay"/><use transform="matrix(0.05,0,0,0.05,121.80000000000001,0)" xlink:href="#aw"/><use transform="matrix(0.05,0,0,0.05,127.75,0)" xlink:href="#ax"/><use transform="matrix(0.05,0,0,0.05,131.70000000000002,0)" xlink:href="#aK"/><use transform="matrix(0.05,0,0,0.05,136.70000000000002,0)" xlink:href="#ay"/><use transform="matrix(0.05,0,0,0.05,146.70000000000002,0)" xlink:href="#at"/></g><g id="F"><use transform="matrix(0.05,0,0,0.05,0,0)" xlink:href="#ax"/><use transform="matrix(0.05,0,0,0.05,3.95,0)" xlink:href="#aA"/><use transform="matrix(0.05,0,0,0.05,13.949999999999998,0)" xlink:href="#as"/><use transform="matrix(0.05,0,0,0.05,26.899999999999995,0)" xlink:href="#at"/><use transform="matrix(0.05,0,0,0.05,35.9,0)" xlink:href="#au"/><use transform="matrix(0.05,0,0,0.05,45.9,0)" xlink:href="#av"/><use transform="matrix(0.05,0,0,0.05,55.900000000000006,0)" xlink:href="#aw"/><use transform="matrix(0.05,0,0,0.05,61.85,0)" xlink:href="#ax"/><use transform="matrix(0.05,0,0,0.05,65.8,0)" xlink:href="#ay"/></g><g id="G"><use transform="matrix(0.05,0,0,0.05,0,0)" xlink:href="#ax"/><use transform="matrix(0.05,0,0,0.05,3.95,0)" xlink:href="#aA"/><use transform="matrix(0.05,0,0,0.05,13.949999999999998,0)" xlink:href="#aT"/><use transform="matrix(0.05,0,0,0.05,25.950000000000003,0)" xlink:href="#ax"/><use transform="matrix(0.05,0,0,0.05,29.899999999999995,0)" xlink:href="#aK"/><use transform="matrix(0.05,0,0,0.05,34.9,0)" xlink:href="#ax"/><use transform="matrix(0.05,0,0,0.05,38.85,0)" xlink:href="#ay"/></g><g id="H"><use transform="matrix(0.05,0,0,0.05,0,0)" xlink:href="#aR"/><use transform="matrix(0.05,0,0,0.05,10,0)" xlink:href="#ax"/><use transform="matrix(0.05,0,0,0.05,13.949999999999998,0)" xlink:href="#at"/><use transform="matrix(0.05,0,0,0.05,22.95,0)" xlink:href="#aK"/><use transform="matrix(0.05,0,0,0.05,27.950000000000003,0)" xlink:href="#av"/><use transform="matrix(0.05,0,0,0.05,37.95,0)" xlink:href="#aL"/><use transform="matrix(0.05,0,0,0.05,49.95,0)" xlink:href="#aH"/><use transform="matrix(0.05,0,0,0.05,53.900000000000006,0)" xlink:href="#av"/><use transform="matrix(0.05,0,0,0.05,63.900000000000006,0)" xlink:href="#aK"/><use transform="matrix(0.05,0,0,0.05,68.9,0)" xlink:href="#ay"/><use transform="matrix(0.05,0,0,0.05,78.9,0)" xlink:href="#at"/><use transform="matrix(0.05,0,0,0.05,87.9,0)" xlink:href="#aJ"/><use transform="matrix(0.05,0,0,0.05,98.85000000000001,0)" xlink:href="#av"/><use transform="matrix(0.05,0,0,0.05,108.85000000000001,0)" xlink:href="#aZ"/><use transform="matrix(0.05,0,0,0.05,117.85000000000001,0)" xlink:href="#ay"/><use transform="matrix(0.05,0,0,0.05,127.85000000000001,0)" xlink:href="#aw"/><use transform="matrix(0.05,0,0,0.05,133.8,0)" xlink:href="#ax"/><use transform="matrix(0.05,0,0,0.05,137.75,0)" xlink:href="#aK"/><use transform="matrix(0.05,0,0,0.05,142.75,0)" xlink:href="#ay"/><use transform="matrix(0.05,0,0,0.05,152.75,0)" xlink:href="#at"/></g><g id="I"><use transform="matrix(0.05,0,0,0.05,0,0)" xlink:href="#az"/><use transform="matrix(0.05,0,0,0.05,5,0)" xlink:href="#aC"/><use transform="matrix(0.05,0,0,0.05,19.950000000000003,0)" xlink:href="#av"/><use transform="matrix(0.05,0,0,0.05,29.950000000000003,0)" xlink:href="#aU"/><use transform="matrix(0.05,0,0,0.05,39.95,0)" xlink:href="#aE"/><use transform="matrix(0.05,0,0,0.05,49.95,0)" xlink:href="#aP"/><use transform="matrix(0.05,0,0,0.05,59.95,0)" xlink:href="#aE"/><use transform="matrix(0.05,0,0,0.05,69.95,0)" xlink:href="#at"/><use transform="matrix(0.05,0,0,0.05,78.95,0)" xlink:href="#aL"/><use transform="matrix(0.05,0,0,0.05,90.95,0)" xlink:href="#aH"/><use transform="matrix(0.05,0,0,0.05,94.9,0)" xlink:href="#av"/><use transform="matrix(0.05,0,0,0.05,104.9,0)" xlink:href="#aK"/><use transform="matrix(0.05,0,0,0.05,109.9,0)" xlink:href="#ay"/><use transform="matrix(0.05,0,0,0.05,119.9,0)" xlink:href="#at"/></g><g id="J"><use transform="matrix(0.05,0,0,0.05,0,0)" xlink:href="#az"/><use transform="matrix(0.05,0,0,0.05,5,0)" xlink:href="#aA"/><use transform="matrix(0.05,0,0,0.05,15,0)" xlink:href="#az"/><use transform="matrix(0.05,0,0,0.05,20,0)" xlink:href="#aC"/><use transform="matrix(0.05,0,0,0.05,34.95,0)" xlink:href="#av"/><use transform="matrix(0.05,0,0,0.05,44.95,0)" xlink:href="#aU"/><use transform="matrix(0.05,0,0,0.05,54.95,0)" xlink:href="#aE"/><use transform="matrix(0.05,0,0,0.05,64.95,0)" xlink:href="#aP"/></g><g id="K"><use transform="matrix(0.05,0,0,0.05,0,0)" xlink:href="#aN"/><use transform="matrix(0.05,0,0,0.05,12.950000000000001,0)" xlink:href="#av"/><use transform="matrix(0.05,0,0,0.05,22.950000000000003,0)" xlink:href="#aK"/><use transform="matrix(0.05,0,0,0.05,27.950000000000003,0)" xlink:href="#ay"/><use transform="matrix(0.05,0,0,0.05,37.95,0)" xlink:href="#at"/></g><g id="L"><use transform="matrix(0.05,0,0,0.05,0,0)" xlink:href="#aI"/><use transform="matrix(0.05,0,0,0.05,14.950000000000001,0)" xlink:href="#aE"/><use transform="matrix(0.05,0,0,0.05,24.950000000000003,0)" xlink:href="#aA"/><use transform="matrix(0.05,0,0,0.05,34.95,0)" xlink:href="#ax"/><use transform="matrix(0.05,0,0,0.05,38.900000000000006,0)" xlink:href="#ay"/><use transform="matrix(0.05,0,0,0.05,48.900000000000006,0)" xlink:href="#at"/><use transform="matrix(0.05,0,0,0.05,57.900000000000006,0)" xlink:href="#aL"/><use transform="matrix(0.05,0,0,0.05,69.9,0)" xlink:href="#av"/><use transform="matrix(0.05,0,0,0.05,79.9,0)" xlink:href="#aU"/><use transform="matrix(0.05,0,0,0.05,89.9,0)" xlink:href="#ay"/><use transform="matrix(0.05,0,0,0.05,99.9,0)" xlink:href="#at"/></g><g id="M"><use transform="matrix(0.05,0,0,0.05,0,0)" xlink:href="#ax"/><use transform="matrix(0.05,0,0,0.05,3.95,0)" xlink:href="#aA"/><use transform="matrix(0.05,0,0,0.05,13.949999999999998,0)" xlink:href="#aI"/><use transform="matrix(0.05,0,0,0.05,28.899999999999995,0)" xlink:href="#aE"/><use transform="matrix(0.05,0,0,0.05,38.9,0)" xlink:href="#aA"/><use transform="matrix(0.05,0,0,0.05,48.9,0)" xlink:href="#ax"/><use transform="matrix(0.05,0,0,0.05,52.85,0)" xlink:href="#ay"/></g><g id="N"><use transform="matrix(0.05,0,0,0.05,0,0)" xlink:href="#aS"/><use transform="matrix(0.05,0,0,0.05,12.950000000000001,0)" xlink:href="#av"/><use transform="matrix(0.05,0,0,0.05,22.950000000000003,0)" xlink:href="#aw"/><use transform="matrix(0.05,0,0,0.05,28.900000000000002,0)" xlink:href="#av"/><use transform="matrix(0.05,0,0,0.05,38.900000000000006,0)" xlink:href="#aO"/><use transform="matrix(0.05,0,0,0.05,47.900000000000006,0)" xlink:href="#aK"/><use transform="matrix(0.05,0,0,0.05,52.900000000000006,0)" xlink:href="#aE"/><use transform="matrix(0.05,0,0,0.05,62.900000000000006,0)" xlink:href="#aw"/><use transform="matrix(0.05,0,0,0.05,68.85000000000001,0)" xlink:href="#ax"/><use transform="matrix(0.05,0,0,0.05,72.80000000000001,0)" xlink:href="#at"/><use transform="matrix(0.05,0,0,0.05,81.80000000000001,0)" xlink:href="#aK"/><use transform="matrix(0.05,0,0,0.05,86.80000000000001,0)" xlink:href="#ax"/><use transform="matrix(0.05,0,0,0.05,90.75000000000001,0)" xlink:href="#aO"/><use transform="matrix(0.05,0,0,0.05,99.75000000000001,0)" xlink:href="#av"/><use transform="matrix(0.05,0,0,0.05,109.75,0)" xlink:href="#aL"/><use transform="matrix(0.05,0,0,0.05,121.75,0)" xlink:href="#aH"/><use transform="matrix(0.05,0,0,0.05,125.7,0)" xlink:href="#av"/><use transform="matrix(0.05,0,0,0.05,135.70000000000002,0)" xlink:href="#aK"/><use transform="matrix(0.05,0,0,0.05,140.70000000000002,0)" xlink:href="#ay"/></g><g id="O"><use transform="matrix(0.05,0,0,0.05,0,0)" xlink:href="#az"/><use transform="matrix(0.05,0,0,0.05,5,0)" xlink:href="#aA"/><use transform="matrix(0.05,0,0,0.05,15,0)" xlink:href="#aS"/><use transform="matrix(0.05,0,0,0.05,27.950000000000003,0)" xlink:href="#av"/><use transform="matrix(0.05,0,0,0.05,37.95,0)" xlink:href="#aw"/><use transform="matrix(0.05,0,0,0.05,43.900000000000006,0)" xlink:href="#av"/><use transform="matrix(0.05,0,0,0.05,53.900000000000006,0)" xlink:href="#aO"/><use transform="matrix(0.05,0,0,0.05,62.900000000000006,0)" xlink:href="#aK"/><use transform="matrix(0.05,0,0,0.05,67.9,0)" xlink:href="#aE"/><use transform="matrix(0.05,0,0,0.05,77.9,0)" xlink:href="#aw"/><use transform="matrix(0.05,0,0,0.05,83.85000000000001,0)" xlink:href="#ax"/><use transform="matrix(0.05,0,0,0.05,87.80000000000001,0)" xlink:href="#at"/><use transform="matrix(0.05,0,0,0.05,96.80000000000001,0)" xlink:href="#aK"/><use transform="matrix(0.05,0,0,0.05,101.80000000000001,0)" xlink:href="#ax"/><use transform="matrix(0.05,0,0,0.05,105.75,0)" xlink:href="#aO"/><use transform="matrix(0.05,0,0,0.05,114.75,0)" xlink:href="#av"/></g><g id="P"><use transform="matrix(0.05,0,0,0.05,0,0)" xlink:href="#az"/><use transform="matrix(0.05,0,0,0.05,5,0)" xlink:href="#aP"/><use transform="matrix(0.05,0,0,0.05,15,0)" xlink:href="#aM"/><use transform="matrix(0.05,0,0,0.05,20,0)" xlink:href="#ay"/><use transform="matrix(0.05,0,0,0.05,30,0)" xlink:href="#aB"/><use transform="matrix(0.05,0,0,0.05,42.95,0)" xlink:href="#au"/><use transform="matrix(0.05,0,0,0.05,52.95,0)" xlink:href="#aK"/><use transform="matrix(0.05,0,0,0.05,57.95,0)" xlink:href="#aw"/><use transform="matrix(0.05,0,0,0.05,63.900000000000006,0)" xlink:href="#ax"/><use transform="matrix(0.05,0,0,0.05,67.85000000000001,0)" xlink:href="#aO"/><use transform="matrix(0.05,0,0,0.05,76.85000000000001,0)" xlink:href="#ax"/><use transform="matrix(0.05,0,0,0.05,80.80000000000001,0)" xlink:href="#ay"/><use transform="matrix(0.05,0,0,0.05,90.80000000000001,0)" xlink:href="#aP"/><use transform="matrix(0.05,0,0,0.05,100.80000000000001,0)" xlink:href="#av"/><use transform="matrix(0.05,0,0,0.05,110.80000000000001,0)" xlink:href="#aH"/></g><g id="Q"><use transform="matrix(0.05,0,0,0.05,0,0)" xlink:href="#az"/><use transform="matrix(0.05,0,0,0.05,5,0)" xlink:href="#aA"/><use transform="matrix(0.05,0,0,0.05,15,0)" xlink:href="#az"/><use transform="matrix(0.05,0,0,0.05,20,0)" xlink:href="#aP"/><use transform="matrix(0.05,0,0,0.05,30,0)" xlink:href="#aM"/><use transform="matrix(0.05,0,0,0.05,35,0)" xlink:href="#ay"/></g><g id="R"><use transform="matrix(0.05,0,0,0.05,0,0)" xlink:href="#aQ"/><use transform="matrix(0.05,0,0,0.05,10.65,0)" xlink:href="#av"/><use transform="matrix(0.05,0,0,0.05,20.65,0)" xlink:href="#aH"/><use transform="matrix(0.05,0,0,0.05,24.599999999999998,0)" xlink:href="#ay"/><use transform="matrix(0.05,0,0,0.05,34.599999999999994,0)" xlink:href="#aw"/></g><g id="S"><use transform="matrix(0.05,0,0,0.05,0,0)" xlink:href="#as"/><use transform="matrix(0.05,0,0,0.05,12.950000000000001,0)" xlink:href="#aD"/><use transform="matrix(0.05,0,0,0.05,22.950000000000003,0)" xlink:href="#ax"/><use transform="matrix(0.05,0,0,0.05,26.900000000000002,0)" xlink:href="#aO"/><use transform="matrix(0.05,0,0,0.05,35.900000000000006,0)" xlink:href="#av"/><use transform="matrix(0.05,0,0,0.05,45.900000000000006,0)" xlink:href="#aO"/><use transform="matrix(0.05,0,0,0.05,54.900000000000006,0)" xlink:href="#ax"/><use transform="matrix(0.05,0,0,0.05,58.85,0)" xlink:href="#ay"/><use transform="matrix(0.05,0,0,0.05,68.85000000000001,0)" xlink:href="#aP"/></g><g id="T"><use transform="matrix(0.05,0,0,0.05,0,0)" xlink:href="#az"/><use transform="matrix(0.05,0,0,0.05,5,0)" xlink:href="#aA"/><use transform="matrix(0.05,0,0,0.05,15,0)" xlink:href="#aT"/><use transform="matrix(0.05,0,0,0.05,27,0)" xlink:href="#az"/><use transform="matrix(0.05,0,0,0.05,32,0)" xlink:href="#aK"/><use transform="matrix(0.05,0,0,0.05,37,0)" xlink:href="#ax"/><use transform="matrix(0.05,0,0,0.05,40.95,0)" xlink:href="#ay"/></g><path d="M195 0l-74-108L45 0H8l94-129-87-119h37l69 98 67-98h37l-84 118L233 0h-38" id="ba"/><g id="U"><use transform="matrix(0.05,0,0,0.05,0,0)" xlink:href="#aS"/><use transform="matrix(0.05,0,0,0.05,12.950000000000001,0)" xlink:href="#ay"/><use transform="matrix(0.05,0,0,0.05,22.950000000000003,0)" xlink:href="#ay"/><use transform="matrix(0.05,0,0,0.05,32.95,0)" xlink:href="#aw"/><use transform="matrix(0.05,0,0,0.05,38.900000000000006,0)" xlink:href="#ba"/></g><path d="M137-103V0h-34v-103L8-248h37l75 118 75-118h37" id="bb"/><g id="V"><use transform="matrix(0.05,0,0,0.05,0,0)" xlink:href="#aS"/><use transform="matrix(0.05,0,0,0.05,12.950000000000001,0)" xlink:href="#ay"/><use transform="matrix(0.05,0,0,0.05,22.950000000000003,0)" xlink:href="#ay"/><use transform="matrix(0.05,0,0,0.05,32.95,0)" xlink:href="#aw"/><use transform="matrix(0.05,0,0,0.05,38.900000000000006,0)" xlink:href="#bb"/></g><g id="W"><use transform="matrix(0.05,0,0,0.05,0,0)" xlink:href="#aX"/><use transform="matrix(0.05,0,0,0.05,12.950000000000001,0)" xlink:href="#ay"/><use transform="matrix(0.05,0,0,0.05,22.950000000000003,0)" xlink:href="#aw"/><use transform="matrix(0.05,0,0,0.05,28.900000000000002,0)" xlink:href="#av"/><use transform="matrix(0.05,0,0,0.05,38.900000000000006,0)" xlink:href="#aw"/><use transform="matrix(0.05,0,0,0.05,44.85000000000001,0)" xlink:href="#ax"/><use transform="matrix(0.05,0,0,0.05,48.80000000000001,0)" xlink:href="#ay"/></g><g id="X"><use transform="matrix(0.05,0,0,0.05,0,0)" xlink:href="#ax"/><use transform="matrix(0.05,0,0,0.05,3.95,0)" xlink:href="#aA"/><use transform="matrix(0.05,0,0,0.05,13.949999999999998,0)" xlink:href="#aN"/><use transform="matrix(0.05,0,0,0.05,26.899999999999995,0)" xlink:href="#ax"/><use transform="matrix(0.05,0,0,0.05,30.849999999999994,0)" xlink:href="#av"/></g><g id="Y"><use transform="matrix(0.05,0,0,0.05,0,0)" xlink:href="#aX"/><use transform="matrix(0.05,0,0,0.05,12.950000000000001,0)" xlink:href="#aN"/><use transform="matrix(0.05,0,0,0.05,25.900000000000002,0)" xlink:href="#aE"/><use transform="matrix(0.05,0,0,0.05,35.900000000000006,0)" xlink:href="#at"/><use transform="matrix(0.05,0,0,0.05,44.900000000000006,0)" xlink:href="#aA"/><use transform="matrix(0.05,0,0,0.05,54.900000000000006,0)" xlink:href="#aE"/></g><g id="Z"><use transform="matrix(0.05,0,0,0.05,0,0)" xlink:href="#aX"/><use transform="matrix(0.05,0,0,0.05,12.950000000000001,0)" xlink:href="#aX"/><use transform="matrix(0.05,0,0,0.05,25.900000000000002,0)" xlink:href="#av"/><use transform="matrix(0.05,0,0,0.05,35.900000000000006,0)" xlink:href="#at"/><use transform="matrix(0.05,0,0,0.05,44.900000000000006,0)" xlink:href="#aK"/><use transform="matrix(0.05,0,0,0.05,49.900000000000006,0)" xlink:href="#av"/></g><g id="aa"><use transform="matrix(0.05,0,0,0.05,0,0)" xlink:href="#aR"/><use transform="matrix(0.05,0,0,0.05,10,0)" xlink:href="#ax"/><use transform="matrix(0.05,0,0,0.05,13.949999999999998,0)" xlink:href="#at"/><use transform="matrix(0.05,0,0,0.05,22.95,0)" xlink:href="#aK"/><use transform="matrix(0.05,0,0,0.05,27.950000000000003,0)" xlink:href="#av"/><use transform="matrix(0.05,0,0,0.05,37.95,0)" xlink:href="#aS"/><use transform="matrix(0.05,0,0,0.05,50.900000000000006,0)" xlink:href="#ay"/><use transform="matrix(0.05,0,0,0.05,60.900000000000006,0)" xlink:href="#aC"/><use transform="matrix(0.05,0,0,0.05,75.85000000000001,0)" xlink:href="#aE"/><use transform="matrix(0.05,0,0,0.05,85.85000000000001,0)" xlink:href="#aP"/><use transform="matrix(0.05,0,0,0.05,95.85000000000001,0)" xlink:href="#aK"/><use transform="matrix(0.05,0,0,0.05,100.85000000000001,0)" xlink:href="#av"/><use transform="matrix(0.05,0,0,0.05,110.85000000000001,0)" xlink:href="#aw"/><use transform="matrix(0.05,0,0,0.05,116.80000000000001,0)" xlink:href="#ax"/><use transform="matrix(0.05,0,0,0.05,120.75,0)" xlink:href="#ay"/><use transform="matrix(0.05,0,0,0.05,130.75,0)" xlink:href="#aT"/><use transform="matrix(0.05,0,0,0.05,142.75,0)" xlink:href="#ax"/><use transform="matrix(0.05,0,0,0.05,146.7,0)" xlink:href="#aK"/><use transform="matrix(0.05,0,0,0.05,151.7,0)" xlink:href="#ax"/><use transform="matrix(0.05,0,0,0.05,155.64999999999998,0)" xlink:href="#ay"/></g><g id="ab"><use transform="matrix(0.05,0,0,0.05,0,0)" xlink:href="#az"/><use transform="matrix(0.05,0,0,0.05,5,0)" xlink:href="#aA"/><use transform="matrix(0.05,0,0,0.05,15,0)" xlink:href="#aS"/><use transform="matrix(0.05,0,0,0.05,27.950000000000003,0)" xlink:href="#ay"/><use transform="matrix(0.05,0,0,0.05,37.95,0)" xlink:href="#aC"/><use transform="matrix(0.05,0,0,0.05,52.900000000000006,0)" xlink:href="#aE"/><use transform="matrix(0.05,0,0,0.05,62.900000000000006,0)" xlink:href="#aP"/><use transform="matrix(0.05,0,0,0.05,72.9,0)" xlink:href="#aK"/><use transform="matrix(0.05,0,0,0.05,77.9,0)" xlink:href="#av"/><use transform="matrix(0.05,0,0,0.05,87.9,0)" xlink:href="#aw"/><use transform="matrix(0.05,0,0,0.05,93.85000000000001,0)" xlink:href="#ax"/><use transform="matrix(0.05,0,0,0.05,97.80000000000001,0)" xlink:href="#ay"/></g><g id="ac"><use transform="matrix(0.05,0,0,0.05,0,0)" xlink:href="#aR"/><use transform="matrix(0.05,0,0,0.05,10,0)" xlink:href="#ax"/><use transform="matrix(0.05,0,0,0.05,13.949999999999998,0)" xlink:href="#at"/><use transform="matrix(0.05,0,0,0.05,22.95,0)" xlink:href="#aK"/><use transform="matrix(0.05,0,0,0.05,27.950000000000003,0)" xlink:href="#av"/><use transform="matrix(0.05,0,0,0.05,37.95,0)" xlink:href="#aS"/><use transform="matrix(0.05,0,0,0.05,50.900000000000006,0)" xlink:href="#ay"/><use transform="matrix(0.05,0,0,0.05,60.900000000000006,0)" xlink:href="#aC"/><use transform="matrix(0.05,0,0,0.05,75.85000000000001,0)" xlink:href="#aE"/><use transform="matrix(0.05,0,0,0.05,85.85000000000001,0)" xlink:href="#aP"/><use transform="matrix(0.05,0,0,0.05,95.85000000000001,0)" xlink:href="#aK"/><use transform="matrix(0.05,0,0,0.05,100.85000000000001,0)" xlink:href="#av"/><use transform="matrix(0.05,0,0,0.05,110.85000000000001,0)" xlink:href="#aw"/><use transform="matrix(0.05,0,0,0.05,116.80000000000001,0)" xlink:href="#ax"/><use transform="matrix(0.05,0,0,0.05,120.75,0)" xlink:href="#ay"/><use transform="matrix(0.05,0,0,0.05,130.75,0)" xlink:href="#aL"/><use transform="matrix(0.05,0,0,0.05,142.75,0)" xlink:href="#aH"/><use transform="matrix(0.05,0,0,0.05,146.7,0)" xlink:href="#av"/><use transform="matrix(0.05,0,0,0.05,156.7,0)" xlink:href="#aK"/><use transform="matrix(0.05,0,0,0.05,161.7,0)" xlink:href="#ay"/></g><g id="ad"><use transform="matrix(0.05,0,0,0.05,0,0)" xlink:href="#az"/><use transform="matrix(0.05,0,0,0.05,5,0)" xlink:href="#aA"/><use transform="matrix(0.05,0,0,0.05,15,0)" xlink:href="#aR"/><use transform="matrix(0.05,0,0,0.05,25,0)" xlink:href="#ax"/><use transform="matrix(0.05,0,0,0.05,28.950000000000003,0)" xlink:href="#at"/><use transform="matrix(0.05,0,0,0.05,37.95,0)" xlink:href="#aK"/><use transform="matrix(0.05,0,0,0.05,42.95,0)" xlink:href="#av"/><use transform="matrix(0.05,0,0,0.05,52.95,0)" xlink:href="#aS"/><use transform="matrix(0.05,0,0,0.05,65.9,0)" xlink:href="#ay"/><use transform="matrix(0.05,0,0,0.05,75.9,0)" xlink:href="#aC"/><use transform="matrix(0.05,0,0,0.05,90.85000000000001,0)" xlink:href="#aE"/><use transform="matrix(0.05,0,0,0.05,100.85000000000001,0)" xlink:href="#aP"/><use transform="matrix(0.05,0,0,0.05,110.85000000000001,0)" xlink:href="#aK"/><use transform="matrix(0.05,0,0,0.05,115.85000000000001,0)" xlink:href="#av"/><use transform="matrix(0.05,0,0,0.05,125.85000000000001,0)" xlink:href="#aw"/><use transform="matrix(0.05,0,0,0.05,131.8,0)" xlink:href="#ax"/><use transform="matrix(0.05,0,0,0.05,135.75,0)" xlink:href="#ay"/></g><g id="ae"><use transform="matrix(0.05,0,0,0.05,0,0)" xlink:href="#aS"/><use transform="matrix(0.05,0,0,0.05,12.950000000000001,0)" xlink:href="#ay"/><use transform="matrix(0.05,0,0,0.05,22.950000000000003,0)" xlink:href="#aC"/><use transform="matrix(0.05,0,0,0.05,37.900000000000006,0)" xlink:href="#aE"/><use transform="matrix(0.05,0,0,0.05,47.900000000000006,0)" xlink:href="#aP"/><use transform="matrix(0.05,0,0,0.05,57.900000000000006,0)" xlink:href="#aK"/><use transform="matrix(0.05,0,0,0.05,62.900000000000006,0)" xlink:href="#av"/><use transform="matrix(0.05,0,0,0.05,72.9,0)" xlink:href="#aw"/><use transform="matrix(0.05,0,0,0.05,78.85000000000001,0)" xlink:href="#ax"/><use transform="matrix(0.05,0,0,0.05,82.80000000000001,0)" xlink:href="#ay"/><use transform="matrix(0.05,0,0,0.05,92.80000000000001,0)" xlink:href="#at"/><use transform="matrix(0.05,0,0,0.05,101.80000000000001,0)" xlink:href="#aT"/><use transform="matrix(0.05,0,0,0.05,113.80000000000001,0)" xlink:href="#ax"/><use transform="matrix(0.05,0,0,0.05,117.75,0)" xlink:href="#aK"/><use transform="matrix(0.05,0,0,0.05,122.75,0)" xlink:href="#ax"/><use transform="matrix(0.05,0,0,0.05,126.7,0)" xlink:href="#ay"/></g><g id="af"><use transform="matrix(0.05,0,0,0.05,0,0)" xlink:href="#aQ"/><use transform="matrix(0.05,0,0,0.05,10.65,0)" xlink:href="#av"/><use transform="matrix(0.05,0,0,0.05,20.65,0)" xlink:href="#aH"/><use transform="matrix(0.05,0,0,0.05,24.599999999999998,0)" xlink:href="#ay"/><use transform="matrix(0.05,0,0,0.05,34.599999999999994,0)" xlink:href="#aw"/><use transform="matrix(0.05,0,0,0.05,40.55,0)" xlink:href="#av"/><use transform="matrix(0.05,0,0,0.05,50.55,0)" xlink:href="#aO"/><use transform="matrix(0.05,0,0,0.05,59.54999999999999,0)" xlink:href="#ax"/><use transform="matrix(0.05,0,0,0.05,63.5,0)" xlink:href="#ay"/><use transform="matrix(0.05,0,0,0.05,73.5,0)" xlink:href="#aP"/><use transform="matrix(0.05,0,0,0.05,83.5,0)" xlink:href="#aT"/><use transform="matrix(0.05,0,0,0.05,95.5,0)" xlink:href="#aE"/><use transform="matrix(0.05,0,0,0.05,105.5,0)" xlink:href="#aw"/><use transform="matrix(0.05,0,0,0.05,111.45,0)" xlink:href="#aZ"/><use transform="matrix(0.05,0,0,0.05,120.45,0)" xlink:href="#ax"/><use transform="matrix(0.05,0,0,0.05,124.4,0)" xlink:href="#aO"/><use transform="matrix(0.05,0,0,0.05,133.4,0)" xlink:href="#ax"/><use transform="matrix(0.05,0,0,0.05,137.35,0)" xlink:href="#ay"/></g><g id="ag"><use transform="matrix(0.05,0,0,0.05,0,0)" xlink:href="#aQ"/><use transform="matrix(0.05,0,0,0.05,10.65,0)" xlink:href="#av"/><use transform="matrix(0.05,0,0,0.05,20.65,0)" xlink:href="#aH"/><use transform="matrix(0.05,0,0,0.05,24.599999999999998,0)" xlink:href="#ay"/><use transform="matrix(0.05,0,0,0.05,34.599999999999994,0)" xlink:href="#aw"/><use transform="matrix(0.05,0,0,0.05,40.55,0)" xlink:href="#av"/><use transform="matrix(0.05,0,0,0.05,50.55,0)" xlink:href="#aO"/><use transform="matrix(0.05,0,0,0.05,59.54999999999999,0)" xlink:href="#ax"/><use transform="matrix(0.05,0,0,0.05,63.5,0)" xlink:href="#ay"/><use transform="matrix(0.05,0,0,0.05,73.5,0)" xlink:href="#aP"/><use transform="matrix(0.05,0,0,0.05,83.5,0)" xlink:href="#aL"/><use transform="matrix(0.05,0,0,0.05,95.5,0)" xlink:href="#aw"/><use transform="matrix(0.05,0,0,0.05,101.45,0)" xlink:href="#aE"/><use transform="matrix(0.05,0,0,0.05,111.45,0)" xlink:href="#aO"/><use transform="matrix(0.05,0,0,0.05,120.45,0)" xlink:href="#ax"/><use transform="matrix(0.05,0,0,0.05,124.4,0)" xlink:href="#ay"/></g><g id="ah"><use transform="matrix(0.05,0,0,0.05,0,0)" xlink:href="#aQ"/><use transform="matrix(0.05,0,0,0.05,10.65,0)" xlink:href="#av"/><use transform="matrix(0.05,0,0,0.05,20.65,0)" xlink:href="#aH"/><use transform="matrix(0.05,0,0,0.05,24.599999999999998,0)" xlink:href="#ay"/><use transform="matrix(0.05,0,0,0.05,34.599999999999994,0)" xlink:href="#aw"/><use transform="matrix(0.05,0,0,0.05,40.55,0)" xlink:href="#av"/><use transform="matrix(0.05,0,0,0.05,50.55,0)" xlink:href="#aO"/><use transform="matrix(0.05,0,0,0.05,59.54999999999999,0)" xlink:href="#ax"/><use transform="matrix(0.05,0,0,0.05,63.5,0)" xlink:href="#ay"/><use transform="matrix(0.05,0,0,0.05,73.5,0)" xlink:href="#aP"/><use transform="matrix(0.05,0,0,0.05,83.5,0)" xlink:href="#aF"/><use transform="matrix(0.05,0,0,0.05,95.5,0)" xlink:href="#aC"/><use transform="matrix(0.05,0,0,0.05,110.45,0)" xlink:href="#aD"/><use transform="matrix(0.05,0,0,0.05,120.45,0)" xlink:href="#ax"/><use transform="matrix(0.05,0,0,0.05,124.4,0)" xlink:href="#aE"/><use transform="matrix(0.05,0,0,0.05,134.4,0)" xlink:href="#aP"/><use transform="matrix(0.05,0,0,0.05,144.4,0)" xlink:href="#aK"/><use transform="matrix(0.05,0,0,0.05,149.4,0)" xlink:href="#aE"/></g><g id="ai"><use transform="matrix(0.05,0,0,0.05,0,0)" xlink:href="#az"/><use transform="matrix(0.05,0,0,0.05,5,0)" xlink:href="#aK"/><use transform="matrix(0.05,0,0,0.05,10,0)" xlink:href="#aE"/><use transform="matrix(0.05,0,0,0.05,20,0)" xlink:href="#aC"/><use transform="matrix(0.05,0,0,0.05,34.95,0)" xlink:href="#aL"/><use transform="matrix(0.05,0,0,0.05,46.95,0)" xlink:href="#aH"/><use transform="matrix(0.05,0,0,0.05,50.900000000000006,0)" xlink:href="#av"/><use transform="matrix(0.05,0,0,0.05,60.900000000000006,0)" xlink:href="#aK"/><use transform="matrix(0.05,0,0,0.05,65.9,0)" xlink:href="#ay"/></g><g id="aj"><use transform="matrix(0.05,0,0,0.05,0,0)" xlink:href="#az"/><use transform="matrix(0.05,0,0,0.05,5,0)" xlink:href="#aK"/><use transform="matrix(0.05,0,0,0.05,10,0)" xlink:href="#aE"/><use transform="matrix(0.05,0,0,0.05,20,0)" xlink:href="#aC"/><use transform="matrix(0.05,0,0,0.05,34.95,0)" xlink:href="#aT"/><use transform="matrix(0.05,0,0,0.05,46.95,0)" xlink:href="#az"/><use transform="matrix(0.05,0,0,0.05,51.95,0)" xlink:href="#aK"/><use transform="matrix(0.05,0,0,0.05,56.95,0)" xlink:href="#ax"/><use transform="matrix(0.05,0,0,0.05,60.900000000000006,0)" xlink:href="#ay"/></g><g id="ak"><use transform="matrix(0.05,0,0,0.05,0,0)" xlink:href="#ax"/><use transform="matrix(0.05,0,0,0.05,3.95,0)" xlink:href="#aA"/><use transform="matrix(0.05,0,0,0.05,13.949999999999998,0)" xlink:href="#aR"/><use transform="matrix(0.05,0,0,0.05,23.95,0)" xlink:href="#ax"/><use transform="matrix(0.05,0,0,0.05,27.899999999999995,0)" xlink:href="#at"/><use transform="matrix(0.05,0,0,0.05,36.9,0)" xlink:href="#aK"/><use transform="matrix(0.05,0,0,0.05,41.9,0)" xlink:href="#av"/></g><g id="al"><use transform="matrix(0.05,0,0,0.05,0,0)" xlink:href="#az"/><use transform="matrix(0.05,0,0,0.05,5,0)" xlink:href="#aC"/><use transform="matrix(0.05,0,0,0.05,19.950000000000003,0)" xlink:href="#av"/><use transform="matrix(0.05,0,0,0.05,29.950000000000003,0)" xlink:href="#aU"/><use transform="matrix(0.05,0,0,0.05,39.95,0)" xlink:href="#aE"/><use transform="matrix(0.05,0,0,0.05,49.95,0)" xlink:href="#aP"/><use transform="matrix(0.05,0,0,0.05,59.95,0)" xlink:href="#aE"/><use transform="matrix(0.05,0,0,0.05,69.95,0)" xlink:href="#at"/><use transform="matrix(0.05,0,0,0.05,78.95,0)" xlink:href="#aT"/><use transform="matrix(0.05,0,0,0.05,90.95,0)" xlink:href="#ax"/><use transform="matrix(0.05,0,0,0.05,94.9,0)" xlink:href="#aK"/><use transform="matrix(0.05,0,0,0.05,99.9,0)" xlink:href="#ax"/><use transform="matrix(0.05,0,0,0.05,103.85000000000001,0)" xlink:href="#ay"/><use transform="matrix(0.05,0,0,0.05,113.85000000000001,0)" xlink:href="#at"/></g><g id="am"><use transform="matrix(0.05,0,0,0.05,0,0)" xlink:href="#aS"/><use transform="matrix(0.05,0,0,0.05,12.950000000000001,0)" xlink:href="#av"/><use transform="matrix(0.05,0,0,0.05,22.950000000000003,0)" xlink:href="#aw"/><use transform="matrix(0.05,0,0,0.05,28.900000000000002,0)" xlink:href="#av"/><use transform="matrix(0.05,0,0,0.05,38.900000000000006,0)" xlink:href="#aO"/><use transform="matrix(0.05,0,0,0.05,47.900000000000006,0)" xlink:href="#aK"/><use transform="matrix(0.05,0,0,0.05,52.900000000000006,0)" xlink:href="#aE"/><use transform="matrix(0.05,0,0,0.05,62.900000000000006,0)" xlink:href="#aw"/><use transform="matrix(0.05,0,0,0.05,68.85000000000001,0)" xlink:href="#ax"/><use transform="matrix(0.05,0,0,0.05,72.80000000000001,0)" xlink:href="#at"/><use transform="matrix(0.05,0,0,0.05,81.80000000000001,0)" xlink:href="#aK"/><use transform="matrix(0.05,0,0,0.05,86.80000000000001,0)" xlink:href="#ax"/><use transform="matrix(0.05,0,0,0.05,90.75000000000001,0)" xlink:href="#aO"/><use transform="matrix(0.05,0,0,0.05,99.75000000000001,0)" xlink:href="#av"/><use transform="matrix(0.05,0,0,0.05,109.75,0)" xlink:href="#aT"/><use transform="matrix(0.05,0,0,0.05,121.75,0)" xlink:href="#ax"/><use transform="matrix(0.05,0,0,0.05,125.7,0)" xlink:href="#aK"/><use transform="matrix(0.05,0,0,0.05,130.70000000000002,0)" xlink:href="#ax"/><use transform="matrix(0.05,0,0,0.05,134.65,0)" xlink:href="#ay"/></g><g id="an"><use transform="matrix(0.05,0,0,0.05,0,0)" xlink:href="#aR"/><use transform="matrix(0.05,0,0,0.05,10,0)" xlink:href="#ax"/><use transform="matrix(0.05,0,0,0.05,13.949999999999998,0)" xlink:href="#at"/><use transform="matrix(0.05,0,0,0.05,22.95,0)" xlink:href="#aK"/><use transform="matrix(0.05,0,0,0.05,27.950000000000003,0)" xlink:href="#av"/><use transform="matrix(0.05,0,0,0.05,37.95,0)" xlink:href="#aI"/><use transform="matrix(0.05,0,0,0.05,52.900000000000006,0)" xlink:href="#aE"/><use transform="matrix(0.05,0,0,0.05,62.900000000000006,0)" xlink:href="#aA"/><use transform="matrix(0.05,0,0,0.05,72.9,0)" xlink:href="#ax"/><use transform="matrix(0.05,0,0,0.05,76.85000000000001,0)" xlink:href="#ay"/><use transform="matrix(0.05,0,0,0.05,86.85000000000001,0)" xlink:href="#at"/><use transform="matrix(0.05,0,0,0.05,95.85000000000001,0)" xlink:href="#aA"/><use transform="matrix(0.05,0,0,0.05,105.85000000000001,0)" xlink:href="#aE"/><use transform="matrix(0.05,0,0,0.05,115.85000000000001,0)" xlink:href="#aL"/><use transform="matrix(0.05,0,0,0.05,127.85000000000001,0)" xlink:href="#av"/><use transform="matrix(0.05,0,0,0.05,137.85000000000002,0)" xlink:href="#aU"/><use transform="matrix(0.05,0,0,0.05,147.85000000000002,0)" xlink:href="#ay"/></g><g id="ao"><use transform="matrix(0.05,0,0,0.05,0,0)" xlink:href="#az"/><use transform="matrix(0.05,0,0,0.05,5,0)" xlink:href="#aA"/><use transform="matrix(0.05,0,0,0.05,15,0)" xlink:href="#aI"/><use transform="matrix(0.05,0,0,0.05,29.950000000000003,0)" xlink:href="#aE"/><use transform="matrix(0.05,0,0,0.05,39.95,0)" xlink:href="#aA"/><use transform="matrix(0.05,0,0,0.05,49.95,0)" xlink:href="#ax"/><use transform="matrix(0.05,0,0,0.05,53.900000000000006,0)" xlink:href="#ay"/></g><g id="ap"><use transform="matrix(0.05,0,0,0.05,0,0)" xlink:href="#aR"/><use transform="matrix(0.05,0,0,0.05,10,0)" xlink:href="#ax"/><use transform="matrix(0.05,0,0,0.05,13.949999999999998,0)" xlink:href="#at"/><use transform="matrix(0.05,0,0,0.05,22.95,0)" xlink:href="#aK"/><use transform="matrix(0.05,0,0,0.05,27.950000000000003,0)" xlink:href="#av"/><use transform="matrix(0.05,0,0,0.05,37.95,0)" xlink:href="#az"/><use transform="matrix(0.05,0,0,0.05,42.95,0)" xlink:href="#aP"/><use transform="matrix(0.05,0,0,0.05,52.95,0)" xlink:href="#aM"/><use transform="matrix(0.05,0,0,0.05,57.95,0)" xlink:href="#ay"/></g><g id="aq"><use transform="matrix(0.05,0,0,0.05,0,0)" xlink:href="#aR"/><use transform="matrix(0.05,0,0,0.05,10,0)" xlink:href="#ax"/><use transform="matrix(0.05,0,0,0.05,13.949999999999998,0)" xlink:href="#at"/><use transform="matrix(0.05,0,0,0.05,22.95,0)" xlink:href="#aK"/><use transform="matrix(0.05,0,0,0.05,27.950000000000003,0)" xlink:href="#av"/><use transform="matrix(0.05,0,0,0.05,37.95,0)" xlink:href="#aS"/><use transform="matrix(0.05,0,0,0.05,50.900000000000006,0)" xlink:href="#av"/><use transform="matrix(0.05,0,0,0.05,60.900000000000006,0)" xlink:href="#aw"/><use transform="matrix(0.05,0,0,0.05,66.85000000000001,0)" xlink:href="#av"/><use transform="matrix(0.05,0,0,0.05,76.85000000000001,0)" xlink:href="#aO"/><use transform="matrix(0.05,0,0,0.05,85.85000000000001,0)" xlink:href="#aK"/><use transform="matrix(0.05,0,0,0.05,90.85000000000001,0)" xlink:href="#aE"/><use transform="matrix(0.05,0,0,0.05,100.85000000000001,0)" xlink:href="#aw"/><use transform="matrix(0.05,0,0,0.05,106.80000000000001,0)" xlink:href="#ax"/><use transform="matrix(0.05,0,0,0.05,110.75,0)" xlink:href="#at"/><use transform="matrix(0.05,0,0,0.05,119.75,0)" xlink:href="#aK"/><use transform="matrix(0.05,0,0,0.05,124.75,0)" xlink:href="#ax"/><use transform="matrix(0.05,0,0,0.05,128.70000000000002,0)" xlink:href="#aO"/><use transform="matrix(0.05,0,0,0.05,137.70000000000002,0)" xlink:href="#av"/><use transform="matrix(0.05,0,0,0.05,147.70000000000002,0)" xlink:href="#aL"/><use transform="matrix(0.05,0,0,0.05,159.70000000000002,0)" xlink:href="#aH"/><use transform="matrix(0.05,0,0,0.05,163.65,0)" xlink:href="#av"/><use transform="matrix(0.05,0,0,0.05,173.65,0)" xlink:href="#aK"/><use transform="matrix(0.05,0,0,0.05,178.65,0)" xlink:href="#ay"/></g><g id="ar"><use transform="matrix(0.05,0,0,0.05,0,0)" xlink:href="#aR"/><use transform="matrix(0.05,0,0,0.05,10,0)" xlink:href="#ax"/><use transform="matrix(0.05,0,0,0.05,13.949999999999998,0)" xlink:href="#at"/><use transform="matrix(0.05,0,0,0.05,22.95,0)" xlink:href="#aK"/><use transform="matrix(0.05,0,0,0.05,27.950000000000003,0)" xlink:href="#av"/><use transform="matrix(0.05,0,0,0.05,37.95,0)" xlink:href="#aS"/><use transform="matrix(0.05,0,0,0.05,50.900000000000006,0)" xlink:href="#av"/><use transform="matrix(0.05,0,0,0.05,60.900000000000006,0)" xlink:href="#aw"/><use transform="matrix(0.05,0,0,0.05,66.85000000000001,0)" xlink:href="#av"/><use transform="matrix(0.05,0,0,0.05,76.85000000000001,0)" xlink:href="#aO"/><use transform="matrix(0.05,0,0,0.05,85.85000000000001,0)" xlink:href="#aK"/><use transform="matrix(0.05,0,0,0.05,90.85000000000001,0)" xlink:href="#aE"/><use transform="matrix(0.05,0,0,0.05,100.85000000000001,0)" xlink:href="#aw"/><use transform="matrix(0.05,0,0,0.05,106.80000000000001,0)" xlink:href="#ax"/><use transform="matrix(0.05,0,0,0.05,110.75,0)" xlink:href="#at"/><use transform="matrix(0.05,0,0,0.05,119.75,0)" xlink:href="#aK"/><use transform="matrix(0.05,0,0,0.05,124.75,0)" xlink:href="#ax"/><use transform="matrix(0.05,0,0,0.05,128.70000000000002,0)" xlink:href="#aO"/><use transform="matrix(0.05,0,0,0.05,137.70000000000002,0)" xlink:href="#av"/><use transform="matrix(0.05,0,0,0.05,147.70000000000002,0)" xlink:href="#aT"/><use transform="matrix(0.05,0,0,0.05,159.70000000000002,0)" xlink:href="#ax"/><use transform="matrix(0.05,0,0,0.05,163.65,0)" xlink:href="#aK"/><use transform="matrix(0.05,0,0,0.05,168.65,0)" xlink:href="#ax"/><use transform="matrix(0.05,0,0,0.05,172.6,0)" xlink:href="#ay"/></g></defs></g></svg>