<svg xmlns="http://www.w3.org/2000/svg" xmlns:xlink="http://www.w3.org/1999/xlink" xmlns:lucid="lucid" width="2205" height="1575"><g transform="translate(-53 0)" lucid:page-tab-id="0_0"><path d="M0 0h3892v1575.33H0z" fill="#fff"/><path d="M1435 95h734.37v437.83H185.33V69.5H1376zM185.33 95H1435" stroke="#000" stroke-width="2" fill="#fff"/><use xlink:href="#a" transform="matrix(1,0,0,1,193.33333333333348,69.49999999999997) translate(0 20.592592592592595)"/><path d="M1435 559h734.37v436.44H185.33v-462.6H1376zm-1249.67 0H1435" stroke="#000" stroke-width="2" fill="#fff"/><use xlink:href="#b" transform="matrix(1,0,0,1,193.33333333333314,532.8333333333334) translate(0 20.592592592592595)"/><path d="M1435 1021h734.37v507.64H185.33v-533.2H1376zm-1249.67 0H1435" stroke="#000" stroke-width="2" fill="#fff"/><use xlink:href="#c" transform="matrix(1,0,0,1,193.33333333333314,995.4417647892453) translate(0 20.592592592592595)"/><path d="M1847.8 764.5h278v120h-278z" stroke="#000" stroke-width="2" fill="#fff"/><use xlink:href="#d" transform="matrix(1,0,0,1,1855.8038176803602,772.5000000000001) translate(53.17500000000001 55.6)"/><path d="M295.64 834h254.83v120H295.64z" stroke="#000" stroke-width="2" fill="#fff"/><use xlink:href="#e" transform="matrix(1,0,0,1,303.6371510136937,842.0000000000002) translate(52.125 55.6)"/><path d="M1013.8 790.53h254.84v120H1013.8z" stroke="#000" stroke-width="2" fill="#fff"/><use xlink:href="#f" transform="matrix(1,0,0,1,1021.8038176803602,798.5317217720241) translate(55.14999999999999 55.6)"/><path d="M226.14 1228.2h160v120h-160z" stroke="#000" stroke-width="2" fill="#fff"/><use xlink:href="#g" transform="matrix(1,0,0,1,234.1371510136937,1236.1957842720442) translate(28.25 55.6)"/><path d="M457.8 1228.2h231.67v120H457.8z" stroke="#000" stroke-width="2" fill="#fff"/><use xlink:href="#h" transform="matrix(1,0,0,1,465.80381768036034,1236.1957842720442) translate(29.72500000000001 55.6)"/><path d="M758.97 1228.2h278v120h-278z" stroke="#000" stroke-width="2" fill="#fff"/><use xlink:href="#i" transform="matrix(1,0,0,1,766.9704843470658,1236.1957842720442) translate(50.22500000000001 55.6)"/><path d="M619.97 1051.82h160v120h-160z" stroke="#000" stroke-width="2" fill="#fff"/><use xlink:href="#j" transform="matrix(1,0,0,1,627.9704843470271,1059.8187745306448) translate(18.25 55.6)"/><path d="M1397.77 1053.56h160v120h-160z" stroke="#000" stroke-width="2" fill="#fff"/><use xlink:href="#k" transform="matrix(1,0,0,1,1405.7743020275038,1061.5646705799102) translate(21.275 55.6)"/><path d="M226.14 1051.82h160v120h-160z" stroke="#000" stroke-width="2" fill="#fff"/><use xlink:href="#l" transform="matrix(1,0,0,1,234.1371510136937,1059.8187745306448) translate(5.75 55.6)"/><path d="M1036.97 1052.52h160v120h-160z" stroke="#000" stroke-width="2" fill="#fff"/><use xlink:href="#m" transform="matrix(1,0,0,1,1044.9704843470272,1060.5186627534233) translate(9.274999999999991 55.6)"/><path d="M1384.47 1251h160v120h-160z" stroke="#000" stroke-width="2" fill="#fff"/><use xlink:href="#n" transform="matrix(1,0,0,1,1392.470484347027,1259) translate(-4.699999999999989 55.6)"/><path d="M1779.4 1251h160v120h-160z" stroke="#000" stroke-width="2" fill="#fff"/><use xlink:href="#o" transform="matrix(1,0,0,1,1787.3871510136937,1259) translate(7.799999999999997 55.6)"/><path d="M434.64 1051.82h160v120h-160z" stroke="#000" stroke-width="2" fill="#fff"/><use xlink:href="#p" transform="matrix(1,0,0,1,442.6371510136937,1059.8187745306448) translate(14.249999999999993 55.6)"/><path d="M1217.37 1053.56h160v120h-160z" stroke="#000" stroke-width="2" fill="#fff"/><use xlink:href="#q" transform="matrix(1,0,0,1,1225.3723931872848,1061.5646705799102) translate(17.27499999999999 55.6)"/><path d="M1569.8 1251h160v120h-160z" stroke="#000" stroke-width="2" fill="#fff"/><use xlink:href="#r" transform="matrix(1,0,0,1,1577.8038176803602,1259) translate(3.799999999999983 55.6)"/><path d="M828.47 1051.82h160v120h-160z" stroke="#000" stroke-width="2" fill="#fff"/><use xlink:href="#s" transform="matrix(1,0,0,1,836.4704843470271,1059.8187745306448) translate(18.275 55.6)"/><path d="M1578.18 1051.25h160v120h-160z" stroke="#000" stroke-width="2" fill="#fff"/><use xlink:href="#t" transform="matrix(1,0,0,1,1586.1762108677228,1059.2480039132436) translate(21.299999999999997 55.6)"/><path d="M1965.8 1251h160v120h-160z" stroke="#000" stroke-width="2" fill="#fff"/><use xlink:href="#u" transform="matrix(1,0,0,1,1973.8038176803602,1259) translate(7.824999999999989 55.6)"/><path d="M326.12 956v46.9h-19.98v46.1" stroke="#000" stroke-width="2" fill="none"/><path d="M327.12 956.03h-2V955h2z"/><path d="M295.96 1031.64l10.18 17.2 10.18-17.2M398.42 956v74.92h86.17V1049" stroke="#000" stroke-width="2" fill="none"/><path d="M399.42 956.03h-2V955h2z"/><path d="M474.4 1031.64l10.2 17.2 10.17-17.2M476.34 956v46.9H654v46.1" stroke="#000" stroke-width="2" fill="none"/><path d="M477.34 956.03h-2V955h2z"/><path d="M643.82 1031.64l10.18 17.2 10.18-17.2M501 956v17h377.25v76" stroke="#000" stroke-width="2" fill="none"/><path d="M502 956.03h-2V955h2z"/><path d="M868.07 1031.64l10.18 17.2 10.18-17.2M1094.9 912.53v137.17" stroke="#000" stroke-width="2" fill="none"/><path d="M1095.9 912.56h-2v-1.03h2z"/><path d="M1084.7 1032.34l10.2 17.2 10.17-17.2M1141.22 912.53V973h156.15v77.75" stroke="#000" stroke-width="2" fill="none"/><path d="M1142.22 912.56h-2v-1.03h2z"/><path d="M1287.2 1033.4l10.17 17.2 10.18-17.2M1199.93 912.53v37.3h223.53v100.92" stroke="#000" stroke-width="2" fill="none"/><path d="M1200.93 912.56h-2v-1.03h2z"/><path d="M1413.28 1033.4l10.18 17.2 10.18-17.2M1245.33 912.53v21h402.2v114.9" stroke="#000" stroke-width="2" fill="none"/><path d="M1246.33 912.56h-2v-1.03h2z"/><path d="M1637.36 1031.07l10.18 17.2 10.18-17.2M1956.17 886.5v329.75h111.33v31.93" stroke="#000" stroke-width="2" fill="none"/><path d="M1957.17 886.53h-2v-1.03h2z"/><path d="M2057.32 1230.82l10.18 17.22 10.18-17.22M1921.34 886.5v341.33h-19.47v20.35" stroke="#000" stroke-width="2" fill="none"/><path d="M1922.34 886.53h-2v-1.03h2z"/><path d="M1891.7 1230.82l10.17 17.22 10.18-17.22M1868.06 886.5v318.17h-358.34v43.5" stroke="#000" stroke-width="2" fill="none"/><path d="M1869.06 886.53h-2v-1.03h2z"/><path d="M1499.54 1230.82l10.18 17.22 10.18-17.22M1893.54 886.5V1228h-200.7v20.18" stroke="#000" stroke-width="2" fill="none"/><path d="M1894.54 886.53h-2v-1.03h2z"/><path d="M1682.65 1230.82l10.2 17.22 10.17-17.22" stroke="#000" stroke-width="2" fill="none"/><path d="M872.64 613.25h254.83v120H872.64z" stroke="#000" stroke-width="2" fill="#fff"/><use xlink:href="#v" transform="matrix(1,0,0,1,880.6371510136937,621.2465835531576) translate(48.64999999999999 55.6)"/><path d="M497.64 623.42h278v120h-278z" stroke="#000" stroke-width="2" fill="#fff"/><use xlink:href="#w" transform="matrix(1,0,0,1,505.63715101365545,631.4166666666667) translate(43.599999999999994 55.6)"/><path d="M1557.77 764.5h257.6v120h-257.6z" stroke="#000" stroke-width="2" fill="#fff"/><use xlink:href="#x" transform="matrix(1,0,0,1,1565.7743020275038,772.5000000000001) translate(44.125 55.6)"/><path d="M1815.37 355.44h160v120h-160z" stroke="#000" stroke-width="2" fill="#fff"/><use xlink:href="#y" transform="matrix(1,0,0,1,1823.3723931872848,363.43532942008994) translate(41.074999999999996 55.6)"/><path d="M1237.77 367.14h160v120h-160z" stroke="#000" stroke-width="2" fill="#fff"/><use xlink:href="#z" transform="matrix(1,0,0,1,1245.7743020275038,375.1354166666667) translate(54.55 55.6)"/><path d="M341.97 347.5h160v120h-160z" stroke="#000" stroke-width="2" fill="#fff"/><use xlink:href="#A" transform="matrix(1,0,0,1,349.9704843470271,355.5) translate(51.525 55.6)"/><path d="M379.04 469.5v361.68" stroke="#000" stroke-width="2" fill="none"/><path d="M380.04 469.53h-2v-1.03h2z"/><path d="M368.86 813.82l10.18 17.2 10.18-17.2M1895.37 477.44v136.48h91.43v147.76" stroke="#000" stroke-width="2" fill="none"/><path d="M1896.37 477.46h-2v-1.02h2z"/><path d="M1976.62 744.32l10.18 17.22 10.18-17.22M1317.77 489.14v252.2h-176.55v46.37" stroke="#000" stroke-width="2" fill="none"/><path d="M1318.77 489.16h-2v-1.02h2z"/><path d="M1131.04 770.35l10.18 17.22 10.18-17.22" stroke="#000" stroke-width="2" fill="none"/><path d="M1175.97 1251h160v120h-160z" stroke="#000" stroke-width="2" fill="#fff"/><use xlink:href="#B" transform="matrix(1,0,0,1,1183.970484347027,1259) translate(22.225 55.6)"/><path d="M1786.38 886.5v306.58h-561.76v55.1" stroke="#000" stroke-width="2" fill="none"/><path d="M1787.38 886.53h-2v-1.03h2z"/><path d="M1214.44 1230.82l10.18 17.22 10.18-17.22M1850.12 477.44v142.53h-106.57v141.7" stroke="#000" stroke-width="2" fill="none"/><path d="M1851.12 477.46h-2v-1.02h2z"/><path d="M1733.37 744.32l10.18 17.22 10.18-17.22M421.97 469.5v98.08h112.28v53.02" stroke="#000" stroke-width="2" fill="none"/><path d="M422.97 469.53h-2v-1.03h2z"/><path d="M524.07 603.24l10.18 17.2 10.18-17.2M457.8 469.5v28.58h542.25v112.35" stroke="#000" stroke-width="2" fill="none"/><path d="M458.8 469.53h-2v-1.03h2z"/><path d="M989.87 593.07l10.18 17.2 10.18-17.2M1277.9 489.14v184.1h-147.6" stroke="#000" stroke-width="2" fill="none"/><path d="M1278.9 489.16h-2v-1.02h2z"/><path d="M1147.65 663.07l-17.22 10.18 17.22 10.18M1235.77 427.14H673.25V620.6" stroke="#000" stroke-width="2" fill="none"/><path d="M1236.77 428.14h-1.02v-2h1.02z"/><path d="M663.07 603.24l10.18 17.2 10.18-17.2" stroke="#000" stroke-width="2" fill="none"/><defs><path d="M230 0l2-204L168 0h-37L68-204 70 0H24v-248h70l56 185 57-185h69V0h-46" id="C"/><path d="M110-194c64 0 96 36 96 99 0 64-35 99-97 99-61 0-95-36-95-99 0-62 34-99 96-99zm-1 164c35 0 45-28 45-65 0-40-10-65-43-65-34 0-45 26-45 65 0 36 10 65 43 65" id="D"/><path d="M88-194c31-1 46 15 58 34l-1-101h50l1 261h-48c-2-10 0-23-3-31C134-8 116 4 84 4 32 4 16-41 15-95c0-56 19-97 73-99zm17 164c33 0 40-30 41-66 1-37-9-64-41-64s-38 30-39 65c0 43 13 65 39 65" id="E"/><path d="M185-48c-13 30-37 53-82 52C43 2 14-33 14-96s30-98 90-98c62 0 83 45 84 108H66c0 31 8 55 39 56 18 0 30-7 34-22zm-45-69c5-46-57-63-70-21-2 6-4 13-4 21h74" id="F"/><path d="M25 0v-261h50V0H25" id="G"/><g id="a"><use transform="matrix(0.07150205761316872,0,0,0.07150205761316872,0,0)" xlink:href="#C"/><use transform="matrix(0.07150205761316872,0,0,0.07150205761316872,21.379115226337447,0)" xlink:href="#D"/><use transform="matrix(0.07150205761316872,0,0,0.07150205761316872,37.038065843621396,0)" xlink:href="#E"/><use transform="matrix(0.07150205761316872,0,0,0.07150205761316872,52.697016460905346,0)" xlink:href="#F"/><use transform="matrix(0.07150205761316872,0,0,0.07150205761316872,66.99742798353908,0)" xlink:href="#G"/><use transform="matrix(0.07150205761316872,0,0,0.07150205761316872,74.14763374485594,0)" xlink:href="#D"/></g><path d="M67-125c0 53 21 87 73 88 37 1 54-22 65-47l45 17C233-25 199 4 140 4 58 4 20-42 15-125 8-235 124-281 211-232c18 10 29 29 36 50l-46 12c-8-25-30-41-62-41-52 0-71 34-72 86" id="H"/><path d="M135-194c87-1 58 113 63 194h-50c-7-57 23-157-34-157-59 0-34 97-39 157H25l-1-190h47c2 12-1 28 3 38 12-26 28-41 61-42" id="I"/><path d="M115-3C79 11 28 4 28-45v-112H4v-33h27l15-45h31v45h36v33H77v99c-1 23 16 31 38 25v30" id="J"/><path d="M135-150c-39-12-60 13-60 57V0H25l-1-190h47c2 13-1 29 3 40 6-28 27-53 61-41v41" id="K"/><path d="M133-34C117-15 103 5 69 4 32 3 11-16 11-54c-1-60 55-63 116-61 1-26-3-47-28-47-18 1-26 9-28 27l-52-2c7-38 36-58 82-57s74 22 75 68l1 82c-1 14 12 18 25 15v27c-30 8-71 5-69-32zm-48 3c29 0 43-24 42-57-32 0-66-3-65 30 0 17 8 27 23 27" id="L"/><g id="b"><use transform="matrix(0.07150205761316872,0,0,0.07150205761316872,0,0)" xlink:href="#H"/><use transform="matrix(0.07150205761316872,0,0,0.07150205761316872,18.519032921810698,0)" xlink:href="#D"/><use transform="matrix(0.07150205761316872,0,0,0.07150205761316872,34.17798353909465,0)" xlink:href="#I"/><use transform="matrix(0.07150205761316872,0,0,0.07150205761316872,49.8369341563786,0)" xlink:href="#J"/><use transform="matrix(0.07150205761316872,0,0,0.07150205761316872,58.34567901234568,0)" xlink:href="#K"/><use transform="matrix(0.07150205761316872,0,0,0.07150205761316872,68.3559670781893,0)" xlink:href="#D"/><use transform="matrix(0.07150205761316872,0,0,0.07150205761316872,84.01491769547324,0)" xlink:href="#G"/><use transform="matrix(0.07150205761316872,0,0,0.07150205761316872,91.16512345679011,0)" xlink:href="#L"/><use transform="matrix(0.07150205761316872,0,0,0.07150205761316872,105.46553497942384,0)" xlink:href="#E"/><use transform="matrix(0.07150205761316872,0,0,0.07150205761316872,121.12448559670779,0)" xlink:href="#D"/><use transform="matrix(0.07150205761316872,0,0,0.07150205761316872,136.78343621399176,0)" xlink:href="#K"/></g><path d="M147 0H94L2-248h55l64 206c17-72 42-137 63-206h54" id="M"/><path d="M25-224v-37h50v37H25zM25 0v-190h50V0H25" id="N"/><path d="M137-138c1-29-70-34-71-4 15 46 118 7 119 86 1 83-164 76-172 9l43-7c4 19 20 25 44 25 33 8 57-30 24-41C81-84 22-81 20-136c-2-80 154-74 161-7" id="O"/><g id="c"><use transform="matrix(0.07150205761316872,0,0,0.07150205761316872,0,0)" xlink:href="#M"/><use transform="matrix(0.07150205761316872,0,0,0.07150205761316872,16.65997942386831,0)" xlink:href="#N"/><use transform="matrix(0.07150205761316872,0,0,0.07150205761316872,23.810185185185183,0)" xlink:href="#O"/><use transform="matrix(0.07150205761316872,0,0,0.07150205761316872,38.11059670781893,0)" xlink:href="#J"/><use transform="matrix(0.07150205761316872,0,0,0.07150205761316872,46.619341563786016,0)" xlink:href="#L"/></g><path d="M212-179c-10-28-35-45-73-45-59 0-87 40-87 99 0 60 29 101 89 101 43 0 62-24 78-52l27 14C228-24 195 4 139 4 59 4 22-46 18-125c-6-104 99-153 187-111 19 9 31 26 39 46" id="P"/><path d="M100-194c62-1 85 37 85 99 1 63-27 99-86 99S16-35 15-95c0-66 28-99 85-99zM99-20c44 1 53-31 53-75 0-43-8-75-51-75s-53 32-53 75 10 74 51 75" id="Q"/><path d="M117-194c89-4 53 116 60 194h-32v-121c0-31-8-49-39-48C34-167 62-67 57 0H25l-1-190h30c1 10-1 24 2 32 11-22 29-35 61-36" id="R"/><path d="M59-47c-2 24 18 29 38 22v24C64 9 27 4 27-40v-127H5v-23h24l9-43h21v43h35v23H59v120" id="S"/><path d="M114-163C36-179 61-72 57 0H25l-1-190h30c1 12-1 29 2 39 6-27 23-49 58-41v29" id="T"/><path d="M24 0v-261h32V0H24" id="U"/><path d="M141-36C126-15 110 5 73 4 37 3 15-17 15-53c-1-64 63-63 125-63 3-35-9-54-41-54-24 1-41 7-42 31l-33-3c5-37 33-52 76-52 45 0 72 20 72 64v82c-1 20 7 32 28 27v20c-31 9-61-2-59-35zM48-53c0 20 12 33 32 33 41-3 63-29 60-74-43 2-92-5-92 41" id="V"/><path d="M85-194c31 0 48 13 60 33l-1-100h32l1 261h-30c-2-10 0-23-3-31C134-8 116 4 85 4 32 4 16-35 15-94c0-66 23-100 70-100zm9 24c-40 0-46 34-46 75 0 40 6 74 45 74 42 0 51-32 51-76 0-42-9-74-50-73" id="W"/><path d="M232-93c-1 65-40 97-104 97C67 4 28-28 28-90v-158h33c8 89-33 224 67 224 102 0 64-133 71-224h33v155" id="X"/><path d="M135-143c-3-34-86-38-87 0 15 53 115 12 119 90S17 21 10-45l28-5c4 36 97 45 98 0-10-56-113-15-118-90-4-57 82-63 122-42 12 7 21 19 24 35" id="Y"/><path d="M84 4C-5 8 30-112 23-190h32v120c0 31 7 50 39 49 72-2 45-101 50-169h31l1 190h-30c-1-10 1-25-2-33-11 22-28 36-60 37" id="Z"/><path d="M24-231v-30h32v30H24zM24 0v-190h32V0H24" id="aa"/><g id="d"><use transform="matrix(0.05,0,0,0.05,0,0)" xlink:href="#P"/><use transform="matrix(0.05,0,0,0.05,12.950000000000001,0)" xlink:href="#Q"/><use transform="matrix(0.05,0,0,0.05,22.950000000000003,0)" xlink:href="#R"/><use transform="matrix(0.05,0,0,0.05,32.95,0)" xlink:href="#S"/><use transform="matrix(0.05,0,0,0.05,37.95,0)" xlink:href="#T"/><use transform="matrix(0.05,0,0,0.05,43.900000000000006,0)" xlink:href="#Q"/><use transform="matrix(0.05,0,0,0.05,53.900000000000006,0)" xlink:href="#U"/><use transform="matrix(0.05,0,0,0.05,57.85,0)" xlink:href="#V"/><use transform="matrix(0.05,0,0,0.05,67.85000000000001,0)" xlink:href="#W"/><use transform="matrix(0.05,0,0,0.05,77.85000000000001,0)" xlink:href="#Q"/><use transform="matrix(0.05,0,0,0.05,87.85000000000001,0)" xlink:href="#T"/><use transform="matrix(0.05,0,0,0.05,93.80000000000001,0)" xlink:href="#X"/><use transform="matrix(0.05,0,0,0.05,106.75,0)" xlink:href="#Y"/><use transform="matrix(0.05,0,0,0.05,115.75,0)" xlink:href="#Z"/><use transform="matrix(0.05,0,0,0.05,125.75,0)" xlink:href="#V"/><use transform="matrix(0.05,0,0,0.05,135.75,0)" xlink:href="#T"/><use transform="matrix(0.05,0,0,0.05,141.7,0)" xlink:href="#aa"/><use transform="matrix(0.05,0,0,0.05,145.64999999999998,0)" xlink:href="#Q"/></g><path d="M30-248c87 1 191-15 191 75 0 78-77 80-158 76V0H30v-248zm33 125c57 0 124 11 124-50 0-59-68-47-124-48v98" id="ab"/><g id="e"><use transform="matrix(0.05,0,0,0.05,0,0)" xlink:href="#P"/><use transform="matrix(0.05,0,0,0.05,12.950000000000001,0)" xlink:href="#Q"/><use transform="matrix(0.05,0,0,0.05,22.950000000000003,0)" xlink:href="#R"/><use transform="matrix(0.05,0,0,0.05,32.95,0)" xlink:href="#S"/><use transform="matrix(0.05,0,0,0.05,37.95,0)" xlink:href="#T"/><use transform="matrix(0.05,0,0,0.05,43.900000000000006,0)" xlink:href="#Q"/><use transform="matrix(0.05,0,0,0.05,53.900000000000006,0)" xlink:href="#U"/><use transform="matrix(0.05,0,0,0.05,57.85,0)" xlink:href="#V"/><use transform="matrix(0.05,0,0,0.05,67.85000000000001,0)" xlink:href="#W"/><use transform="matrix(0.05,0,0,0.05,77.85000000000001,0)" xlink:href="#Q"/><use transform="matrix(0.05,0,0,0.05,87.85000000000001,0)" xlink:href="#T"/><use transform="matrix(0.05,0,0,0.05,93.80000000000001,0)" xlink:href="#ab"/><use transform="matrix(0.05,0,0,0.05,105.80000000000001,0)" xlink:href="#U"/><use transform="matrix(0.05,0,0,0.05,109.75,0)" xlink:href="#V"/><use transform="matrix(0.05,0,0,0.05,119.75,0)" xlink:href="#S"/><use transform="matrix(0.05,0,0,0.05,124.75,0)" xlink:href="#Q"/></g><path d="M185-189c-5-48-123-54-124 2 14 75 158 14 163 119 3 78-121 87-175 55-17-10-28-26-33-46l33-7c5 56 141 63 141-1 0-78-155-14-162-118-5-82 145-84 179-34 5 7 8 16 11 25" id="ac"/><g id="f"><use transform="matrix(0.05,0,0,0.05,0,0)" xlink:href="#P"/><use transform="matrix(0.05,0,0,0.05,12.950000000000001,0)" xlink:href="#Q"/><use transform="matrix(0.05,0,0,0.05,22.950000000000003,0)" xlink:href="#R"/><use transform="matrix(0.05,0,0,0.05,32.95,0)" xlink:href="#S"/><use transform="matrix(0.05,0,0,0.05,37.95,0)" xlink:href="#T"/><use transform="matrix(0.05,0,0,0.05,43.900000000000006,0)" xlink:href="#Q"/><use transform="matrix(0.05,0,0,0.05,53.900000000000006,0)" xlink:href="#U"/><use transform="matrix(0.05,0,0,0.05,57.85,0)" xlink:href="#V"/><use transform="matrix(0.05,0,0,0.05,67.85000000000001,0)" xlink:href="#W"/><use transform="matrix(0.05,0,0,0.05,77.85000000000001,0)" xlink:href="#Q"/><use transform="matrix(0.05,0,0,0.05,87.85000000000001,0)" xlink:href="#T"/><use transform="matrix(0.05,0,0,0.05,93.80000000000001,0)" xlink:href="#ac"/><use transform="matrix(0.05,0,0,0.05,105.80000000000001,0)" xlink:href="#aa"/><use transform="matrix(0.05,0,0,0.05,109.75,0)" xlink:href="#S"/><use transform="matrix(0.05,0,0,0.05,114.75,0)" xlink:href="#aa"/><use transform="matrix(0.05,0,0,0.05,118.7,0)" xlink:href="#Q"/></g><path d="M137 0h-34L2-248h35l83 218 83-218h36" id="ad"/><path d="M197 0v-115H63V0H30v-248h33v105h134v-105h34V0h-34" id="ae"/><path d="M210-169c-67 3-38 105-44 169h-31v-121c0-29-5-50-35-48C34-165 62-65 56 0H25l-1-190h30c1 10-1 24 2 32 10-44 99-50 107 0 11-21 27-35 58-36 85-2 47 119 55 194h-31v-121c0-29-5-49-35-48" id="af"/><path d="M100-194c63 0 86 42 84 106H49c0 40 14 67 53 68 26 1 43-12 49-29l28 8c-11 28-37 45-77 45C44 4 14-33 15-96c1-61 26-98 85-98zm52 81c6-60-76-77-97-28-3 7-6 17-6 28h103" id="ag"/><g id="g"><use transform="matrix(0.05,0,0,0.05,0,0)" xlink:href="#ad"/><use transform="matrix(0.05,0,0,0.05,11.65,0)" xlink:href="#aa"/><use transform="matrix(0.05,0,0,0.05,15.600000000000001,0)" xlink:href="#Y"/><use transform="matrix(0.05,0,0,0.05,24.6,0)" xlink:href="#S"/><use transform="matrix(0.05,0,0,0.05,29.6,0)" xlink:href="#V"/><use transform="matrix(0.05,0,0,0.05,39.6,0)" xlink:href="#ae"/><use transform="matrix(0.05,0,0,0.05,52.550000000000004,0)" xlink:href="#Q"/><use transform="matrix(0.05,0,0,0.05,62.550000000000004,0)" xlink:href="#af"/><use transform="matrix(0.05,0,0,0.05,77.5,0)" xlink:href="#ag"/></g><path d="M160-131c35 5 61 23 61 61C221 17 115-2 30 0v-248c76 3 177-17 177 60 0 33-19 50-47 57zm-97-11c50-1 110 9 110-42 0-47-63-36-110-37v79zm0 115c55-2 124 14 124-45 0-56-70-42-124-44v89" id="ah"/><path d="M145-31C134-9 116 4 85 4 32 4 16-35 15-94c0-59 17-99 70-100 32-1 48 14 60 33 0-11-1-24 2-32h30l-1 268h-32zM93-21c41 0 51-33 51-76s-8-73-50-73c-40 0-46 35-46 75s5 74 45 74" id="ai"/><path d="M33 0v-248h34V0H33" id="aj"/><g id="h"><use transform="matrix(0.05,0,0,0.05,0,0)" xlink:href="#ad"/><use transform="matrix(0.05,0,0,0.05,11.65,0)" xlink:href="#aa"/><use transform="matrix(0.05,0,0,0.05,15.600000000000001,0)" xlink:href="#Y"/><use transform="matrix(0.05,0,0,0.05,24.6,0)" xlink:href="#S"/><use transform="matrix(0.05,0,0,0.05,29.6,0)" xlink:href="#V"/><use transform="matrix(0.05,0,0,0.05,39.6,0)" xlink:href="#ah"/><use transform="matrix(0.05,0,0,0.05,51.6,0)" xlink:href="#Z"/><use transform="matrix(0.05,0,0,0.05,61.6,0)" xlink:href="#Y"/><use transform="matrix(0.05,0,0,0.05,70.6,0)" xlink:href="#ai"/><use transform="matrix(0.05,0,0,0.05,80.6,0)" xlink:href="#Z"/><use transform="matrix(0.05,0,0,0.05,90.6,0)" xlink:href="#ag"/><use transform="matrix(0.05,0,0,0.05,100.6,0)" xlink:href="#W"/><use transform="matrix(0.05,0,0,0.05,110.59999999999998,0)" xlink:href="#V"/><use transform="matrix(0.05,0,0,0.05,120.59999999999998,0)" xlink:href="#ac"/><use transform="matrix(0.05,0,0,0.05,132.6,0)" xlink:href="#aj"/><use transform="matrix(0.05,0,0,0.05,137.6,0)" xlink:href="#S"/><use transform="matrix(0.05,0,0,0.05,142.6,0)" xlink:href="#aa"/><use transform="matrix(0.05,0,0,0.05,146.54999999999998,0)" xlink:href="#Q"/></g><g id="i"><use transform="matrix(0.05,0,0,0.05,0,0)" xlink:href="#ad"/><use transform="matrix(0.05,0,0,0.05,11.65,0)" xlink:href="#aa"/><use transform="matrix(0.05,0,0,0.05,15.600000000000001,0)" xlink:href="#Y"/><use transform="matrix(0.05,0,0,0.05,24.6,0)" xlink:href="#S"/><use transform="matrix(0.05,0,0,0.05,29.6,0)" xlink:href="#V"/><use transform="matrix(0.05,0,0,0.05,39.6,0)" xlink:href="#ah"/><use transform="matrix(0.05,0,0,0.05,51.6,0)" xlink:href="#Z"/><use transform="matrix(0.05,0,0,0.05,61.6,0)" xlink:href="#Y"/><use transform="matrix(0.05,0,0,0.05,70.6,0)" xlink:href="#ai"/><use transform="matrix(0.05,0,0,0.05,80.6,0)" xlink:href="#Z"/><use transform="matrix(0.05,0,0,0.05,90.6,0)" xlink:href="#ag"/><use transform="matrix(0.05,0,0,0.05,100.6,0)" xlink:href="#W"/><use transform="matrix(0.05,0,0,0.05,110.59999999999998,0)" xlink:href="#V"/><use transform="matrix(0.05,0,0,0.05,120.59999999999998,0)" xlink:href="#ab"/><use transform="matrix(0.05,0,0,0.05,132.6,0)" xlink:href="#U"/><use transform="matrix(0.05,0,0,0.05,136.54999999999998,0)" xlink:href="#V"/><use transform="matrix(0.05,0,0,0.05,146.54999999999998,0)" xlink:href="#S"/><use transform="matrix(0.05,0,0,0.05,151.54999999999998,0)" xlink:href="#Q"/></g><g id="j"><use transform="matrix(0.05,0,0,0.05,0,0)" xlink:href="#ad"/><use transform="matrix(0.05,0,0,0.05,11.65,0)" xlink:href="#aa"/><use transform="matrix(0.05,0,0,0.05,15.600000000000001,0)" xlink:href="#Y"/><use transform="matrix(0.05,0,0,0.05,24.6,0)" xlink:href="#S"/><use transform="matrix(0.05,0,0,0.05,29.6,0)" xlink:href="#V"/><use transform="matrix(0.05,0,0,0.05,39.6,0)" xlink:href="#ad"/><use transform="matrix(0.05,0,0,0.05,50.6,0)" xlink:href="#ag"/><use transform="matrix(0.05,0,0,0.05,60.6,0)" xlink:href="#T"/><use transform="matrix(0.05,0,0,0.05,66.55,0)" xlink:href="#ab"/><use transform="matrix(0.05,0,0,0.05,78.55,0)" xlink:href="#U"/><use transform="matrix(0.05,0,0,0.05,82.5,0)" xlink:href="#V"/><use transform="matrix(0.05,0,0,0.05,92.5,0)" xlink:href="#S"/><use transform="matrix(0.05,0,0,0.05,97.5,0)" xlink:href="#Q"/></g><g id="k"><use transform="matrix(0.05,0,0,0.05,0,0)" xlink:href="#ad"/><use transform="matrix(0.05,0,0,0.05,11.65,0)" xlink:href="#aa"/><use transform="matrix(0.05,0,0,0.05,15.600000000000001,0)" xlink:href="#Y"/><use transform="matrix(0.05,0,0,0.05,24.6,0)" xlink:href="#S"/><use transform="matrix(0.05,0,0,0.05,29.6,0)" xlink:href="#V"/><use transform="matrix(0.05,0,0,0.05,39.6,0)" xlink:href="#ad"/><use transform="matrix(0.05,0,0,0.05,50.6,0)" xlink:href="#ag"/><use transform="matrix(0.05,0,0,0.05,60.6,0)" xlink:href="#T"/><use transform="matrix(0.05,0,0,0.05,66.55,0)" xlink:href="#ac"/><use transform="matrix(0.05,0,0,0.05,78.55,0)" xlink:href="#aa"/><use transform="matrix(0.05,0,0,0.05,82.5,0)" xlink:href="#S"/><use transform="matrix(0.05,0,0,0.05,87.5,0)" xlink:href="#aa"/><use transform="matrix(0.05,0,0,0.05,91.45,0)" xlink:href="#Q"/></g><path d="M190 0L58-211 59 0H30v-248h39L202-35l-2-213h31V0h-41" id="ak"/><path d="M108 0H70L1-190h34L89-25l56-165h34" id="al"/><g id="l"><use transform="matrix(0.05,0,0,0.05,0,0)" xlink:href="#ad"/><use transform="matrix(0.05,0,0,0.05,11.65,0)" xlink:href="#aa"/><use transform="matrix(0.05,0,0,0.05,15.600000000000001,0)" xlink:href="#Y"/><use transform="matrix(0.05,0,0,0.05,24.6,0)" xlink:href="#S"/><use transform="matrix(0.05,0,0,0.05,29.6,0)" xlink:href="#V"/><use transform="matrix(0.05,0,0,0.05,39.6,0)" xlink:href="#ak"/><use transform="matrix(0.05,0,0,0.05,52.550000000000004,0)" xlink:href="#Z"/><use transform="matrix(0.05,0,0,0.05,62.550000000000004,0)" xlink:href="#ag"/><use transform="matrix(0.05,0,0,0.05,72.55000000000001,0)" xlink:href="#al"/><use transform="matrix(0.05,0,0,0.05,81.55000000000001,0)" xlink:href="#Q"/><use transform="matrix(0.05,0,0,0.05,91.55000000000001,0)" xlink:href="#ab"/><use transform="matrix(0.05,0,0,0.05,103.55000000000001,0)" xlink:href="#U"/><use transform="matrix(0.05,0,0,0.05,107.5,0)" xlink:href="#V"/><use transform="matrix(0.05,0,0,0.05,117.5,0)" xlink:href="#S"/><use transform="matrix(0.05,0,0,0.05,122.5,0)" xlink:href="#Q"/></g><g id="m"><use transform="matrix(0.05,0,0,0.05,0,0)" xlink:href="#ad"/><use transform="matrix(0.05,0,0,0.05,11.65,0)" xlink:href="#aa"/><use transform="matrix(0.05,0,0,0.05,15.600000000000001,0)" xlink:href="#Y"/><use transform="matrix(0.05,0,0,0.05,24.6,0)" xlink:href="#S"/><use transform="matrix(0.05,0,0,0.05,29.6,0)" xlink:href="#V"/><use transform="matrix(0.05,0,0,0.05,39.6,0)" xlink:href="#ak"/><use transform="matrix(0.05,0,0,0.05,52.550000000000004,0)" xlink:href="#Z"/><use transform="matrix(0.05,0,0,0.05,62.550000000000004,0)" xlink:href="#ag"/><use transform="matrix(0.05,0,0,0.05,72.55000000000001,0)" xlink:href="#al"/><use transform="matrix(0.05,0,0,0.05,81.55000000000001,0)" xlink:href="#Q"/><use transform="matrix(0.05,0,0,0.05,91.55000000000001,0)" xlink:href="#ac"/><use transform="matrix(0.05,0,0,0.05,103.55000000000001,0)" xlink:href="#aa"/><use transform="matrix(0.05,0,0,0.05,107.5,0)" xlink:href="#S"/><use transform="matrix(0.05,0,0,0.05,112.5,0)" xlink:href="#aa"/><use transform="matrix(0.05,0,0,0.05,116.45,0)" xlink:href="#Q"/></g><g id="n"><use transform="matrix(0.05,0,0,0.05,0,0)" xlink:href="#ad"/><use transform="matrix(0.05,0,0,0.05,11.65,0)" xlink:href="#aa"/><use transform="matrix(0.05,0,0,0.05,15.600000000000001,0)" xlink:href="#Y"/><use transform="matrix(0.05,0,0,0.05,24.6,0)" xlink:href="#S"/><use transform="matrix(0.05,0,0,0.05,29.6,0)" xlink:href="#V"/><use transform="matrix(0.05,0,0,0.05,39.6,0)" xlink:href="#ak"/><use transform="matrix(0.05,0,0,0.05,52.550000000000004,0)" xlink:href="#Z"/><use transform="matrix(0.05,0,0,0.05,62.550000000000004,0)" xlink:href="#ag"/><use transform="matrix(0.05,0,0,0.05,72.55000000000001,0)" xlink:href="#al"/><use transform="matrix(0.05,0,0,0.05,81.55000000000001,0)" xlink:href="#Q"/><use transform="matrix(0.05,0,0,0.05,91.55000000000001,0)" xlink:href="#X"/><use transform="matrix(0.05,0,0,0.05,104.5,0)" xlink:href="#Y"/><use transform="matrix(0.05,0,0,0.05,113.5,0)" xlink:href="#Z"/><use transform="matrix(0.05,0,0,0.05,123.5,0)" xlink:href="#V"/><use transform="matrix(0.05,0,0,0.05,133.5,0)" xlink:href="#T"/><use transform="matrix(0.05,0,0,0.05,139.45,0)" xlink:href="#aa"/><use transform="matrix(0.05,0,0,0.05,143.39999999999998,0)" xlink:href="#Q"/></g><g id="o"><use transform="matrix(0.05,0,0,0.05,0,0)" xlink:href="#ad"/><use transform="matrix(0.05,0,0,0.05,11.65,0)" xlink:href="#aa"/><use transform="matrix(0.05,0,0,0.05,15.600000000000001,0)" xlink:href="#Y"/><use transform="matrix(0.05,0,0,0.05,24.6,0)" xlink:href="#S"/><use transform="matrix(0.05,0,0,0.05,29.6,0)" xlink:href="#V"/><use transform="matrix(0.05,0,0,0.05,39.6,0)" xlink:href="#ad"/><use transform="matrix(0.05,0,0,0.05,50.6,0)" xlink:href="#ag"/><use transform="matrix(0.05,0,0,0.05,60.6,0)" xlink:href="#T"/><use transform="matrix(0.05,0,0,0.05,66.55,0)" xlink:href="#X"/><use transform="matrix(0.05,0,0,0.05,79.5,0)" xlink:href="#Y"/><use transform="matrix(0.05,0,0,0.05,88.5,0)" xlink:href="#Z"/><use transform="matrix(0.05,0,0,0.05,98.5,0)" xlink:href="#V"/><use transform="matrix(0.05,0,0,0.05,108.5,0)" xlink:href="#T"/><use transform="matrix(0.05,0,0,0.05,114.45,0)" xlink:href="#aa"/><use transform="matrix(0.05,0,0,0.05,118.4,0)" xlink:href="#Q"/></g><path d="M240 0l2-218c-23 76-54 145-80 218h-23L58-218 59 0H30v-248h44l77 211c21-75 51-140 76-211h43V0h-30" id="am"/><g id="p"><use transform="matrix(0.05,0,0,0.05,0,0)" xlink:href="#ad"/><use transform="matrix(0.05,0,0,0.05,11.65,0)" xlink:href="#aa"/><use transform="matrix(0.05,0,0,0.05,15.600000000000001,0)" xlink:href="#Y"/><use transform="matrix(0.05,0,0,0.05,24.6,0)" xlink:href="#S"/><use transform="matrix(0.05,0,0,0.05,29.6,0)" xlink:href="#V"/><use transform="matrix(0.05,0,0,0.05,39.6,0)" xlink:href="#am"/><use transform="matrix(0.05,0,0,0.05,54.550000000000004,0)" xlink:href="#Q"/><use transform="matrix(0.05,0,0,0.05,64.55000000000001,0)" xlink:href="#W"/><use transform="matrix(0.05,0,0,0.05,74.55000000000001,0)" xlink:href="#ab"/><use transform="matrix(0.05,0,0,0.05,86.55000000000001,0)" xlink:href="#U"/><use transform="matrix(0.05,0,0,0.05,90.50000000000001,0)" xlink:href="#V"/><use transform="matrix(0.05,0,0,0.05,100.50000000000001,0)" xlink:href="#S"/><use transform="matrix(0.05,0,0,0.05,105.5,0)" xlink:href="#Q"/></g><g id="q"><use transform="matrix(0.05,0,0,0.05,0,0)" xlink:href="#ad"/><use transform="matrix(0.05,0,0,0.05,11.65,0)" xlink:href="#aa"/><use transform="matrix(0.05,0,0,0.05,15.600000000000001,0)" xlink:href="#Y"/><use transform="matrix(0.05,0,0,0.05,24.6,0)" xlink:href="#S"/><use transform="matrix(0.05,0,0,0.05,29.6,0)" xlink:href="#V"/><use transform="matrix(0.05,0,0,0.05,39.6,0)" xlink:href="#am"/><use transform="matrix(0.05,0,0,0.05,54.550000000000004,0)" xlink:href="#Q"/><use transform="matrix(0.05,0,0,0.05,64.55000000000001,0)" xlink:href="#W"/><use transform="matrix(0.05,0,0,0.05,74.55000000000001,0)" xlink:href="#ac"/><use transform="matrix(0.05,0,0,0.05,86.55000000000001,0)" xlink:href="#aa"/><use transform="matrix(0.05,0,0,0.05,90.50000000000001,0)" xlink:href="#S"/><use transform="matrix(0.05,0,0,0.05,95.50000000000001,0)" xlink:href="#aa"/><use transform="matrix(0.05,0,0,0.05,99.45000000000002,0)" xlink:href="#Q"/></g><g id="r"><use transform="matrix(0.05,0,0,0.05,0,0)" xlink:href="#ad"/><use transform="matrix(0.05,0,0,0.05,11.65,0)" xlink:href="#aa"/><use transform="matrix(0.05,0,0,0.05,15.600000000000001,0)" xlink:href="#Y"/><use transform="matrix(0.05,0,0,0.05,24.6,0)" xlink:href="#S"/><use transform="matrix(0.05,0,0,0.05,29.6,0)" xlink:href="#V"/><use transform="matrix(0.05,0,0,0.05,39.6,0)" xlink:href="#am"/><use transform="matrix(0.05,0,0,0.05,54.550000000000004,0)" xlink:href="#Q"/><use transform="matrix(0.05,0,0,0.05,64.55000000000001,0)" xlink:href="#W"/><use transform="matrix(0.05,0,0,0.05,74.55000000000001,0)" xlink:href="#X"/><use transform="matrix(0.05,0,0,0.05,87.50000000000001,0)" xlink:href="#Y"/><use transform="matrix(0.05,0,0,0.05,96.50000000000001,0)" xlink:href="#Z"/><use transform="matrix(0.05,0,0,0.05,106.5,0)" xlink:href="#V"/><use transform="matrix(0.05,0,0,0.05,116.5,0)" xlink:href="#T"/><use transform="matrix(0.05,0,0,0.05,122.45,0)" xlink:href="#aa"/><use transform="matrix(0.05,0,0,0.05,126.40000000000003,0)" xlink:href="#Q"/></g><path d="M30-248c118-7 216 8 213 122C240-48 200 0 122 0H30v-248zM63-27c89 8 146-16 146-99s-60-101-146-95v194" id="an"/><g id="s"><use transform="matrix(0.05,0,0,0.05,0,0)" xlink:href="#ad"/><use transform="matrix(0.05,0,0,0.05,11.65,0)" xlink:href="#aa"/><use transform="matrix(0.05,0,0,0.05,15.600000000000001,0)" xlink:href="#Y"/><use transform="matrix(0.05,0,0,0.05,24.6,0)" xlink:href="#S"/><use transform="matrix(0.05,0,0,0.05,29.6,0)" xlink:href="#V"/><use transform="matrix(0.05,0,0,0.05,39.6,0)" xlink:href="#an"/><use transform="matrix(0.05,0,0,0.05,52.550000000000004,0)" xlink:href="#ag"/><use transform="matrix(0.05,0,0,0.05,62.550000000000004,0)" xlink:href="#U"/><use transform="matrix(0.05,0,0,0.05,66.5,0)" xlink:href="#ab"/><use transform="matrix(0.05,0,0,0.05,78.5,0)" xlink:href="#U"/><use transform="matrix(0.05,0,0,0.05,82.45,0)" xlink:href="#V"/><use transform="matrix(0.05,0,0,0.05,92.45,0)" xlink:href="#S"/><use transform="matrix(0.05,0,0,0.05,97.45,0)" xlink:href="#Q"/></g><g id="t"><use transform="matrix(0.05,0,0,0.05,0,0)" xlink:href="#ad"/><use transform="matrix(0.05,0,0,0.05,11.65,0)" xlink:href="#aa"/><use transform="matrix(0.05,0,0,0.05,15.600000000000001,0)" xlink:href="#Y"/><use transform="matrix(0.05,0,0,0.05,24.6,0)" xlink:href="#S"/><use transform="matrix(0.05,0,0,0.05,29.6,0)" xlink:href="#V"/><use transform="matrix(0.05,0,0,0.05,39.6,0)" xlink:href="#an"/><use transform="matrix(0.05,0,0,0.05,52.550000000000004,0)" xlink:href="#ag"/><use transform="matrix(0.05,0,0,0.05,62.550000000000004,0)" xlink:href="#U"/><use transform="matrix(0.05,0,0,0.05,66.5,0)" xlink:href="#ac"/><use transform="matrix(0.05,0,0,0.05,78.5,0)" xlink:href="#aa"/><use transform="matrix(0.05,0,0,0.05,82.45,0)" xlink:href="#S"/><use transform="matrix(0.05,0,0,0.05,87.45,0)" xlink:href="#aa"/><use transform="matrix(0.05,0,0,0.05,91.4,0)" xlink:href="#Q"/></g><g id="u"><use transform="matrix(0.05,0,0,0.05,0,0)" xlink:href="#ad"/><use transform="matrix(0.05,0,0,0.05,11.65,0)" xlink:href="#aa"/><use transform="matrix(0.05,0,0,0.05,15.600000000000001,0)" xlink:href="#Y"/><use transform="matrix(0.05,0,0,0.05,24.6,0)" xlink:href="#S"/><use transform="matrix(0.05,0,0,0.05,29.6,0)" xlink:href="#V"/><use transform="matrix(0.05,0,0,0.05,39.6,0)" xlink:href="#an"/><use transform="matrix(0.05,0,0,0.05,52.550000000000004,0)" xlink:href="#ag"/><use transform="matrix(0.05,0,0,0.05,62.550000000000004,0)" xlink:href="#U"/><use transform="matrix(0.05,0,0,0.05,66.5,0)" xlink:href="#X"/><use transform="matrix(0.05,0,0,0.05,79.45,0)" xlink:href="#Y"/><use transform="matrix(0.05,0,0,0.05,88.45,0)" xlink:href="#Z"/><use transform="matrix(0.05,0,0,0.05,98.45,0)" xlink:href="#V"/><use transform="matrix(0.05,0,0,0.05,108.45,0)" xlink:href="#T"/><use transform="matrix(0.05,0,0,0.05,114.4,0)" xlink:href="#aa"/><use transform="matrix(0.05,0,0,0.05,118.35000000000001,0)" xlink:href="#Q"/></g><g id="v"><use transform="matrix(0.05,0,0,0.05,0,0)" xlink:href="#P"/><use transform="matrix(0.05,0,0,0.05,12.950000000000001,0)" xlink:href="#Q"/><use transform="matrix(0.05,0,0,0.05,22.950000000000003,0)" xlink:href="#R"/><use transform="matrix(0.05,0,0,0.05,32.95,0)" xlink:href="#S"/><use transform="matrix(0.05,0,0,0.05,37.95,0)" xlink:href="#T"/><use transform="matrix(0.05,0,0,0.05,43.900000000000006,0)" xlink:href="#Q"/><use transform="matrix(0.05,0,0,0.05,53.900000000000006,0)" xlink:href="#U"/><use transform="matrix(0.05,0,0,0.05,57.85,0)" xlink:href="#V"/><use transform="matrix(0.05,0,0,0.05,67.85000000000001,0)" xlink:href="#W"/><use transform="matrix(0.05,0,0,0.05,77.85000000000001,0)" xlink:href="#Q"/><use transform="matrix(0.05,0,0,0.05,87.85000000000001,0)" xlink:href="#T"/><use transform="matrix(0.05,0,0,0.05,93.80000000000001,0)" xlink:href="#ae"/><use transform="matrix(0.05,0,0,0.05,106.75,0)" xlink:href="#Q"/><use transform="matrix(0.05,0,0,0.05,116.75,0)" xlink:href="#af"/><use transform="matrix(0.05,0,0,0.05,131.70000000000002,0)" xlink:href="#ag"/></g><g id="w"><use transform="matrix(0.05,0,0,0.05,0,0)" xlink:href="#P"/><use transform="matrix(0.05,0,0,0.05,12.950000000000001,0)" xlink:href="#Q"/><use transform="matrix(0.05,0,0,0.05,22.950000000000003,0)" xlink:href="#R"/><use transform="matrix(0.05,0,0,0.05,32.95,0)" xlink:href="#S"/><use transform="matrix(0.05,0,0,0.05,37.95,0)" xlink:href="#T"/><use transform="matrix(0.05,0,0,0.05,43.900000000000006,0)" xlink:href="#Q"/><use transform="matrix(0.05,0,0,0.05,53.900000000000006,0)" xlink:href="#U"/><use transform="matrix(0.05,0,0,0.05,57.85,0)" xlink:href="#V"/><use transform="matrix(0.05,0,0,0.05,67.85000000000001,0)" xlink:href="#W"/><use transform="matrix(0.05,0,0,0.05,77.85000000000001,0)" xlink:href="#Q"/><use transform="matrix(0.05,0,0,0.05,87.85000000000001,0)" xlink:href="#T"/><use transform="matrix(0.05,0,0,0.05,93.80000000000001,0)" xlink:href="#ah"/><use transform="matrix(0.05,0,0,0.05,105.80000000000001,0)" xlink:href="#Z"/><use transform="matrix(0.05,0,0,0.05,115.80000000000001,0)" xlink:href="#Y"/><use transform="matrix(0.05,0,0,0.05,124.80000000000001,0)" xlink:href="#ai"/><use transform="matrix(0.05,0,0,0.05,134.8,0)" xlink:href="#Z"/><use transform="matrix(0.05,0,0,0.05,144.8,0)" xlink:href="#ag"/><use transform="matrix(0.05,0,0,0.05,154.8,0)" xlink:href="#W"/><use transform="matrix(0.05,0,0,0.05,164.8,0)" xlink:href="#V"/></g><path d="M177-190C167-65 218 103 67 71c-23-6-38-20-44-43l32-5c15 47 100 32 89-28v-30C133-14 115 1 83 1 29 1 15-40 15-95c0-56 16-97 71-98 29-1 48 16 59 35 1-10 0-23 2-32h30zM94-22c36 0 50-32 50-73 0-42-14-75-50-75-39 0-46 34-46 75s6 73 46 73" id="ao"/><g id="x"><use transform="matrix(0.05,0,0,0.05,0,0)" xlink:href="#P"/><use transform="matrix(0.05,0,0,0.05,12.950000000000001,0)" xlink:href="#Q"/><use transform="matrix(0.05,0,0,0.05,22.950000000000003,0)" xlink:href="#R"/><use transform="matrix(0.05,0,0,0.05,32.95,0)" xlink:href="#S"/><use transform="matrix(0.05,0,0,0.05,37.95,0)" xlink:href="#T"/><use transform="matrix(0.05,0,0,0.05,43.900000000000006,0)" xlink:href="#Q"/><use transform="matrix(0.05,0,0,0.05,53.900000000000006,0)" xlink:href="#U"/><use transform="matrix(0.05,0,0,0.05,57.85,0)" xlink:href="#V"/><use transform="matrix(0.05,0,0,0.05,67.85000000000001,0)" xlink:href="#W"/><use transform="matrix(0.05,0,0,0.05,77.85000000000001,0)" xlink:href="#Q"/><use transform="matrix(0.05,0,0,0.05,87.85000000000001,0)" xlink:href="#T"/><use transform="matrix(0.05,0,0,0.05,93.80000000000001,0)" xlink:href="#aj"/><use transform="matrix(0.05,0,0,0.05,98.80000000000001,0)" xlink:href="#R"/><use transform="matrix(0.05,0,0,0.05,108.80000000000001,0)" xlink:href="#ao"/><use transform="matrix(0.05,0,0,0.05,118.80000000000001,0)" xlink:href="#T"/><use transform="matrix(0.05,0,0,0.05,124.75,0)" xlink:href="#ag"/><use transform="matrix(0.05,0,0,0.05,134.75,0)" xlink:href="#Y"/><use transform="matrix(0.05,0,0,0.05,143.75,0)" xlink:href="#Q"/></g><g id="y"><use transform="matrix(0.05,0,0,0.05,0,0)" xlink:href="#X"/><use transform="matrix(0.05,0,0,0.05,12.950000000000001,0)" xlink:href="#Y"/><use transform="matrix(0.05,0,0,0.05,21.950000000000003,0)" xlink:href="#Z"/><use transform="matrix(0.05,0,0,0.05,31.950000000000003,0)" xlink:href="#V"/><use transform="matrix(0.05,0,0,0.05,41.95,0)" xlink:href="#T"/><use transform="matrix(0.05,0,0,0.05,47.900000000000006,0)" xlink:href="#aa"/><use transform="matrix(0.05,0,0,0.05,51.85,0)" xlink:href="#Q"/></g><g id="z"><use transform="matrix(0.05,0,0,0.05,0,0)" xlink:href="#ac"/><use transform="matrix(0.05,0,0,0.05,12,0)" xlink:href="#aa"/><use transform="matrix(0.05,0,0,0.05,15.949999999999998,0)" xlink:href="#S"/><use transform="matrix(0.05,0,0,0.05,20.95,0)" xlink:href="#aa"/><use transform="matrix(0.05,0,0,0.05,24.9,0)" xlink:href="#Q"/></g><g id="A"><use transform="matrix(0.05,0,0,0.05,0,0)" xlink:href="#ab"/><use transform="matrix(0.05,0,0,0.05,12,0)" xlink:href="#U"/><use transform="matrix(0.05,0,0,0.05,15.949999999999998,0)" xlink:href="#V"/><use transform="matrix(0.05,0,0,0.05,25.950000000000003,0)" xlink:href="#S"/><use transform="matrix(0.05,0,0,0.05,30.950000000000003,0)" xlink:href="#Q"/></g><g id="B"><use transform="matrix(0.05,0,0,0.05,0,0)" xlink:href="#ad"/><use transform="matrix(0.05,0,0,0.05,11.65,0)" xlink:href="#aa"/><use transform="matrix(0.05,0,0,0.05,15.600000000000001,0)" xlink:href="#Y"/><use transform="matrix(0.05,0,0,0.05,24.6,0)" xlink:href="#S"/><use transform="matrix(0.05,0,0,0.05,29.6,0)" xlink:href="#V"/><use transform="matrix(0.05,0,0,0.05,39.6,0)" xlink:href="#aj"/><use transform="matrix(0.05,0,0,0.05,44.6,0)" xlink:href="#R"/><use transform="matrix(0.05,0,0,0.05,54.6,0)" xlink:href="#ao"/><use transform="matrix(0.05,0,0,0.05,64.6,0)" xlink:href="#T"/><use transform="matrix(0.05,0,0,0.05,70.55,0)" xlink:href="#ag"/><use transform="matrix(0.05,0,0,0.05,80.55,0)" xlink:href="#Y"/><use transform="matrix(0.05,0,0,0.05,89.55,0)" xlink:href="#Q"/></g></defs></g></svg>